<svg width="76" height="59" viewBox="0 0 76 59" fill="none" xmlns="http://www.w3.org/2000/svg">
<path d="M43.0975 56.9662C44.14 56.8363 45.4377 56.7605 46.7145 56.2593C48.5273 55.5478 50.3285 54.827 51.9882 53.8116C53.7244 52.7498 55.234 51.4404 56.2502 49.6184C56.6647 48.8744 57.2192 48.2108 57.6353 47.4584C57.8325 47.1011 57.7498 47.026 57.4002 47.0299C56.6176 47.0384 55.8357 46.9116 55.0523 47.0438C54.4784 47.1405 53.9695 46.8899 53.5272 46.5976C53.132 46.337 52.7453 46.0214 52.5102 45.569C52.3393 45.2403 52.149 45.2411 51.8513 45.5095C50.9905 46.2852 50.3393 47.248 49.5072 48.0484C49.337 48.2124 49.1893 48.3415 48.962 48.2511C48.7284 48.1583 48.7918 47.9262 48.7763 47.7399C48.7454 47.3648 49.0478 47.1444 49.1963 46.852C49.7709 45.7206 50.3262 44.5791 50.9139 43.4546C51.2125 42.8839 51.569 42.3448 51.8915 41.7864C52.0585 41.4964 52.1328 41.208 51.8528 40.9241C51.7716 40.8422 51.678 40.6828 51.7059 40.5962C51.9209 39.9335 51.4019 39.976 51.0369 39.8801C50.0277 39.6164 49.3208 38.9041 48.8823 38.0596C47.9875 36.3357 47.5962 34.4997 47.9759 32.516C48.1128 31.8014 48.2319 31.0551 48.3997 30.3599C48.6302 29.4048 48.7872 28.428 49.0625 27.4768C49.3788 26.3863 49.5714 25.2487 49.5621 24.0917C49.5582 23.5666 49.5853 23.033 49.6727 22.5163C49.774 21.9216 49.699 21.3486 49.5636 20.784C49.4391 20.2635 48.549 20.1406 48.0517 20.6371C47.2536 21.4329 46.491 22.2519 46.0858 23.3671C45.6581 24.5472 45.4555 25.7274 45.556 26.9733C45.621 27.783 45.256 28.4976 45.0533 29.254C44.8971 29.8348 44.4393 30.0954 44.164 30.5308C44.0851 30.6561 43.9853 30.7458 43.8175 30.7249C43.6272 30.7009 43.6342 30.5416 43.5816 30.4148C43.3395 29.8278 43.2529 29.2006 43.0874 28.595C42.8786 27.8317 43.1725 27.1976 43.4385 26.5402C43.4927 26.4072 43.5429 26.2834 43.529 26.1342C43.4269 25.0785 43.389 24.0167 43.1996 22.9711C43.1725 22.8203 43.0774 22.678 42.9985 22.5403C42.8902 22.3516 42.84 22.3624 42.6737 22.5473C41.6443 23.6926 41.2043 25.0213 41.2994 26.5503C41.3265 26.9888 41.055 27.3662 40.8129 27.6771C40.4742 28.1117 40.301 28.5711 40.2035 29.0931C40.1718 29.2625 40.1695 29.513 39.9112 29.5417C39.6026 29.5757 39.6916 29.2849 39.6057 29.1364C39.1463 28.3453 39.2979 27.5464 39.574 26.7444C39.6212 26.6075 39.6614 26.4002 39.5523 26.343C39.103 26.1087 39.4186 25.8991 39.5067 25.6299C40.0001 24.1242 40.2963 22.6153 39.2546 21.1923C38.8733 20.6719 38.5756 20.6889 38.2825 21.221C38.1208 21.5141 37.7952 21.5388 37.5106 21.5899C37.3985 21.61 37.3173 21.4769 37.4294 21.3733C38.0056 20.8405 38.3443 20.0524 39.1966 19.8119C39.8199 19.6363 40.2979 20.0068 40.1989 20.6518C40.1618 20.8915 40.5662 21.6022 40.7727 21.6625C40.9073 21.702 40.9405 21.6069 41.0102 21.5202C41.2723 21.1954 41.5701 20.8985 41.8253 20.569C42.2182 20.0624 42.7688 19.7995 43.3357 19.5791C43.8492 19.3796 44.8012 20.1792 44.7432 20.7368C44.7208 20.9518 44.6442 21.1954 44.9025 21.2906C45.1632 21.3865 45.2057 21.1042 45.2931 20.9596C45.8081 20.1034 46.5235 19.4128 47.1585 18.6557C47.8955 17.7771 49.3958 17.6433 50.2705 18.3796C50.5907 18.6487 50.9402 18.9001 51.1962 19.2233C51.5597 19.6827 52.009 20.0918 51.7677 20.8466C51.6022 21.3625 51.7531 21.9734 51.7206 22.5396C51.6556 23.6733 51.4074 24.7862 51.2975 25.913C51.2256 26.6477 50.9921 27.3406 50.8559 28.0529C50.6804 28.9701 50.4538 29.8928 50.2148 30.8053C49.914 31.9554 49.7601 33.1316 49.9673 34.3474C50.1019 35.1347 50.2334 35.9158 50.5884 36.6226C50.8954 37.2328 51.2109 37.8469 51.6873 38.3658C51.8969 38.594 52.0013 38.5414 52.207 38.4122C52.6208 38.1524 53.4491 38.2429 53.7863 38.5592C53.8489 38.6179 53.9139 38.679 53.9595 38.7502C54.1722 39.0796 54.4204 39.3109 54.7746 39.5452C55.3778 39.9451 55.9911 40.2815 56.6508 40.556C56.9037 40.6612 56.8913 40.9365 57.0027 41.1252C57.1922 41.4462 56.8496 41.3735 56.6972 41.4694C56.4327 41.6364 56.5062 41.9535 56.5193 42.2064C56.5534 42.8978 56.2131 43.4144 55.7042 43.7763C55.2564 44.095 54.7027 43.9944 54.2077 43.7964C53.9432 43.6905 53.3462 43.791 53.2085 44.0184C53.1676 44.0857 53.1521 44.1669 53.2201 44.2071C53.4568 44.3471 53.6385 44.5946 53.9664 44.5567C55.1327 44.4236 56.302 44.4438 57.4729 44.4693C58.1318 44.484 58.7064 44.0184 58.8062 43.3695C58.8356 43.1762 58.899 43.0803 59.0568 43.0277C59.5107 42.8769 59.9284 42.5304 60.4574 42.7702C60.7288 42.8931 60.9531 43.0579 60.9392 43.3835C60.9129 43.9674 61.38 44.1073 61.7357 44.0486C62.4704 43.9271 62.7133 44.5652 63.192 44.8243C63.2562 44.8591 63.267 44.9488 63.2214 45.0137C62.8231 45.5729 62.7125 46.3084 62.1348 46.76C61.8131 47.0114 61.52 47.3099 61.059 47.1699C60.6785 47.0547 60.4233 47.2952 60.2431 47.5341C59.9005 47.9897 59.4496 48.3562 59.2377 48.9262C58.8967 49.8442 58.0901 50.4598 57.5982 51.2927C57.0739 52.1813 56.2487 52.8147 55.5372 53.5471C54.5001 54.6136 53.2727 55.3591 52.0036 56.0931C50.6959 56.8486 49.2984 57.3335 47.8707 57.762C47.0479 58.0087 46.2753 58.3768 45.4733 58.6753C45.0974 58.8153 44.7123 58.796 44.3287 58.8347C42.4401 59.0241 40.5918 58.8942 38.7465 58.3838C37.4828 58.0342 36.1596 57.9089 34.9036 57.4882C33.8309 57.1294 32.7815 56.7148 31.7243 56.3181C31.0685 56.0722 30.408 55.8085 29.7885 55.5076C29.0105 55.1294 28.2147 54.7714 27.4553 54.3421C26.0702 53.5595 24.7361 52.6987 23.4832 51.7289C22.6766 51.1048 22.0308 50.2881 21.5158 49.3957C20.9883 48.4815 20.5986 47.5079 20.2954 46.4932C20.058 45.6966 20.1492 44.8908 20.1044 44.088C20.051 43.1259 20.2072 42.2141 20.6009 41.3294C21.0425 40.3379 21.7517 39.5684 22.4809 38.7881C23.0084 38.2228 23.7361 37.9822 24.286 37.4563C24.6263 37.1315 25.1761 37.0611 25.6765 37.0434C25.7747 37.0403 25.9062 37.0233 25.9402 37.1594C25.9774 37.3079 25.8853 37.3759 25.7569 37.4339C24.2976 38.0936 23.6603 39.4764 23.0455 40.7818C22.7253 41.4609 22.7872 42.3471 22.8205 43.1661C22.8529 43.9666 22.9512 44.7485 23.2218 45.4793C23.5768 46.4375 23.914 47.4212 24.5969 48.2232C25.2535 48.9943 25.9201 49.7545 26.695 50.4142C27.9819 51.5093 29.3802 52.4327 30.8921 53.1836C32.3167 53.8913 33.7234 54.6298 35.1836 55.2694C36.9175 56.0296 38.7202 56.4295 40.5786 56.7118C41.3288 56.8262 42.0712 56.9291 43.0998 56.9631L43.0975 56.9662Z" fill="#696969"/>
<path d="M12.9337 34.3373C12.3483 34.5237 11.8556 34.1896 11.3777 33.9909C10.8704 33.7797 10.4118 33.888 9.9253 33.9112C8.83871 33.9638 7.74517 34.1084 6.69957 34.3195C5.07626 34.6467 4.14203 33.6467 3.08019 32.8455C1.89925 31.9538 1.35712 30.6398 0.919388 29.2795C0.785594 28.8642 0.489393 28.5355 0.379574 28.0924C0.176177 27.2703 0.42675 26.5008 0.553583 25.7235C0.728365 24.6509 1.76546 24.357 2.48082 23.7847C3.20702 23.2047 4.10491 22.9649 4.96025 22.6579C5.57276 22.4382 6.21853 22.4684 6.84651 22.6022C7.7034 22.7847 8.54329 23.0198 9.3182 23.456C10.3638 24.0438 11.5362 24.1203 12.6932 24.217C13.2547 24.2642 13.813 24.2588 14.3382 24.514C14.5184 24.6014 14.697 24.5936 14.6158 24.282C14.4789 23.7561 14.383 23.2193 14.2399 22.6958C13.554 20.1839 12.6035 17.7794 11.24 15.5552C10.7041 14.6805 10.0738 13.8639 9.51696 13.0008C9.03438 12.2537 8.66625 11.4424 8.28421 10.6381C7.78074 9.57707 7.39328 8.4727 6.99036 7.37374C6.76144 6.74808 6.53793 6.07602 6.59207 5.43103C6.72277 3.87268 5.93934 2.97093 4.69112 2.25479C4.08093 1.90445 3.55581 1.40563 2.87756 1.1597C2.69428 1.09319 2.586 0.973313 2.61849 0.755996C2.65638 0.507743 2.85282 0.584307 2.99357 0.570387C4.1196 0.455154 5.21933 0.405658 6.09866 1.34685C6.3152 1.57809 6.6462 1.75597 6.92926 1.8828C7.79312 2.27026 8.29194 3.04982 8.96709 3.63294C9.71185 4.27638 9.65926 5.00026 8.84954 5.53775C8.4412 5.80921 8.58427 6.14949 8.66393 6.43022C9.09083 7.9352 9.58502 9.41698 10.4272 10.7572C10.6051 11.0403 10.6198 11.3891 10.7977 11.7054C11.5123 12.9791 12.2918 14.1918 13.2469 15.3039C13.5215 15.6233 13.6754 16.0904 13.8942 16.4871C14.4472 17.4879 14.9739 18.5049 15.4549 19.5412C15.6738 20.0129 15.7875 20.5404 15.8988 21.0539C16.0001 21.5179 16.1069 21.9673 16.386 22.3632C16.5191 22.5519 16.4317 22.7839 16.4324 22.9873C16.4371 23.9618 17.0303 24.7932 17.0929 25.7374C17.1818 27.0707 17.5531 28.3932 17.0921 29.7536C16.8934 30.339 16.8006 30.9894 16.6954 31.6166C16.6389 31.953 16.5438 32.2307 16.2584 32.4464C16.0612 32.5949 15.8052 32.721 15.806 33.0419C15.806 33.1108 15.7117 33.2376 15.6544 33.2415C14.9043 33.2941 14.5578 34.0179 13.926 34.2693C13.5919 34.4023 13.2585 34.2902 12.9345 34.3373H12.9337ZM11.6561 32.9298C12.8935 33.0868 13.8741 32.8285 14.6135 31.9445C15.3644 31.0474 15.8571 30.0784 15.772 28.8309C15.7117 27.9532 15.4905 27.145 15.2213 26.3275C15.0381 25.7699 14.9282 25.6926 14.4642 26.0035C13.5563 26.6114 12.52 26.5727 11.5563 26.394C10.4682 26.1922 9.40946 25.7784 8.43733 25.2015C7.89288 24.8782 7.3028 24.6292 6.68178 24.5588C5.39721 24.4127 4.15517 24.6447 3.04229 25.3105C2.58678 25.5835 2.20009 25.988 1.99979 26.5309C1.72137 27.2857 1.65641 28.0011 2.08254 28.742C2.44525 29.3723 2.63473 30.1186 3.06472 30.6909C3.70507 31.5431 4.48927 32.2972 5.42428 32.8385C6.2456 33.3142 7.16436 33.523 8.10942 33.4224C9.33676 33.2917 10.5556 33.0876 11.6577 32.9313L11.6561 32.9298Z" fill="#696969"/>
<path d="M54.3765 25.4915C54.651 25.0112 54.5574 24.6021 54.4376 24.3183C54.1267 23.5844 54.4754 22.9711 54.6742 22.3416C54.8088 21.9162 55.0903 21.5318 55.337 21.1483C55.5582 20.8049 55.8049 20.4569 56.3006 20.7817C56.3648 20.8242 56.4816 20.825 56.5605 20.801C57.357 20.5605 57.8806 21.0106 58.4336 21.4762C58.7584 21.7499 59.169 21.8961 59.6006 22.0245C60.1999 22.2031 60.7305 22.6177 60.9818 23.2279C61.1574 23.654 60.7939 23.9618 60.5302 24.227C60.2703 24.4884 59.9393 24.3199 59.7228 24.1373C59.456 23.9123 59.1907 23.6957 58.9966 23.3547C58.6176 22.6873 57.9371 22.2967 57.2395 22.009C56.8373 21.8435 56.1057 22.4901 56.016 23.0755C55.9735 23.3516 55.9155 23.6153 55.8443 23.8837C55.62 24.7251 56.4189 25.4722 57.0229 25.9308C58.2603 26.8689 59.7235 27.5379 60.6748 28.8178C61.1496 29.4574 61.3453 30.2377 61.3151 31.0505C61.3074 31.2593 61.1783 31.4225 61.0228 31.5377C60.8094 31.6963 60.7212 31.9314 60.6044 32.1448C60.3059 32.6916 59.9826 33.2229 59.275 33.2229C58.5619 33.2229 58.0616 33.7341 57.4313 33.9066C56.7082 34.1045 56.1776 34.8083 55.3401 34.6877C55.2434 34.6737 55.1607 34.7078 55.1545 34.8199C55.1491 34.9181 55.204 34.9816 55.2975 35.0171C55.5922 35.1277 55.8737 35.0898 56.1807 35.0233C57.6733 34.7008 59.1018 34.1533 60.5812 33.7875C61.6044 33.5346 62.6685 33.5152 63.6855 33.267C64.3901 33.0945 65.1271 33.0327 65.7976 32.7094C66.0745 32.5756 66.3993 32.5679 66.7009 32.4735C67.7805 32.1363 68.847 31.755 69.9607 31.5199C70.3605 31.4356 70.7572 31.165 70.9738 30.7334C71.294 30.0938 71.9428 30.1851 72.4896 30.1433C72.9219 30.1101 73.2978 30.4102 73.4408 30.7976C73.6133 31.2655 73.942 31.4349 74.3581 31.5594C74.8198 31.697 75.2505 31.8881 75.5552 32.2902C75.7029 32.4851 75.7316 32.6328 75.546 32.844C75.2923 33.1324 75.0711 33.4565 74.8754 33.7882C74.6782 34.1223 74.4222 34.3984 74.0557 34.4704C73.6048 34.5593 73.4029 34.8733 73.2475 35.2221C72.9204 35.956 72.5747 36.6629 72.0642 37.3032C71.4131 38.1199 70.9715 39.1021 70.1911 39.8213C69.0226 40.8986 68.1216 42.1584 67.4921 43.6162C67.4341 43.7508 67.4093 43.9728 67.1881 43.9032C67.0172 43.8498 67.0559 43.6619 67.0915 43.5327C67.3575 42.5776 67.2639 41.5653 67.5346 40.6179C67.7016 40.034 67.9692 39.4764 68.2144 38.9165C68.8594 37.4463 69.6088 36.0279 70.3481 34.6041C70.4409 34.4255 70.444 34.1943 70.461 33.9847C70.4804 33.7387 70.277 33.8315 70.1579 33.8184C69.4634 33.7442 68.8563 34.0728 68.2183 34.2554C67.0899 34.5786 65.9538 34.881 64.844 35.2576C63.5904 35.6838 62.2795 35.7975 61.005 36.0882C60.0283 36.311 59.0476 36.5832 58.0894 36.9049C57.9115 36.9645 57.91 37.1083 57.8512 37.2243C57.7661 37.3922 57.7538 37.6079 57.4653 37.5553C57.3377 37.5321 57.2897 37.635 57.3354 37.768C57.4661 38.1532 57.1699 38.1153 56.9881 38.0588C56.6912 37.9668 56.3493 37.8678 56.1452 37.6574C55.7623 37.263 55.2712 37.1246 54.8173 36.8833C54.3881 36.6544 53.9341 36.328 53.7036 35.9235C53.5474 35.6497 53.8196 35.1904 54.1328 34.9266C54.204 34.8671 54.4004 34.8307 54.2713 34.7348C53.9318 34.4835 54.2883 34.4603 54.3718 34.3574C54.5783 34.1007 54.9248 33.9468 54.8498 33.5044C54.8041 33.2322 54.883 32.9422 54.4963 32.8641C54.4236 32.8494 54.3633 32.7511 54.3053 32.6839C54.1785 32.5385 53.9774 32.3606 54.1243 32.1843C54.2705 32.0095 54.4538 32.1835 54.627 32.2833C55.4012 32.731 55.9062 32.8927 56.5489 32.0551C57.0848 31.356 57.6509 30.6808 58.1954 29.9887C58.5078 29.5912 58.415 28.9748 58.0299 28.6322C57.1676 27.865 56.3138 27.0885 55.4592 26.3128C55.2225 26.0986 55.0145 25.8488 54.9116 25.5495C54.8173 25.2765 54.6974 25.2092 54.3795 25.4892L54.3765 25.4915Z" fill="#696969"/>
<path d="M58.8356 10.0713C58.7575 10.1594 58.7181 10.2174 58.6662 10.2592C58.5332 10.3659 58.2254 10.427 58.2935 10.5755C58.4095 10.8299 58.4288 11.1122 58.568 11.3527C58.6392 11.4757 58.7513 11.4262 58.8511 11.4223C59.3112 11.4022 59.7884 11.4517 60.2277 11.3442C60.9856 11.1594 61.7427 11.2599 62.4991 11.2336C62.919 11.2189 63.332 11.2986 63.7078 10.9846C63.9801 10.7572 64.2531 11.0937 64.5508 11.1107C65.5856 11.171 66.5701 11.4997 67.4834 11.9768C68.1362 12.3179 68.1617 12.826 67.6582 13.4029C67.2244 13.8994 66.3814 14.0425 65.7333 13.6875C64.9259 13.2459 64.045 13.1562 63.158 13.0193C61.9136 12.8276 60.6863 12.9528 59.462 13.099C58.9392 13.1616 58.4226 13.2506 57.8936 13.2398C57.7328 13.2367 57.6353 13.3094 57.5742 13.4633C57.2293 14.3217 56.6717 15.0665 56.2773 15.9056C56.0066 16.4817 55.6919 17.0911 55.1845 17.5443C55.0724 17.6441 54.9889 17.774 54.8365 17.6936C54.6648 17.6031 54.7058 17.46 54.7584 17.2868C55.1404 16.0285 55.3469 14.7339 55.5001 13.4308C55.5294 13.1833 55.3415 13.2421 55.2247 13.2398C54.1613 13.2243 53.0964 13.1879 52.0346 13.2227C51.4855 13.2405 50.9356 13.2575 50.3881 13.2413C49.9921 13.2297 49.7516 13.314 49.7021 13.7672C49.6704 14.0533 49.5072 14.3225 49.433 14.6071C49.3363 14.9767 49.2218 15.3542 49.4948 15.7107C49.6364 15.8955 49.5753 16.136 49.4461 16.242C49.2296 16.4199 49.1476 16.1175 49.0602 16.0123C48.4817 15.3178 48.0981 14.5104 47.8344 13.6543C47.7601 13.413 47.6797 13.372 47.4547 13.3511C46.4756 13.2614 45.4764 13.3666 44.5607 13.5746C43.3457 13.8507 42.2027 13.6473 41.0249 13.5855C40.5361 13.5599 40.0543 13.3797 39.5562 13.512C38.6158 13.761 37.8865 13.512 37.322 12.6775C36.803 11.9088 35.9848 11.4131 35.3406 10.6853C35.6971 10.56 35.9392 10.5538 36.3243 10.751C36.9724 11.0828 37.4418 11.683 38.1719 11.8833C38.4418 11.9575 38.687 12.0782 38.9824 12.0619C39.8408 12.0155 40.7024 12.171 41.5647 11.9413C41.7704 11.8864 42.0836 12.0774 42.3667 12.0294C43.8546 11.7781 45.3472 11.5631 46.8607 11.5453C47.2961 11.5399 47.208 11.2947 47.0749 11.0558C46.7308 10.4347 46.1856 9.98928 45.6527 9.55078C45.4091 9.35047 45.1585 9.20662 45.3844 8.89032C45.6256 8.55235 46.0015 8.20047 46.3982 8.50982C46.9899 8.97075 47.6759 8.96224 48.3348 9.10531C48.7029 9.18497 49.0293 9.23601 48.6983 9.73174C48.5637 9.93282 48.7439 10.1602 48.7717 10.3705C48.9024 11.3682 49.5613 11.3813 50.3533 11.4347C52.1351 11.5538 53.9108 11.4324 55.6888 11.4486C55.9053 11.4509 56.0259 11.3844 56.0816 11.1911C56.1481 10.9622 56.1884 10.7147 55.9386 10.5778C55.5472 10.3628 55.5109 9.90653 55.2387 9.60646C55.0701 9.42162 55.1729 9.17956 55.425 9.10918C55.9896 8.95141 56.548 8.91893 56.9865 9.41312C57.244 9.70236 57.6137 9.70468 57.9385 9.81836C58.2185 9.91581 58.5085 9.98309 58.8333 10.0743L58.8356 10.0713Z" fill="#696969"/>
<path d="M34.6344 21.3663C34.7907 21.9789 35.1859 22.5798 35.4782 23.2232C35.8254 23.9881 36.2222 24.7754 36.1441 25.6145C36.0737 26.3662 35.9732 27.1326 35.8069 27.8727C35.6104 28.7497 35.6731 29.6236 35.9515 30.4163C36.2322 31.2176 37.1425 31.9816 38.1827 31.3831C38.4673 31.2191 38.598 31.4565 38.5647 31.6127C38.4982 31.9244 38.4255 32.3312 38.0404 32.3962C36.9376 32.5818 35.7953 32.697 34.8835 31.8927C34.2199 31.3073 33.4442 30.7458 33.3839 29.711C33.3584 29.2748 33.0429 29.4589 32.9075 29.5873C32.2331 30.2284 31.3267 30.1789 30.5232 30.3637C29.664 30.5617 28.8581 30.0815 28.084 29.7373C27.2054 29.3468 26.4514 28.7621 25.6773 28.1836C25.0361 27.7049 25.0655 27.1427 24.924 26.5843C24.8219 26.1798 24.6216 25.7993 24.8335 25.2757C25.0346 24.7792 25.3973 24.6122 25.719 24.606C26.3919 24.5944 27.0198 24.374 27.746 24.4985C29.0917 24.729 30.4768 24.8666 31.8611 24.7676C32.0375 24.7553 32.2161 24.7638 32.3932 24.7622C32.534 24.7607 32.6593 24.7491 32.7869 24.6493C33.1504 24.3639 33.3259 23.6076 33.1712 23.1784C32.8201 22.2062 32.2996 21.3138 31.9014 20.3648C31.848 20.2388 31.766 20.0941 31.6554 20.0269C31.1922 19.7454 31.3662 19.5095 31.6786 19.2612C32.2432 18.8127 32.7699 18.822 33.4365 19.4662C33.8294 19.8459 34.2663 20.2125 34.527 20.7291C34.619 20.9108 34.7133 21.0624 34.6352 21.3671L34.6344 21.3663ZM30.3206 28.8325C31.0336 28.7087 31.7985 28.6561 32.4992 28.4156C32.7729 28.3213 33.3159 28.3978 33.3653 27.7846C33.3978 27.387 33.1039 27.3577 32.947 27.2084C32.5185 26.8001 32.0591 26.3252 31.5046 26.1968C30.6872 26.0081 29.8658 25.8117 29.0399 25.6539C28.5078 25.5526 27.9587 25.5665 27.4158 25.5441C27.2194 25.5364 27.067 25.3353 26.852 25.5789C26.6881 25.7645 26.6053 25.937 26.5891 26.1852C26.5558 26.6941 26.8822 27.0143 27.1877 27.3058C27.6439 27.7412 28.1977 28.049 28.7661 28.336C29.2564 28.5834 29.7375 28.807 30.3206 28.8325Z" fill="#696969"/>
<path d="M20.1351 14.7571C20.1351 15.4663 20.1258 16.1747 20.139 16.8831C20.1459 17.2365 20.2689 17.5018 20.7105 17.4291C21.0106 17.3796 20.9611 17.6016 20.9479 17.7733C20.9155 18.1855 20.6316 18.4971 20.4012 18.7771C19.9874 19.279 19.6355 19.8962 18.7771 19.8405C18.4252 19.8181 18.4291 19.5489 18.2349 19.4708C17.9426 19.3525 17.8962 19.2512 18.0687 18.955C18.204 18.723 17.9055 18.4755 17.8978 18.2033C17.8715 17.2845 17.9233 16.3479 17.6897 15.4593C17.5173 14.8027 17.7261 14.174 17.641 13.5367C17.5219 12.6396 17.2017 11.8075 16.8251 10.9939C16.3634 9.99546 16.0045 8.95837 15.624 7.92747C15.3596 7.21055 15.0974 6.48513 14.8043 5.77517C14.7385 5.61586 14.6821 5.50217 14.5305 5.42484C14.3588 5.33745 14.348 5.21371 14.4245 5.02964C14.5011 4.84635 14.5676 4.72339 14.7934 4.73267C15.1987 4.74968 16.0734 5.43334 16.1515 5.84864C16.3108 6.69394 16.8266 7.38069 17.1484 8.15329C17.3556 8.65212 17.6619 9.1115 17.8506 9.61574C17.9349 9.84079 18.0888 9.94519 18.2435 9.99237C18.4615 10.0589 18.4136 9.78743 18.4994 9.67606C19.2883 8.65908 19.9982 7.56398 21.132 6.87646C21.4251 6.69858 21.5094 6.34438 21.8551 6.19976C23.3887 5.55786 24.8473 5.83395 26.2888 6.48668C26.6539 6.65218 27.0181 6.82 27.3832 6.98395C27.5897 7.07676 27.7714 7.23839 27.7459 7.45107C27.7149 7.71866 27.4497 7.60652 27.2718 7.63281C25.889 7.83698 24.4583 7.66839 23.1103 8.12622C22.2843 8.40696 21.7113 9.00787 21.2263 9.72401C20.8598 10.2654 20.586 10.823 20.3741 11.4502C20.0036 12.5437 20.1297 13.652 20.1351 14.7571Z" fill="#696969"/>
<path d="M27.1115 18.6039C27.9661 18.6348 28.7843 18.4755 29.5901 18.2033C29.8245 18.1244 30.1439 18.0146 30.3024 18.3022C30.4524 18.576 30.2552 18.7763 30.0317 18.9643C29.577 19.3471 29.1509 19.7446 28.577 19.9743C27.8052 20.2829 27.0713 20.0013 26.3621 19.8521C25.2275 19.6131 24.3908 18.7879 23.4983 18.0903C22.8556 17.5877 22.4589 15.3928 22.8695 14.5893C23.3019 13.7417 23.8656 13.0851 24.7272 12.6775C25.0667 12.5167 25.4054 12.4324 25.7844 12.3914C26.9398 12.2645 28.0921 12.3581 29.2398 12.4107C30.0062 12.4463 30.4942 13.6179 30.0866 14.2792C29.9815 14.4493 30.0542 14.6295 30.0016 14.7904C29.8809 15.16 29.7023 15.5073 29.3365 15.6937C28.9011 15.9156 28.7263 16.3897 28.3574 16.6751C28.3063 16.7145 28.311 16.8413 28.311 16.9272C28.311 17.1314 28.6574 17.3843 28.1555 17.5088C27.905 17.5706 27.7232 17.6457 27.4487 17.5498C26.8864 17.3533 26.3126 17.2195 25.7728 16.9334C25.4016 16.7362 25.3126 16.3835 25.161 16.102C25.0334 15.8638 25.3064 15.5475 25.6467 15.5954C26.1788 15.6712 26.5013 15.3619 26.8439 15.0595C26.9104 15.0007 26.9816 14.9373 26.9336 14.836C26.8872 14.7386 26.782 14.7223 26.7047 14.7509C25.8919 15.0471 24.9445 14.9427 24.2554 15.6163C23.9492 15.9156 23.8703 16.2768 24.0922 16.5637C24.7651 17.4322 25.6227 18.0965 26.6397 18.5319C26.7812 18.5923 26.9529 18.583 27.1099 18.6054L27.1115 18.6039Z" fill="#696969"/>
<path d="M42.4765 39.3867C41.9066 39.2877 41.448 39.3944 41.2747 40.1314C41.1734 40.5614 40.3761 40.5429 40.1603 40.0881C39.8896 39.5189 39.4998 39.1052 38.9554 38.8198C38.8347 38.7564 38.769 38.6806 38.752 38.5391C38.6955 38.0689 38.4728 37.6628 38.2114 37.2808C38.1263 37.157 38.1619 37.0395 38.2385 37.0124C38.4666 36.9328 38.5409 36.5005 38.8108 36.6559C39.1735 36.8639 39.6267 36.8183 39.9445 37.1246C40.083 37.2584 40.2771 37.2421 40.4503 37.1849C42.226 36.5964 44.065 36.7 45.8925 36.6807C46.2792 36.6768 46.6605 36.7093 46.9907 36.427C47.1059 36.328 47.3333 36.3249 47.4416 36.427C47.5893 36.567 47.4168 36.7046 47.3403 36.8361C47.0781 37.2854 46.7409 37.6435 46.2738 37.8972C46.0526 38.017 45.8368 38.2228 45.7193 38.4432C45.4517 38.9443 45.0024 39.0479 44.5113 39.1485C43.8555 39.283 43.1973 39.3673 42.4765 39.3867Z" fill="#696969"/>
<path d="M54.2944 49.7251C54.2163 50.0631 54.2318 50.3972 54.3137 50.7545C54.3934 51.0978 54.1784 51.2657 53.7995 51.1752C53.0586 50.9989 52.3502 50.8024 51.9751 50.0267C51.8042 49.6741 51.3889 49.5457 51.1329 49.2301C50.8212 48.845 50.9627 48.5388 51.0439 48.1884C51.0749 48.0539 51.1762 47.9363 51.2094 47.8025C51.3332 47.3052 51.5025 46.9626 52.1065 47.3253C52.2659 47.4212 52.5234 47.3431 52.7345 47.3625C53.19 47.4042 53.5241 47.473 53.7152 48.0569C53.8938 48.6053 54.214 49.1165 54.2944 49.7259V49.7251Z" fill="#696969"/>
<path d="M38.7285 40.9466C38.2375 40.9172 37.8593 40.5746 37.3945 40.4663C36.9452 40.3619 36.6613 40.0611 36.3551 39.7192C36.0465 39.3751 35.7789 38.9381 35.2406 38.8097C35.0403 38.7618 34.8184 38.4741 35.1935 38.2251C35.4417 38.0603 35.4456 37.8887 35.1525 37.7061C34.9174 37.56 34.656 37.3102 34.8578 37.0093C35.0558 36.7154 35.3536 36.6551 35.7124 36.8763C36.2251 37.1934 36.8253 37.2978 37.4053 37.4455C37.7 37.5205 37.8647 37.7092 37.8956 38.0433C37.9799 38.966 38.0689 39.8971 38.884 40.532C38.9969 40.6202 39.0302 40.7393 38.9977 40.8638C38.9582 41.0138 38.8229 40.9265 38.7285 40.9458V40.9466Z" fill="#696969"/>
</svg>
