<svg width="48" height="12" viewBox="0 0 48 12" fill="none" xmlns="http://www.w3.org/2000/svg">
<path d="M4.56082 1.52328H1.40482V4.36728H4.24882V5.29128H1.40482V9.08328H0.120821V0.575284H4.56082V1.52328ZM7.83776 2.51928C9.45776 2.51928 10.4418 3.97128 10.4418 5.91528C10.4418 7.85928 9.45776 9.32328 7.83776 9.32328C6.21776 9.32328 5.22176 7.85928 5.22176 5.91528C5.22176 3.98328 6.21776 2.51928 7.83776 2.51928ZM7.83776 3.34728C7.18976 3.34728 6.43376 3.97128 6.43376 5.91528C6.43376 7.87128 7.18976 8.49528 7.83776 8.49528C8.48576 8.49528 9.22976 7.87128 9.22976 5.91528C9.22976 3.97128 8.48576 3.34728 7.83776 3.34728ZM12.8491 2.69928H13.9531V3.51528H12.8491V7.84728C12.8491 8.31528 13.1371 8.51928 13.6891 8.32728V9.22728C12.4531 9.56328 11.6731 8.97528 11.6731 7.87128V3.51528H10.7971V2.81928C11.7571 2.73528 12.0811 2.14728 12.0811 1.10328H12.8491V2.69928ZM17.0487 2.51928C18.6687 2.51928 19.6527 3.97128 19.6527 5.91528C19.6527 7.85928 18.6687 9.32328 17.0487 9.32328C15.4287 9.32328 14.4327 7.85928 14.4327 5.91528C14.4327 3.98328 15.4287 2.51928 17.0487 2.51928ZM17.0487 3.34728C16.4007 3.34728 15.6447 3.97128 15.6447 5.91528C15.6447 7.87128 16.4007 8.49528 17.0487 8.49528C17.6967 8.49528 18.4407 7.87128 18.4407 5.91528C18.4407 3.97128 17.6967 3.34728 17.0487 3.34728ZM22.84 2.51928C23.272 2.51928 23.644 2.59128 23.992 2.73528H25.852V3.59928H24.916C25.192 3.98328 25.336 4.45128 25.336 4.91928C25.336 6.01128 24.64 6.93528 23.488 7.17528L21.556 7.59528C21.472 7.60728 21.412 7.66728 21.412 7.73928C21.412 7.83528 21.496 7.88328 21.58 7.89528H24.16C25.396 7.90728 25.888 8.56728 25.888 9.28728C25.888 10.1633 25.168 11.0273 23.98 11.0153H21.592C20.728 11.0153 20.116 10.5953 20.116 9.88728C20.116 9.29928 20.524 8.95128 20.92 8.75928C20.608 8.59128 20.428 8.32728 20.428 8.01528C20.428 7.63128 20.644 7.31928 21.16 7.12728L21.664 6.95928C20.824 6.56328 20.344 5.78328 20.344 4.87128C20.344 3.55128 21.256 2.51928 22.84 2.51928ZM22.84 3.25128C22.18 3.25128 21.496 3.76728 21.496 4.88328C21.496 5.98728 22.18 6.50328 22.84 6.50328C23.5 6.50328 24.184 5.98728 24.184 4.88328C24.184 3.76728 23.5 3.25128 22.84 3.25128ZM24.016 8.95128H21.736C21.424 9.08328 21.16 9.34728 21.16 9.71928C21.16 10.1513 21.484 10.3553 22.024 10.3553H23.86C24.508 10.3553 24.844 10.0073 24.844 9.57528C24.844 9.16728 24.556 8.95128 24.016 8.95128ZM29.361 2.51928C29.685 2.51928 29.997 2.61528 30.153 2.73528L30.009 3.86328C29.733 3.69528 29.433 3.61128 29.109 3.61128C28.497 3.61128 27.837 4.05528 27.837 5.27928V9.08328H26.661V2.69928H27.837V3.44328C28.125 2.92728 28.665 2.51928 29.361 2.51928ZM33.1028 2.51928C34.9028 2.51928 35.5148 3.58728 35.5148 4.55928V9.08328H34.3388V8.29128C33.9668 8.91528 33.3548 9.32328 32.4548 9.32328C31.3868 9.32328 30.4988 8.67528 30.4988 7.63128C30.4988 6.29928 31.5428 5.83128 32.9948 5.37528L34.3388 4.97928V4.64328C34.3388 3.79128 33.8348 3.34728 33.0548 3.34728C32.3108 3.34728 31.7708 3.86328 31.8788 4.84728H30.7268C30.6428 3.38328 31.5428 2.51928 33.1028 2.51928ZM34.3388 6.73128V5.78328C32.5028 6.33528 31.6868 6.47928 31.6868 7.46328C31.6868 8.01528 32.0588 8.47128 32.7668 8.47128C33.8468 8.47128 34.3388 7.49928 34.3388 6.73128ZM38.9896 0.407284V1.27128C38.4376 1.07928 38.1616 1.30728 38.1616 1.78728V2.69928H39.1936V3.51528H38.1616V9.08328H36.9856V3.51528H36.2776V2.69928H36.9856V1.76328C36.9856 0.647284 37.7296 0.0712838 38.9896 0.407284ZM40.8018 0.371284C41.2338 0.371284 41.5818 0.743284 41.5818 1.18728C41.5818 1.63128 41.2338 2.00328 40.8018 2.00328C40.3698 2.00328 40.0218 1.63128 40.0218 1.18728C40.0218 0.743284 40.3698 0.371284 40.8018 0.371284ZM41.3898 9.08328H40.2138V2.69928H41.3898V9.08328ZM44.9873 2.51928C46.6313 2.51928 47.5313 3.91128 47.5433 5.74728V6.05928H43.5473C43.5473 7.85928 44.2913 8.49528 45.0473 8.49528C45.7313 8.49528 46.3193 7.95528 46.2713 6.87528H47.4473C47.4473 8.27928 46.4393 9.32328 45.0713 9.32328C43.3793 9.32328 42.2993 7.85928 42.2993 5.91528C42.2993 3.94728 43.3553 2.51928 44.9873 2.51928ZM44.9873 3.34728C44.2313 3.34728 43.6193 4.06728 43.5713 5.31528H46.3073C46.3073 3.99528 45.7313 3.34728 44.9873 3.34728Z" fill="#6B5F3E"/>
</svg>
