<?xml version="1.0" encoding="UTF-8"?>
<svg id="Layer_1" data-name="Layer 1" xmlns="http://www.w3.org/2000/svg" viewBox="0 0 577.4 312.2">
  <defs>
    <style>
      .cls-1 {
        fill: #696969;
        stroke-width: 0px;
      }
    </style>
  </defs>
  <g id="RNMTws">
    <g>
      <path class="cls-1" d="M124.98,90.49v-.77c2.61,1.04,5.05,2.27,7.63,2.97,2.53.68,4.15,3.06,7.12,3.11,1.61.03,3.23,1.64,4.77,2.65,1.45.96,2.85,1.85,4.72,1.75.6-.03,1.26.48,1.85.81,2.89,1.62,5.73,3.32,8.65,4.88,3.3,1.76,6.95,3.03,9.88,5.25,1.93,1.46,4.46,2.53,5.59,5.09.32.72,1.56,1.01,2.3,1.58,1,.77,1.92,1.64,2.97,2.54-.02.04-.29.48-.21.56,7.34,7.28,15.77,12.67,26,15.25,0,0-.04.29-.09.67,1.49-.1,2.9-.05,3.79,1.44.12.19.88.02,1.34-.04.11-.01.18-.28.26-.43,1.57,1.01,1.52-.53,1.94-1.26.81-1.4,1.38-3,2.41-4.21,1.11-1.3,2.53-2.41,3.98-3.34,2.52-1.61,5.01-3.52,7.79-4.39,3.77-1.19,7.8-1.8,11.75-2.08,1.55-.11,3.38,1.13,4.05,3.07.62,1.82-.44,3.3-2.51,3.67-.8.14-1.59.54-2.29.97-1.94,1.2-3.79,2.53-5.74,3.71-1.94,1.17-3.93,2.27-5.96,3.29-.93.47-2.04.58-2.97,1.03-.67.33-1.28.9-1.76,1.48-.44.53-.83,1.21-.94,1.87-.1.6-.02,1.52.36,1.87,2.89,2.65,6.09,5,8.75,7.86,1.35,1.45,3.55,2.37,3.83,4.83.08.73.97,1.38,1.52,2.05,1.53,1.85,3.15,3.63,4.59,5.54.61.81.87,1.87,1.18,2.58.52.24,1.25.37,1.3.63.46,2.61,1.96,4.71,3.53,6.67,1.54,1.93,2.08,4.36,4.04,6.18,1.54,1.43,1.8,4.19,2.79,6.29.57,1.22,1.6,2.22,2.17,3.44,1.41,3.02,3.96,5.06,6.05,7.5,3.06,3.57,6.89,6.16,10.87,8.46,1.77,1.02,4.29.77,6.01,1.84,1.86,1.16,3.74,1.28,5.7,1.5,4.69.54,9.25.03,13.71-1.59,1.23-.45,2.65-.33,3.95-.62.81-.19,1.54-.69,2.32-1.02,1.43-.6,2.84-1.26,4.31-1.74,2.15-.7,4.35-1.26,6.53-1.87,2.6-.72,5.19-1.56,7.83-2.1,2.86-.58,5.76-1.08,8.67-1.26,4.16-.26,8.33-.2,12.5-.29,4.51-.1,9.01-.24,13.52-.31,2.22-.03,4.45.22,6.66.05,3.81-.28,7.61-.76,11.4-1.2,1.9-.22,3.8-.52,5.69-.85,4.27-.75,8.55-1.52,12.8-2.35.72-.14,1.34-.72,2.05-.95,2.35-.77,4.86-1.2,7.04-2.29,2.26-1.13,4.22-2.87,6.32-4.34.31-.22.59-.5.92-.66,2.38-1.13,4.77-2.24,7.19-3.37,1.09,1.3,1.55,3.04.58,4.93-.53,1.03-1.2,1.98-1.84,2.94-2.65,4-6.02,7.41-9.85,10.17-2.44,1.75-4.65,3.84-7.52,5.18-2.13,1-4.39,1.67-6.48,2.72-.95.47-1.81,1.13-2.71,1.7-.16.1-.32.31-.47.3-3.24-.11-5.72,2.08-8.65,2.82-2.78.71-5.62,1.16-8.43,1.78-3.58.8-7.13,1.78-10.73,2.47-3.79.73-7.63,1.13-11.43,1.83-2.04.38-4,1.24-6.05,1.6-2.62.47-4.92,2.13-7.75,1.88-.66-.06-1.36.79-2.1,1.06-4.41,1.58-8.84,3.11-12.82,5.68-.75.48-1.74.86-2.61.84-1.88-.05-3.18,1.11-4.69,1.86-.5.25-1.15.15-1.68.36-4.46,1.73-9.15,2.38-13.86,2.89-1.45.16-2.94-.02-4.41.01-1.79.03-3.63.37-5.37.11-2.38-.36-4.77.71-7.18-.38-1.23-.56-2.86-.44-4.29-.34-1.7.11-3.16.04-4-1.73-.09-.18-.43-.33-.67-.34-2.83-.16-4.38-.75-7.11-2.29-1.41-.8-3.01-1.26-4.53-1.87-.23-.09-.58-.08-.68-.24-1.32-1.99-3.76-2.12-5.51-3.35-1.36-.96-2.68-2-3.87-3.16-2.69-2.63-5.3-5.33-7.91-8.03-1.4-1.44-2.91-2.82-4.04-4.46-.98-1.42-1.39-3.21-2.22-4.75-.68-1.26-1.69-2.34-2.41-3.58-1.01-1.74-1.87-3.55-2.82-5.33-.17-.32-.47-.56-.65-.87-.72-1.25-1.37-2.54-2.12-3.77-.59-.96-.82-2.03-1.81-2.91-1.33-1.19-2.05-3.07-3.04-4.64-.62-.98-1.26-1.94-1.87-2.92-.81-1.3-1.51-2.67-2.4-3.91-.74-1.03-1.66-1.93-2.54-2.85-1.09-1.14-2.11-2.39-3.37-3.31-2.44-1.77-4.57-3.94-7.71-4.78-2.5-.67-4.75-2.26-7.19-3.26-1.48-.6-3.19-.66-4.64-1.31-1.71-.76-3.24-1.93-4.89-2.85-.71-.4-1.6-.51-2.27-.95-1.85-1.22-3.62-2.53-5.42-3.82-1.04-.75-2.09-1.47-3.07-2.29-1.2-1.01-2.33-2.09-3.46-3.17-1.56-1.49-3.12-3-4.64-4.53-1.36-1.37-2.64-2.8-4.01-4.15-.34-.34-.9-.44-1.34-.7-.49-.28-1.26-.52-1.39-.93-.66-2.16-2.45-2.66-4.25-3.25-.45-.15-.92-.5-1.2-.89-1.58-2.19-3.9-3.17-6.27-4.21-1.32-.58-2.36-1.79-3.56-2.67-.27-.2-.69-.21-1.04-.31-.54-.16-1.2-.17-1.58-.5-3.24-2.78-7.28-4.18-10.92-6.26-2.92-1.67-6.03-3.26-9.26-4.06-3.46-.86-6.6-2.53-10.26-3.03-6.17-.85-12.01-.06-17.83,1.59-4.33,1.22-8.45,3.17-11.82,6.16-3.42,3.02-6.41,6.52-9.65,9.76-1.29,1.29-2.71,2.44-4.11,3.62-2.59,2.18-5.18,4.35-7.81,6.48-.7.57-1.58.91-2.33,1.41-5.7,3.86-11.47,7.62-17.06,11.65-3.23,2.33-6.26,4.96-9.16,7.68-2.06,1.93-4.06,4.07-5.52,6.46-1.16,1.9-3.19,3.29-3.32,5.94-.08,1.56-1.55,3.03-1.68,4.61-.24,2.81-.36,5.74,1.66,8.19.5.6,1.09,1.59.92,2.2-.61,2.17,1.42,3.31,1.73,5.12.27,1.56,1.18,3.03,1.89,4.5,1,2.1,1.99,4.21,3.14,6.22.99,1.72,2.21,3.31,3.32,4.96.71,1.05,1.3,2.2,2.12,3.14.79.91,1.84,1.58,2.75,2.4,3.15,2.85,6.47,5.43,10.28,7.36.46.24.59,1.13.96,1.87,1.09.17,2.81-.43,3.24,1.61,1.91-.13,2.56,1.96,3.92,2.38,2.57.79,4.29,2.84,6.67,3.84.63.26.98,1.12,1.56,1.57.79.62,1.65,1.18,2.52,1.67,1.84,1.04,3.7,2.03,5.56,3.01,1.67.88,3.36,1.73,5.05,2.57,2.2,1.08,4.6,1.87,6.57,3.26,1.78,1.26,3.61,1.64,5.76,2.04.95,1.73,4.56,2.08,6.39.59,1.81-1.47,2.65-3.54,3.83-5.4,1.24-1.96,2.23-4.1,3.6-5.95,1.62-2.17,3.47-4.19,5.35-6.15,2.03-2.1,4.14-4.14,6.34-6.05,1.31-1.14,2.91-1.95,4.32-2.98,2.3-1.69,4.38-3.78,6.88-5.06,1.84-.94,3.18-2.27,4.64-3.55,2.32-2.04,4.75-4,6.82-6.29,3.6-3.99,6.78-8.37,10.49-12.26,2.05-2.15,2.61-4.75,3.63-7.25.05-.11.09-.27.05-.37-.31-.66-.47-1.55-1-1.9-2.17-1.49-3.29-1.5-4.38-1-1.14.53-2.44.77-3.69.99-2.06.37-4.14.6-6.2.96-1.85.32-3.67.86-5.52,1.09-1.65.21-3.46-.23-4.99.26-2.57.83-4.89.02-7.3-.35-1.72-.26-3.44-.54-5.24-.82-1.01-.6-2.17-1.35-3.39-1.98-2.09-1.09-4.21-2.12-6.33-3.17-.4-.2-.82-.36-1.23-.53-2.47-1.02-5.1-1.55-7.22-3.5-1-.91-2.92-.75-4.32-1.32-1.04-.43-2.15-.36-3.04-.56-3.37-.76-4.36,1.42-5.32,3.56-.91,2.04-1.55,4.25-1.97,6.46-.24,1.27.17,2.67.52,3.93.29,1.45.3,3.05.95,4.32.75,1.45,2.08,2.6,3.3,4.05.84-.18,1.84-.46,2.85-.59,1.85-.24,2.54-1.65,3.45-2.99.43-.64,1.53-1.28,2.23-1.18,1.93.28,3.83.84,5.68,1.47,2.49.86,4.18,2.93,5.19,5.09.9,1.93-.34,4.1-1.44,5.95-.15.25-.56.38-.62.63-1.1,4.25-4.73,5.19-8.21,6.37-.86.29-1.71.68-2.48,1.15-1.63,1-3.24,1.77-5.27,1.62-1.33-.1-2.71.49-4.05.41-1.87-.12-3.73-.57-5.59-.92-.08-.01-.07-.38-.15-.56-.59-1.41-1.14-2.84-1.82-4.19-.22-.43-.83-.66-1.58-1.22-.43-.97-1.12-2.49-1.76-4.03-.14-.33-.3-.8-.16-1.05.64-1.25.61-2.33,0-3.68-.38-.84-.15-2.25.33-3.12,1.17-2.15.3-4.27.16-6.36-.21-3.15-.38-6.18.72-9.29.82-2.33.77-4.95,2.32-7.09,1.37-1.9,2.38-4.12,3.99-5.79,2.02-2.1,4.43-3.84,6.78-5.6,2.14-1.61,4.63-2.31,7.27-1.59,1.45.4,3,.95,4.13,1.88,1.45,1.19,3.02,1.82,4.73,2.52,2.64,1.08,4.99,2.86,7.53,4.22,1.03.55,2.28.7,3.37,1.17.92.4,1.72,1.31,2.65,1.43,2.61.34,5.26.41,7.9.55.86.05,1.73,0,2.6,0,1.67,0,3.27-.17,4.73-1.18.37-.26,1.21.27,1.8.18,1.27-.19,2.5-.77,3.76-.81,2.55-.06,5.2.61,7.62.09,2.49-.53,4.54.54,6.75.84,2.99.41,5.66,1.9,7.76,4.27.51.57,1.59.63,2.11,1.2.8.87,1.36,1.97,1.99,2.98,1.02,1.63,2.08,3.23,3,4.92,1.1,2.04,1.52,4.25.59,6.44-.29.69-1.33,1.01-1.87,1.64-1.43,1.69-2.68,3.55-4.18,5.18-3.27,3.56-6.48,7.21-10.04,10.47-4.32,3.97-8.87,7.71-13.52,11.3-3.96,3.06-8.23,5.71-12.26,8.69-1.46,1.07-2.72,2.47-3.89,3.87-2.61,3.14-4.98,6.47-7.67,9.54-2.6,2.96-3.56,6.16-2.2,9.88.51,1.4.11,1.92-1.07,2.8-1,.74-1.95,1.65-3.1,1.97-2.61.71-5.33,1-7.95,1.71-2.96.8-5.84,1.87-8.76,2.79-2.35.74-4.73.72-7.03-.16-1.5-.58-2.92-1.38-4.32-2.17-.21-.12-.14-.76-.21-1.26-.55.09-1.1.19-1.61.28-.29-.37-.52-.78-.86-1.05-.32-.25-.8-.3-1.16-.52-2.72-1.64-5.41-3.34-8.16-4.93-2.19-1.27-4.69-2.13-6.64-3.68-1.86-1.47-4.8-1.34-5.86-3.08-1.31-2.13-3.67-.3-4.67-2.09-1.43-2.55-4-3.04-6.54-3.61-.33-.07-.65-.38-.88-.66-1.35-1.6-2.09-2.01-4.16-2.37-.34-.06-.64-.42-.92-.67-.9-.81-1.56-2.01-3.11-1.69-.17.04-.41-.46-.67-.63-1.03-.69-1.45-2.07-3.12-2.15-.88-.04-1.73-1.29-2.55-2.03-.77-.7-1.5-1.45-2.61-2.53-1.97,0-2.43-2.64-4.05-4.07-.02.48-.04.81-.08,1.63-.53-1.93-.16-3.98-2.24-3.82-.29-.7-.39-1.25-.69-1.62-.8-.96-2.71-1.1-2.19-3.03,0-.04-.37-.16-.56-.27-1.4-.77-1.88-2.07-2.24-3.55-.21-.85-.88-1.61-1.39-2.37-.75-1.1-1.56-2.17-2.3-3.28-.03-.04.42-.4.32-.31-.48-.86-.71-1.71-1.26-2.2-1.32-1.18-2.5-2.52-3.91-3.63-.81-.64-1.09-1.97-1.58-3-.11-.22-.02-.62-.17-.72-2.59-1.81-2.84-5.01-4.32-7.47-.76-1.27-.24-3.3-.35-4.98-.03-.54-.21-1.07-.39-1.93.91-1.44,1.59-3.25,1.34-5.62-.17-1.65.92-3.45,1.49-5.16,1.07-3.19,2.01-6.43,3.31-9.52,1.01-2.4,2.27-4.76,3.78-6.87,1.83-2.55,3.9-4.97,6.13-7.17,3.82-3.76,7.87-7.3,11.79-10.95,3.37-3.14,6.77-6.25,10.04-9.49,5.23-5.19,10.14-10.72,15.61-15.64,3.99-3.59,8.12-7.14,13.14-9.49,4.14-1.94,7.89-4.7,12.01-6.7,2.44-1.19,5.26-1.6,7.9-2.37,1.63-.47,3.23-1.22,4.88-1.39,2.72-.28,5.1-2.14,8.04-1.5,1.18.26,2.5-.25,3.75-.22,3.31.06,6.66-.07,9.91.43,3.27.5,6.44,1.66,9.61,2.52Z"/>
      <path class="cls-1" d="M294.97,60.31c.91,1.01,1.85,2,2.7,3.06.21.26.19.75.2,1.13.02,2.04,0,4.07,0,6.11.2.05.39.1.59.15-.99.65-2.54,1.11-2.85,2-1.03,2.92-3.04,4.45-5.8,5.38-.82.28-1.53.86-2.33,1.21-1.28.56-2.42,1.14-3.01,2.6-.22.56-1.24,1.2-1.83,1.14-4.39-.44-4.65,1.42-5.01,5.02-.43,4.24,1.77,7.76,3.76,11.24,1.36,2.38,3.35,4.41,4.55,6.85.73,1.48,1.44,2.64,2.66,3.81,2.05,1.94,3.68,4.34,5.4,6.62,2.77,3.67,6.02,6.45,10.85,6.97,1.48.16,2.85,1.18,4.33,1.39,1.88.27,3.9.46,5.73.08,2.13-.45,4.34-1.23,6.11-2.46,1.89-1.31,4.02-2.64,4.9-5.05.06-.17.15-.39.29-.48,1.59-.92,3.29-1.68,4.76-2.76,1.41-1.04,2.55-2.45,3.86-3.64,5.29-4.8,10.16-10,14.68-15.53,1.43-1.75,2.53-3.76,3.9-5.56,1.49-1.96.42-3.67-.5-5.26-.93-1.62-2.23-3.03-3.41-4.49-.13-.16-.54-.1-.82-.16-.42-.08-.98-.03-1.25-.28-2.84-2.62-6.41-2.93-9.96-3.02-3.62-.08-6.88,1.24-10.07,3.02-3.09,1.73-6.5,2.87-9.72,4.39-.95.45-1.71,1.31-2.67,2.06,2.45,1.73,4.04.38,5.63-.82,2.43-1.83,3.91-1.32,4.81,1.61.22.7.83,1.26,1.14,1.95.65,1.47.47,2.88-.19,4.36-.69,1.54-1.01,3.25-1.74,4.76-.24.5-1.22.84-1.9.91-3.2.34-6.09-.33-8.73-2.37-1.41-1.09-3.23-1.67-4.9-2.41-2.43-1.07-4.81-2.32-7.35-3.03-2.64-.75-3.63-3.02-5.24-4.73-.6-.64-1.15-1.68-1.1-2.49.06-.98.83-1.9,1.24-2.87.62-1.48,1.16-3,1.81-4.46.64-1.45,1.37-2.87,2.1-4.29.09-.18.44-.35.64-.32,4,.56,6.51-2.51,9.63-4.01,1.39-.67,2.34-1.43,3.96-.34,1.73,1.16,3.54-.14,5.2-.73,2.17-.77,4.32-1.7,6.35-2.79,4.33-2.34,9.01-2.26,13.68-2.12,1.4.04,2.79.61,4.16,1.02,2.11.64,4.21,1.33,6.31,2.03.22.07.34.44.56.55.73.34,1.47.64,2.23.93.46.18,1.15.16,1.39.48,1.47,1.98,3.84,2.35,5.77,3.5.99.59,1.68,1.71,2.46,2.63,1.24,1.45,2.51,2.88,3.62,4.43.39.54.12,1.54.49,2.11,1.09,1.7,2.17,3.5,2.33,5.46.15,1.84.01,3.99-.81,5.58-1.93,3.76-4.07,7.49-6.65,10.81-2.62,3.38-5.64,6.48-9.4,8.76-1.85,1.13-3.43,2.7-5.27,3.86-2.78,1.75-5.8,3.15-8.5,5.02-2.32,1.6-4.47,3.51-6.43,5.54-.77.8-.75,2.32-1.22,3.45-1.6,3.78-4.37,7.17-8.58,6.33-1.81-.36-3.79-.11-5.67.12-3.34.41-5.63-1.99-8.46-2.95-2.5-.85-4.99-1.73-7.44-2.73-1.09-.44-2.12-1.11-3.07-1.81-1.25-.92-2.35-2.05-3.6-2.98-1.17-.87-2.54-1.47-3.65-2.4-1.01-.85-2.34-1.31-2.49-3.21-.1-1.21-1.6-2.52-2.76-3.39-2.54-1.9-3.52-4.9-5.49-7.17-1.9-2.19-3.96-4.24-5.95-6.35-.15-.16-.4-.38-.38-.54.24-1.62-1-2.47-1.78-3.57-.25-.36-.45-.77-.58-1.19-.93-2.97-1.85-5.95-2.76-8.92-.05-.16-.12-.37-.06-.51,1.05-2.83.21-6.04,2.06-8.8.95-1.42.57-3.7,1.48-5.17,1.7-2.75.88-5.36.56-8.16-.4-3.48-.45-7.03-.28-10.53.09-1.77,1.01-3.5,1.51-5.27.5-1.75.79-3.58,1.44-5.27.86-2.21,1.82-4.41,3.04-6.44,2.96-4.94,5.99-9.85,9.2-14.62,2.5-3.72,5.57-6.94,9.27-9.59,4.61-3.3,9.58-5.81,14.75-8.06,4.93-2.15,10.02-2.92,15.3-2.69,3.51.15,7.04.24,10.5.77,2.12.32,4.13,1.39,6.17,2.15,3.15,1.16,6.29,2.35,9.43,3.53.34.13.71.21,1,.41,4.54,3.17,9.27,4.09,14.4,1.44,2.75-1.42,5.47-2.95,8.36-4.01,2.93-1.08,6.03-1.7,9.08-2.41,5.03-1.18,10.23-1.36,15.25-.78,4.93.57,10.09.86,14.6,3.56,1.42.85,3.2,1.14,4.53,2.08,2.82,1.99,5.46,4.24,8.16,6.39,1.04.83,2.2,1.59,3.05,2.59,2.29,2.68,4.69,5.31,6.58,8.26,1.7,2.66,2.85,5.7,4.13,8.62,1.85,4.23,2.82,8.68,3.26,13.28.13,1.32.69,2.6,1.05,3.9.04.16.17.36.12.48-1.44,3.65-1,7.54-1.5,11.3-.43,3.28-1.2,6.53-2.08,9.72-1.11,4.01-3.2,7.63-5.16,11.27-1.17,2.18-2.89,4.07-4.33,6.12-.51.73-.9,1.55-1.39,2.3-2.12,3.26-4.24,6.52-6.4,9.75-1.47,2.21-.74,4.07.78,5.83,4.56.25,8.55-1.16,12.45-3.5,2.44-1.46,5.39-2.04,8.08-3.12,1.52-.61,2.92-1.52,4.46-2.08.75-.27,1.71.08,2.52-.09,1.98-.43,3.92-1.31,5.91-1.45,1.89-.13,3.83.47,5.75.71.8.1,1.63.02,2.42.16,1.79.3,3.64.28,5.26,1.44.8.58,1.96.63,2.89,1.07.72.34,1.3.96,2,1.35.37.21.87.19,1.12.23,1.12.76,2.2,1.49,3.02,2.05,1.02.98,1.88,1.74,2.67,2.56,3.73,3.91,8.4,5.87,13.68,5.53,4.03-.26,8-1.38,10.46-5.27.75-1.19,2.22-1.92,2.98-3.1,1.34-2.09,3.03-3.93,3.97-6.32.74-1.86,2.18-3.44,3.26-5.18.16-.26.02-.69.05-1.05.1-1.34.73-1.91,1.93-1.5.77-1.3,1.52-2.57,2.34-3.96,1.22.79,1.94,1.14,1.41,2.83-.6,1.94-.3,4.17-.37,6.27-.04,1.2-.1,2.4-.06,3.59.02.5.29,1,.45,1.52-.15.54-.29,1.21-.52,1.84-2.01,5.42-4.36,10.73-7.99,15.2-2.34,2.88-5.26,5.52-8.44,7.4-2.02,1.2-4.36,3.1-7.3,2.14-.45-.15-1.13.44-1.36.54-1.73-.22-3.24-.41-4.75-.61-1.05-.14-2.11-.23-3.15-.43-2.6-.51-5.41-.62-7.74-1.72-3.46-1.62-6.55-4.01-9.86-5.96-1.51-.89-2.7-2.23-4.52-2.75-2.11-.6-4.02-2.02-6.14-2.38-1.81-.31-3.78.52-5.7.6-1.55.06-2.67.77-3.94,1.51-1.75,1.01-3.79,1.52-5.6,2.44-2.98,1.51-5.81,3.33-8.82,4.75-3.12,1.47-6.35,2.71-9.59,3.89-2.43.89-4.97,1.5-7.44,2.31-2.91.95-6.86-.45-8.55-3.01-.38-.58-1.04-1.05-1.67-1.37-1.46-.75-1.64-2.06-1.73-3.45-.1-1.43-.07-2.88-.27-4.3-.22-1.52-.6-3.03-.97-4.52-.39-1.54-.44-2.9.48-4.41.57-.93.26-2.38.41-3.59.06-.51.27-1.02.45-1.51.49-1.3.85-2.69,1.56-3.87.73-1.23,1.8-2.25,2.75-3.35.32-.37.78-.63,1.05-1.02,2.08-3.11,4.18-6.21,6.14-9.39.66-1.07.75-2.51,1.47-3.51,1.4-1.94,2.22-4.16,3.31-6.23.85-1.61,1-3.61,1.91-5.18.69-1.17.23-2.25.5-3.34.57-2.25,1.15-4.51,1.46-6.8.18-1.32-.23-2.71-.28-4.07-.09-2.34,0-4.69-.21-7.02-.12-1.35-.66-2.66-1-3.99-.27-1.03-.54-2.07-.8-3.1-.06-.25-.05-.53-.16-.74-.89-1.76-1.68-3.57-2.73-5.23-.76-1.19-1.84-2.18-2.81-3.22-2.08-2.23-4.16-4.46-6.28-6.65-2.54-2.63-5.57-4.38-9.03-5.69-3.56-1.35-7.13-1.58-10.82-1.58-3.07,0-5.38,1.69-7.22,3.71-3.1,3.41-7.24,4.54-11.32,4.98-4.97.53-10.09.18-15.11-.27-4.54-.4-8.4-3.06-12.4-5-3.92-1.91-7.9-3.56-12.03-4.9-3.24-1.05-6.37-2.59-9.68-3.3-2.54-.54-5.3-.34-7.92-.09-2.2.21-4.56.57-6.46,1.58-2.92,1.55-5.73,3.46-8.16,5.69-2.06,1.88-3.65,4.33-5.19,6.69-1.4,2.15-2.48,4.51-3.64,6.81-.82,1.63-1.69,3.27-2.26,4.99-.5,1.53-.64,3.18-.89,4.78-.04.28.09.63.23.9.64,1.3,1.15,2.72,2.02,3.84,1.18,1.51.7,3.02.28,4.46-.55,1.9-1.4,3.7-2.12,5.55l.63.1Z"/>
      <path class="cls-1" d="M393.78,237.93c.5-1.27.88-2.23,1.16-2.95,2.93-.45,5.73-.82,8.5-1.35,1.43-.28,2.71-.74,4.13.24.71.49,1.87.64,2.76.5,2.46-.4,3.94,1.57,5.94,2.23.99.33,1.96.8,2.87,1.32,1.88,1.08,3.85,2.07,5.55,3.4,2.64,2.07,5.22,4.26,7.57,6.65,1.23,1.25,2.49,2.01,4.14,2.44.64.17,1.13.91,1.71,1.45,1.17,1.09,2.17,2.59,3.56,3.14,1.34.54,1.99,1.61,3.03,2.3,2.86,1.87,5.92,3.44,8.68,5.44,1.34.97,3.66.63,4.11,2.91.04.22.72.32,1.11.47,2.67,1.03,5.29,2.2,8.02,3.04,2.38.73,4.97,1.75,7.29,1.42,3.4-.48,6.6.52,9.91.54,4.33.02,8.43-.39,12.57-1.49,2.33-.61,4.78-.76,7.16-1.2.76-.14,1.45-.62,2.21-.8,1.37-.32,2.78-.51,4.16-.8,1.32-.28,2.65-.51,3.92-.93,2.72-.91,5.42-1.91,8.1-2.94,1.58-.61,3.04-1.69,4.66-1.96,2.84-.46,4.81-2.36,7.13-3.66,1.64-.91,3.17-2.07,4.58-3.31,1.27-1.12,2.39-2.37,2.54-4.32.12-1.44.84-2.84,1.29-4.25.06-.18.1-.38.09-.56-.15-3.03-.22-6.07-.48-9.09-.23-2.76-.47-5.55-1.06-8.25-.71-3.26-2.06-6.32-3.49-9.35-.76-1.62-1.32-3.21-2.77-4.43-.58-.49-.5-1.73-.8-2.6-.2-.56-.48-1.11-.85-1.57-1.59-1.95-3.51-3.7-4.8-5.83-1.96-3.23-5.3-5.12-7.37-8.19-.32-.47-1.36-.39-1.92-.78-1.52-1.06-2.91-2.31-4.45-3.34-.75-.51-1.73-.67-2.57-1.05-2.02-.92-3.94-2.14-6.04-2.73-1.62-.46-3.46-.09-5.2-.23-1.21-.1-2.39-.46-3.59-.69-.73-.14-1.46-.27-2.19-.34-1.16-.11-2.33-.26-3.49-.22-.99.04-1.92-.02-2.8,1.01-.84.98-2.67,1.08-3.61,2.02-1.57,1.56-2.79,3.48-4.13,5.26-.14.19-.14.66-.26.68-2.82.58-3.06,3.43-4.17,5.26-1.18,1.93-3.03,4.12-3.06,6.1-.03,3.11-1.07,5.95-1.24,8.96-.07,1.25-.48,2.48-.52,3.73-.02.51.55,1.03.86,1.58.23.98.39,2.1.75,3.16.57,1.68.87,3.73,2.04,4.86,1,.97,1.24,3.1,3.36,2.93.29-.02.55,1.09,1,1.32,1.34.69,2.78,1.13,4.29.36.1-.05.24-.04.36-.05,1.21-.13,2.83.19,3.54-.47,1.3-1.22,2.79-2.97,2.87-4.57.09-1.73,1.58-3.64-.02-5.44-.18-.2.3-.99.6-1.86-1.24-2.84-4.74-4.95-5.02-8.88-3.39-2.69-.33-5.3.26-7.86.14-.61,1.66-1.09,2.61-1.27,1.89-.35,3.83-.48,5.75-.61,1.05-.07,2.12.07,3.17.07.43,0,.87-.14,1.01-.16,1.27,1.29,2.65,2.49,3.78,3.89,1.01,1.25,1.74,2.73,2.57,4.08-1.43.62-.63,2.24-.52,3.57.1,1.16.51,2.3.76,3.45.17.75.09,1.68.51,2.22,2.44,3.14.69,6.28.27,9.47-.32,2.42-.97,4.73-2.08,6.82-.81,1.53-2.1,2.84-3.34,4.1-1.18,1.2-2.43,2.42-3.88,3.21-1.34.72-2.96,1.09-4.49,1.25-3.31.34-6.63.57-9.95.59-2.08.02-4.45.14-6.2-.75-3.13-1.59-6.75-2.5-9.04-5.58-.65-.87-2.03-1.17-2.9-1.93-.82-.73-1.44-1.69-2.09-2.6-1.09-1.52-1.43-3.43-3.04-4.75-.85-.7-.79-2.46-1.24-3.71-.32-.88-.88-1.67-1.18-2.55-.38-1.12-.72-2.28-.85-3.45-.22-1.82-.39-3.67-.33-5.49.07-2.09.41-4.18.67-6.59.25.64.4,1.03.56,1.45.06-.09.16-.17.15-.24-.23-3.97,1.91-7.02,4.05-10.01,2.23-3.11,4.62-6.1,7-9.1.53-.67,1.37-1.08,2-1.68.33-.31.48-.79.77-1.15.17-.21.47-.32.69-.5.65-.53,2.35-.11,1.72-1.85-.04-.11.12-.36.25-.44,2.56-1.56,5.35-2.84,7.64-4.72,2.71-2.23,5.96-2.78,9.09-3.72,1.2-.36,2.63.11,3.96.1,1.06,0,2.13-.16,3.31-.26.61,2.22,2.7,1.37,4,1.1,1.64-.34,2.98.31,4.46.35.94.03,1.93,1,2.84-.07.24.3.42.77.73.87,2.05.68,4.12,1.3,6.2,1.88.25.07.58-.18,1.18-.39-.33.58-.51.89-.44.78.91.45,1.67.85,2.45,1.21.75.35,1.59,1.06,2.26.93,1.84-.34,2.75,1.21,4.08,1.79,2.56,1.12,5.27,2.18,7.02,4.72.49.71,1.92.78,2.93,1.15-.05,1.36.1,2.46,1.95,2.74.82.12,1.37,1.25,1.98,2.04,1.47,1.9,3.4,3.44,5.13,5.14.45.44,1.08.83,1.29,1.37,1.02,2.69,2.56,5.03,4.45,7.17.08.09.34.01.06.01.45,1.02.62,2,1.2,2.61,1.15,1.22,2.49,2.21,2.62,4.12.05.73.38,1.54.84,2.11,1.33,1.64,2.22,3.42,2.7,5.48.12.52.94.87,1.43,1.3-.11.12-.56.43-.51.59.7,2.15-.24,4.6,1.44,6.64.62.76.47,2.2.57,3.34.26,3.08.44,6.16.71,9.23.02.28.46.52.77.85-.24.28-.43.63-.72.83-1.35.97-1.66,2.24-1.26,3.79.34,1.33-.07,2.37-.85,3.59-1.3,2.04-2.02,4.44-3.12,6.62-.48.97-1.1,2.2-1.97,2.58-2.11.91-1.79,3.36-3.51,4.59-2.46,1.77-4.52,4.11-6.77,6.17-.27.25-.68.46-1.04.48-2.97.13-5.38,1.89-8.09,2.76-1.98.64-4.02,1.11-6,1.77-1.11.37-2.11,1.15-3.24,1.39-1.36.29-2.86,0-3.88,1.34-.04.05-.65-.32-.88-.01-1.16.35-2.32.73-3.49,1.03-3.74.95-7.48,1.86-11.22,2.78-.18.04-.38,0-.58,0-2.33.05-4.67-.04-6.98.21-1.4.15-2.75.84-4.22,1.32-.3-.1-.85-.47-1.33-.4-2.11.31-4.09.25-6.25-.24-2.4-.54-5.07-.24-7.56.12-2.76.4-5.3-.35-7.91-.83-.42-.08-.84-.19-1.26-.29-1.31-.29-2.63-.54-3.93-.86-2.6-.63-5.25-1.13-7.76-2-2.02-.7-3.91-1.82-5.79-2.88-2.22-1.25-4.35-2.65-6.54-3.95-2.6-1.55-5.27-2.99-7.79-4.64-1.13-.74-1.88-2.03-2.99-2.82-1.12-.79-2.5-1.19-3.69-1.89-.75-.44-1.31-1.18-2.03-1.68-2.33-1.65-4.8-3.13-7.02-4.92-1.68-1.36-2.96-3.2-4.59-4.63-1.1-.96-2.5-1.56-3.74-2.36-.7-.45-1.38-.94-2-1.49-1.53-1.35-3.19-2.47-5.07-3.31-.59-.26-.7-1.46-1.25-1.99-.6-.59-1.51-.85-2.21-1.36-2.6-1.91-5.16-3.87-7.77-5.76-.21-.15-.76.16-1.67.39Z"/>
      <path class="cls-1" d="M323.12,239.8c1.58-.79,3.69-.3,5.28,1.26,1.15,1.13,2.24,2.32,3.27,3.55.78.92.52,5.92-.26,6.98-.9,1.22-1.56,2.75-2.72,3.61-1.22.9-2.92,1.13-4.37,1.73-2.88,1.18-5.64,1.06-8.43-.38-1.48-.77-4.17.66-5.39,2.5-.43.65-1.16,1.09-1.61,1.73-.6.85-1.01,1.82-1.58,2.68-2.93,4.38-4.24,9.43-6.06,14.27-.56,1.5-1.42,2.88-2.06,4.35-1.26,2.86-2.44,5.76-3.71,8.62-.28.63-.73,1.21-1.18,1.74-1.29,1.51-2.59,3.02-3.98,4.44-.4.41-1.11.67-1.71.73-2.67.31-5.17,1.02-7.61,2.19-1.26.61-2.85.53-4.29.78-2.64.47-5.32.79-7.9,1.5-3.55.99-6.96,2.47-10.53,3.39-2.13.55-4.44.35-6.65.62-.58.07-1.1.84-1.67.87-1.3.07-2.62-.09-3.92-.22-3-.3-6.02-.53-8.99-1.01-2.26-.36-4.46-1.08-6.69-1.61-2.33-.55-4.69-.96-6.98-1.63-.82-.24-1.48-1.04-2.21-1.57-1.06-.77-2.11-1.55-3.18-2.31-.41-.29-1-.4-1.27-.77-1.41-1.89-3.81-1.79-5.62-2.89-1.59-.97-3.58-1.23-4.6-3.18-.31-.59-1.61-.6-2.34-1.06-1.44-.91-2.75-2.06-4.22-2.91-1.42-.82-2.97-1.46-4.5-2.07-1.95-.77-3.94-1.42-5.9-2.15-.2-.07-.42-.31-.47-.51-.75-2.87-3.93-2.88-5.51-4.72-2.19-2.54-5.48-4.32-5.82-8.18-.01-.13.04-.29-.02-.38-1.48-2.21-3.44-4.23-4.35-6.65-1.01-2.69-3.2-3.91-5.02-5.64-.22-.2-.54-.35-.84-.4-1.6-.29-3.41-.61-3.71-2.43-.31-1.84-1.72-2.53-2.7-3.71-.34-.41-.37-1.71-.11-1.86,1.55-.91,1.17-2.38,1.36-3.7.05-.36.24-.71.38-1.11,1.57.4,3.09.99,4.66,1.13,1.26.12,2.48-1.12,3.87-.39.35.18.71.32,1.21.55.64-.51,4.34-.57,5.28.03,1.46.93,3.01,1.7,4.44,2.68.65.45,1.24,1.13,1.6,1.84.97,1.94,3.41,1.88,4.58,3.49,1.67,2.33,3.52,4.49,3.98,7.55.15,1.01,1.58,1.92,2.58,2.67.97.73,2.14,1.18,3.22,1.76,1.1.59,2.14,1.43,3.32,1.75,4.6,1.26,7.89,4.66,11.83,6.98,2.79,1.64,5.45,3.52,8.22,5.21.53.32,1.29.27,1.57.32.91.43,1.46.81,2.08.95,3.49.81,7,1.54,10.49,2.35,2.11.49,4.2,1.11,6.31,1.58,1.86.41,3.74.71,5.62,1.03.37.06.82.1,1.14-.05,1.75-.83,3.38-1.11,5.47-.76,1.7.28,3.73-1,5.53-1.77,2.48-1.07,4.82-2.49,7.35-3.42,1.9-.7,3.51-2.23,5.8-2.04.62.05,1.26-1.06,2.01-1.38,2.32-1,4.93-1.53,6.97-2.92,1.4-.96,2.07-3.02,3.02-4.61.68-1.14,1.37-2.3,1.91-3.51.31-.69.48-1.52.47-2.28-.03-1.45,1.2-2.25,1.61-3.48.55-1.61,1.3-3.22,2.27-4.61,1.34-1.93,1.81-4.36,4-5.87,1.41-.97,1.96-3.12,3.31-4.25,2.3-1.92,4.81-3.66,7.46-5.06,2.08-1.1,4.44-1.9,6.76-2.23,3.27-.47,6.57.09,9.74,1.1.3.1.45.66.73,1.12Z"/>
      <path class="cls-1" d="M392.79,156.55c-2.03,1.04-4.03,1.98-5.94,3.08-1.36.78-2.56,1.84-3.91,2.64-2.52,1.51-4.95,3.55-7.7,4.19-2.41.56-4.24,2.16-6.59,2.58-2.35.42-4.68.9-7.03,1.29-3.6.6-7.2,1.25-10.82,1.69-3.81.46-7.65.61-11.46,1.08-3.39.42-6.68-.28-10.02-.42-3.06-.13-5.79-.87-8.31-2.49-.48-.31-.7-1.01-1.02-1.54-1.01-1.66-1.9-3.41-3.05-4.96-1.28-1.71-1.89-3.66-2.66-5.59-1.03-2.59-.33-4.73,2.28-5.48,1.2-.34,3.1-.91,3.64-.36,1.81,1.86,5.36.47,6.37,3.77.39,1.27,2.04,1.72,3.36,2.4,2.9,1.48,5.93,1.41,8.9,1.69,2.53.24,5.13-.2,7.7-.45,1.67-.16,3.33-.49,4.99-.8.6-.11,1.17-.5,1.77-.53.95-.05,1.91.1,2.93.17,0,.02-.06-.23-.08-.28,3.59-.87,7.18-1.75,10.78-2.6.86-.2,1.75-.3,2.64-.39,3.46-.34,6.92-.89,10.37-.89,3,0,6.04-1.44,9.03.08.2.1.51.04.76-.01,1.47-.3,2.54.1,3.1,2.12Z"/>
      <path class="cls-1" d="M234.51,228.85c-1.13,1.52-2.41,2.93-3.31,4.56-.45.82-.03,2.06-.27,3.05-.8,3.4-1.36,6.91-.7,10.26.32,1.62,2.15,3.43,3.76,4.19,2.13,1.01,4.7,1.79,7.11.25.74-.47,1.71-.88,2.07-1.58,1.02-1.98,2.21-3.66,4.48-4.28,1.05-.29,2.07-.85,3.12-.9,2.2-.11,4.42.11,6.63.06,2.18-.05,4.29,1.94,4.18,4.31-.1,2.18-.56,4.36-.58,6.54,0,.95.57,1.99,1.1,2.85,1.05,1.68,1.73,3.29.16,5.02-.08.09-.19.22-.19.33.02,1.11.18,2.14-1.09,2.9-1.68,1.01-3.47,1.17-5.31,1.16-1.38-.01-2.76-.18-4.13-.36-1.84-.25-3.37-1.15-4.41-2.67-.9-1.32-2.08-1.76-3.61-1.72-1.13.03-2.27-.15-3.41-.2-.99-.04-2.24.34-2.91-.13-1.38-.96-3.91.13-4.34-2.43-.02-.1-.16-.25-.26-.27-3.43-.6-5.66-3.39-8.65-4.83-2.13-1.03-3.85-2.62-4.3-5.56-.29-1.89.6-3.71-.21-5.53-.3-.68-.55-1.89-.2-2.26,1.27-1.34.11-3.31,1.64-4.74.76-.71-.44-3.23.2-4.39.82-1.48-.87-3.08.85-4.47.79-.64.88-2.52,1.23-3.81.58-2.13,1.52-4.54,4.03-5.52,1.2-.47,2.53-1.58,3.54-1.34,1.18.29,2.73,1.61,2.96,2.72.6,2.88.57,5.9.78,8.81Z"/>
      <path class="cls-1" d="M519.68,154.51c.44-.06.72-.1.98-.13.41,2.25.17,4.34-1.44,5.85-1.36,1.27-2.94,2.52-4.65,3.13-.93.33-2.4-.56-3.51-1.13-1.96-1-3.83-2.16-5.73-3.27-2.81-1.63-6.52-2.02-7.81-5.72-1.75-.31-2.73-1.54-3.52-2.98-.18-.33-.45-.83-.33-1.06.73-1.36,1.39-2.81,2.42-3.92.58-.63,1.82-.94,2.75-.91,2.05.07,4.1.4,6.14.71,1.05.16,2.1.42,3.11.78,1.98.7,4.02,2.3,5.87,2.08,2.69-.32,2.64,2.32,4.37,2.96.81.3.96,2.43,1.36,3.62Z"/>
      <path class="cls-1" d="M205.65,229.34c1.38.55,2.5.99,4.24,1.67-1.05.97-1.92,1.8-2.83,2.57-.21.17-.62.23-.9.17-1.33-.3-2.64-.82-3.98-.99-4.54-.56-9.09-1.07-13.65-1.45-2.79-.24-5.61-.38-8.4-.24-1.55.08-3.04.93-4.59,1.27-.55.12-1.21-.25-1.81-.39.42-.82-2.31-.87-.53-2.14h-1.38c-.06-.58-.13-1.06-.17-1.55-.09-1.07.16-1.3,1.35-1.29.17,0,.36-.07.51-.16,2.04-1.22,3.94-2.89,6.15-3.54,2.26-.67,4.7-1.68,7.26-.38,1.18.6,2.67.59,4.01.92.37.09.67.47,1.05.58.67.2,1.37.27,2.05.44.72.18,1.49.29,2.12.64,1.5.85,2.84,1.93,4.81,1.49,1.12-.26,4.61,2.01,4.71,2.39Z"/>
      <path class="cls-1" d="M535.94,161.05c.12-.1.4-.35.92-.8-.86-.28-1.43-.47-2.05-.67.09-.46.17-.93.26-1.41-1.6-.08-2.62-1.31-2.51-2.83.07-.93-.2-1.96.12-2.77,1.12-2.83,3.16-3.51,6.63-2.46.94.29,2.02.32,2.83.81.73.44,1.18,1.35,1.52,2.2.57.46,1.25.83,1.68,1.4,1.12,1.47,2.46,2.89,3.09,4.57.58,1.55.38,3.41.5,5.13.19,2.71-1.5,3.99-3.66,5.07-1.6.79-3.19.53-4.28-.83-.94-1.17-2.1-2.16-3.1-3.28-.52-.59-.95-1.27-1.29-1.98-.31-.65-.44-1.38-.67-2.16Z"/>
      <path class="cls-1" d="M278.37,182.22c2.51.44,4.69.37,6.4,1.23,1.91.97,4.28,2.16,3.59,5.23-.11.5.24,1.25.61,1.7,1.13,1.39.97,2.13-.74,2.57-.61.15-1.27.1-1.91.09-2.93-.02-5.86-.02-8.79-.1-2.23-.06-4.55.12-6.68-.4-3.45-.85-5.11-2.4-3.73-5.74.4-.96,1.63-1.86,2.67-2.21,2.93-.99,5.97-1.68,8.59-2.39Z"/>
      <path class="cls-1" d="M545.51,104.81c-2.47-1.78-4.69-3.4-6.94-4.98-.5-.36-1.22-.49-1.58-.94-.27-.34-.1-1.01-.17-1.53-.09-.68.49-1.31-.43-2.12-.48-.42-.12-2.44.48-3.3.77-1.1,2.1-1.88,3.3-2.59,1.15-.67,2.23-.62,3.39.46.77.71,2.14.74,3.18,1.21.5.23.94.73,1.23,1.22.83,1.41,1.85,2.79,2.28,4.33,1.05,3.8.08,4.64-3.12,7.25-.59.48-1.31.79-1.64.99Z"/>
      <path class="cls-1" d="M569.07,166.98c.15-.3.43-.84.99-1.94,1.23,2.52,2.29,4.69,3.34,6.87.25.52.44,1.06.67,1.59,1.34,3.01.21,4.35-3.11,4.92-2.74.47-5.11-.7-7.69-.83-3.19-.17-5.42-5.89-3.33-8.15,1.29-1.4,3.09-2.16,4.98-2.42,1.29-.18,2.62-.03,4.15-.03Z"/>
    </g>
  </g>
</svg>