<svg width="95" height="61" viewBox="0 0 95 61" fill="none" xmlns="http://www.w3.org/2000/svg">
<path d="M42.0978 0.403768C43.1818 -0.205662 44.2704 -0.0252772 45.3409 0.292924C46.8463 0.740935 48.3016 1.34489 49.4927 2.38673C50.937 3.65027 52.2789 4.98671 53.3187 6.66412C54.2543 8.17379 55.0277 9.72265 55.6068 11.3807C56.1724 13.0012 56.5239 14.6815 56.8737 16.3602C57.1017 17.4531 57.1738 18.5497 57.0988 19.6682C57.0768 19.9915 57.1961 20.6443 57.7107 20.4205C58.6131 20.0282 59.2545 20.6199 59.9609 20.8517C61.2055 21.2605 62.4281 21.6103 63.7578 21.6592C65.0382 21.7064 66.3102 21.8447 67.5872 21.6335C70.3739 21.172 72.6611 19.9072 74.2445 17.5057C75.079 16.2401 75.7074 14.9058 75.7471 13.3464C75.7711 12.3901 75.2502 11.6997 74.6454 11.0894C74.2656 10.7059 73.7266 10.4825 73.2663 10.1766C73.0025 10.0012 72.7935 9.64932 73.1315 9.51361C74.2066 9.08203 73.1509 8.94843 73.043 8.66395C73.276 8.44226 73.4889 8.62559 73.6634 8.7377C74.6504 9.372 75.6434 9.98985 76.8176 10.2212C77.1337 10.2836 77.1792 10.5673 77.293 10.7835C77.8624 11.867 78.7651 12.8039 78.9607 14.0493C79.2093 15.6336 79.2401 17.2347 78.5932 18.757C78.2016 19.6788 77.8607 20.6372 77.1817 21.4042C75.5279 23.273 73.6545 24.8733 71.2513 25.6656C70.0127 26.074 68.7112 26.1064 67.376 25.9265C66.1483 25.7613 64.9472 25.5455 63.7869 25.1417C62.1445 24.5698 60.5387 23.8921 59.386 22.5122C58.8301 21.8468 57.9661 21.7245 57.2159 21.011C57.1447 26.6607 56.0202 32.0781 56.4653 37.5849C56.8514 37.5453 57.1047 37.4037 57.2606 36.9097C57.6905 35.5488 59.4749 34.1192 60.5973 34.1146C62.0303 34.1083 62.5828 34.7455 62.3409 36.1671C62.2056 36.9632 61.6737 37.6599 61.7441 38.5159C61.7571 38.6769 61.5692 38.7907 61.4364 38.7734C60.9808 38.714 60.5644 39.009 60.0869 38.8653C59.8543 38.7953 59.4189 38.6529 59.3266 38.9921C59.2486 39.2779 59.4518 39.6298 59.7396 39.8376C61.0381 40.7745 62.5368 41.1782 64.084 41.4358C64.4199 41.4918 64.857 41.5453 64.591 40.9372C64.4798 40.6826 64.5725 40.4112 64.7111 40.2468C65.5469 39.2556 65.0508 38.1374 64.9295 37.1234C64.7647 35.7461 64.3285 34.3978 63.9614 33.0496C63.7667 32.3335 63.7064 31.4986 62.7463 31.2601C62.5811 31.2192 62.4618 30.9326 62.5132 30.6919C62.5908 30.3299 62.9903 30.3223 63.1555 30.3607C63.8998 30.5326 64.6682 30.7522 64.9817 31.5707C65.1343 31.9685 65.3602 32.2968 65.6624 32.6344C66.1121 32.1565 65.7454 31.6571 65.6708 31.2192C65.4736 30.0597 65.6518 29.7677 66.8016 29.7108C66.9234 29.7049 67.0595 29.7297 67.1645 29.6842C67.8793 29.3736 68.2581 29.7276 68.5237 30.3409C68.9443 31.3119 69.4753 32.1489 70.5741 32.5215C71.1173 32.7057 71.3411 32.5994 71.4579 32.0827C71.5 31.8965 71.5363 31.695 71.6345 31.5378C71.8368 31.2141 72.0993 31.201 72.305 31.5327C72.4024 31.6895 72.4281 31.8948 72.4677 32.0819C72.6059 32.7335 72.6704 33.3796 73.3043 33.8411C73.7068 34.134 73.5475 34.488 73.0628 34.708C72.066 35.1611 71.1224 34.9811 70.2158 34.5112C69.6178 34.2014 69.0404 33.8352 68.5064 33.4255C68.1435 33.1478 68.1136 33.2856 68.0082 33.6152C67.9298 33.8605 67.9391 34.0939 67.9298 34.3338C67.838 36.6328 68.3159 38.8935 68.409 41.1841C68.4545 42.2993 67.9332 42.993 67.3035 43.7154C67.1712 43.8672 66.8951 43.8688 66.7696 43.7171C66.2836 43.1317 65.4774 42.7937 65.3202 41.9613C65.2527 41.6035 65.1393 41.633 64.8393 41.6853C63.6933 41.8834 62.5503 42.0507 61.3715 42.0654C59.8791 42.0844 57.468 40.5035 57.2033 39.0693C57.1734 38.9062 57.1148 38.7485 57.0718 38.588C57.0229 38.405 57.194 38.0852 56.8425 38.0898C56.5635 38.0936 56.3047 38.2584 56.3094 38.585C56.3304 40.152 56.0767 41.7274 56.5378 43.2805C56.9989 44.834 57.3689 46.4149 57.8397 47.9654C58.0517 48.6638 58.5009 49.2505 59.1365 49.6803C57.7672 49.4974 56.9184 48.5588 56.0497 47.6523C54.75 46.2956 54.0499 44.6034 53.4784 42.8641C53.1573 41.8863 53.2479 40.8373 53.2525 39.8131C53.2576 38.7662 53.2483 38.7924 52.206 38.6482C50.5607 38.4202 49.2166 37.6329 48.2211 36.3028C47.5611 35.4211 47.6421 33.9464 48.3611 33.1077C48.6211 32.8043 48.7294 32.3436 49.1977 32.2458C49.3818 32.2075 49.5551 32.0431 49.7523 32.1468C50.7773 32.6842 51.8824 32.3609 52.9478 32.4545C53.2192 32.4785 53.4131 32.4743 53.387 32.087C53.1391 28.3857 53.8691 24.7241 53.8413 21.0304C53.8215 18.4283 53.7368 15.8169 53.0751 13.2987C52.2111 10.0105 50.8473 6.96715 48.3455 4.5092C47.3508 3.53184 46.3368 2.56712 45.0918 2.04704C44.2084 1.67826 43.4174 1.17335 42.558 0.786874C42.3789 0.706376 42.2179 0.610705 42.0969 0.40419L42.0978 0.403768ZM60.5505 22.5283C62.7665 24.2529 65.1971 24.7089 67.6643 24.9934C69.2844 25.1805 70.8278 24.8568 72.3016 24.0834C73.8104 23.2915 75.149 22.3104 76.1348 20.9309C77.4316 19.1157 77.9171 17.0611 77.6162 14.84C77.521 14.1357 77.3621 13.4454 76.9233 12.844C77.0144 14.3182 76.6043 15.672 76.134 17.0299C75.0449 20.1723 72.6426 21.8809 69.6877 22.9375C67.5366 23.7067 65.337 23.5056 63.1286 23.0475C62.3434 22.8848 61.6202 22.4157 60.5509 22.5283H60.5505ZM53.3983 35.6887C53.3983 35.3718 53.3954 35.0553 53.3992 34.7384C53.4034 34.3978 53.2428 34.1614 52.9111 34.1218C52.1913 34.0354 51.4681 33.9485 50.7448 33.9313C49.9993 33.9131 49.7506 34.1955 49.7245 34.9352C49.6904 35.8936 50.6129 36.8473 51.7681 37.0479C52.8552 37.2368 53.3986 36.7837 53.3983 35.6887Z" fill="#696969"/>
<path d="M0 17.0253C0.530196 16.6337 0.922152 16.5229 1.43675 16.584C3.11248 16.7829 4.32881 17.7477 5.27582 19.0028C5.80349 19.702 6.15162 20.5592 6.31641 21.5003C6.52461 22.691 6.6776 23.898 7.05902 25.0709C7.30894 25.8401 7.33845 26.7066 7.36078 27.5592C7.38818 28.6032 7.47163 29.6674 7.41009 30.6991C7.31484 32.2981 7.55929 33.8849 7.36921 35.4945C7.2432 36.562 7.29925 37.6801 7.18841 38.7671C7.07461 39.884 6.89128 40.997 6.6738 42.0987C6.60469 42.4485 6.52924 42.757 6.89338 42.886C7.2668 43.0183 7.34982 42.6728 7.47121 42.3959C7.91922 41.373 7.9542 40.2473 8.32803 39.1978C9.16547 36.8469 10.2579 34.6452 11.6276 32.5556C12.3702 31.4223 13.1213 30.3341 14.2002 29.5026C14.8497 29.0019 15.5101 28.5589 16.3876 28.5197C16.962 28.494 17.2507 28.7764 17.4286 29.2282C17.896 30.4176 18.006 31.6491 17.9234 32.9269C17.8496 34.0636 17.461 35.1796 17.5057 36.2889C17.5635 37.7071 18.0621 39.0882 18.8346 40.2953C19.7361 41.7038 20.9558 42.8333 22.4558 43.8962C22.299 43.1444 22.1414 42.4966 21.9251 41.9537C21.6305 41.2141 21.7414 40.4727 21.5825 39.7453C21.3549 38.7039 21.0097 37.7113 20.6743 36.7078C20.1019 34.9971 19.4208 33.3294 19.0192 31.5526C18.6209 29.7904 18.2112 28.0313 17.9714 26.2451C17.7653 24.7076 17.5584 23.1685 17.4202 21.6188C17.2807 20.053 17.3148 18.5097 17.6014 16.9802C17.923 15.2627 18.3377 13.5592 19.358 12.0883C19.9515 11.2327 20.9431 11.0422 21.8345 10.9478C24.4151 10.6747 25.7448 11.6736 26.6729 14.0755C26.6859 14.1096 26.6459 14.164 26.6113 14.2668C26.3454 13.8146 25.9366 13.7265 25.4802 13.6477C24.4311 13.4669 23.3969 13.2267 22.3179 13.2524C21.4367 13.2735 20.89 13.6924 20.5057 14.4599C19.9852 15.4992 19.8667 16.5941 19.7593 17.738C19.4836 20.6663 20.3156 23.439 20.7227 26.2755C20.9221 27.6637 21.2769 29.0183 21.4413 30.4146C21.6381 32.0891 22.3487 33.6392 22.8494 35.2407C23.2582 36.5477 23.7319 37.8348 23.6308 39.2762C23.5296 40.7239 23.7952 42.1607 24.3709 43.5169C24.3991 43.5835 24.4185 43.6868 24.4682 43.7066C24.813 43.844 25.1333 43.946 24.9491 44.4597C24.7611 44.984 24.5728 45.4733 23.9612 45.6074C23.4428 45.7212 22.9826 45.9218 22.5363 46.229C22.1443 46.4988 21.7123 46.1683 21.3848 45.9774C20.756 45.6112 20.1301 45.2369 19.7213 44.5575C19.0348 43.4166 17.958 42.5602 17.2984 41.3924C16.4508 39.8924 15.8452 38.3296 15.6534 36.578C15.4924 35.1042 15.8802 33.6872 15.8292 32.2374C15.8089 31.6545 15.8941 30.8652 15.3356 30.6835C14.727 30.4854 14.2622 31.1964 13.9629 31.6752C12.9287 33.3307 11.8405 34.9651 11.1303 36.7993C10.5702 38.2457 10.0316 39.693 9.58862 41.1901C9.22321 42.4249 8.86118 43.9316 7.02362 44.1474C6.40576 44.2199 5.85112 44.6081 5.19996 44.23C4.16191 43.6278 3.45386 42.2226 3.69282 41.0093C4.23103 38.2757 4.65797 35.537 4.53026 32.7402C4.41942 30.3084 4.43206 27.8766 4.17329 25.4439C4.00808 23.8904 3.56344 22.4301 3.26041 20.9246C3.15125 20.383 3.13734 19.841 2.94389 19.2948C2.3627 17.6516 1.89404 17.1184 0.000842918 17.0236L0 17.0253Z" fill="#696969"/>
<path d="M42.5032 52.639C42.4227 51.7956 42.9006 51.4842 43.159 51.0589C43.8898 49.8548 43.6921 49.3975 42.209 49.1181C41.4024 48.966 40.5287 49.0696 39.6992 49.1716C39.1143 49.2437 38.7455 49.7107 38.5592 50.2725C38.0277 51.8753 38.7429 53.4634 39.9795 54.5705C41.5157 55.9462 43.4026 56.6213 45.3417 57.1536C47.6079 57.7757 49.9377 57.9835 52.2709 58.2237C54.8372 58.488 57.3959 58.3548 59.9314 58.1479C63.0038 57.8971 66.0699 57.4187 69.0968 56.8232C70.9652 56.4557 72.7783 55.7468 74.5248 54.9439C75.3332 54.5722 76.1782 54.3004 76.9798 53.9021C78.079 53.3559 78.9227 52.4805 79.9372 51.8331C81.9185 50.5696 83.3944 48.8041 84.6854 46.8844C85.4124 45.8029 85.8912 44.5828 86.2359 43.3205C86.34 42.9395 86.3425 42.6862 85.8123 42.5522C84.7612 42.2863 83.8054 41.8138 82.9591 41.0767C81.7899 40.0576 81.7238 38.4527 82.8394 37.4108C83.9841 36.3416 85.3976 35.8641 86.8399 35.4422C87.5159 35.2445 88.1396 35.8742 87.8573 36.5199C87.3903 37.5878 87.7768 38.6124 87.8476 39.6462C87.947 41.0982 88.3019 42.5463 88.2686 43.9898C88.2395 45.2398 87.8202 46.4781 87.1951 47.6084C86.5448 48.7843 85.814 49.9239 84.851 50.844C83.3401 52.2879 81.7444 53.6222 79.9187 54.7071C77.5121 56.1371 74.945 57.1823 72.3286 58.0632C69.7303 58.9377 67.1388 59.8733 64.3559 60.178C62.2979 60.4035 60.2407 60.8178 58.179 60.9013C55.2802 61.0184 52.3666 61.1356 49.4691 60.5928C48.1562 60.3466 46.8468 60.0933 45.5461 59.7932C42.7295 59.1429 40.3727 57.7833 38.5242 55.4973C37.047 53.6699 36.9315 51.6675 37.6164 49.6108C38.1436 48.0274 39.6718 47.3872 41.5494 47.544C42.5112 47.6245 43.5598 47.734 44.3821 48.4299C44.9658 48.9238 45.155 50.0382 45.0147 50.7711C44.7285 52.2639 43.2673 51.7843 42.5032 52.6394V52.639ZM86.4416 39.5636C86.4416 39.1742 86.402 38.7793 86.4513 38.3962C86.517 37.8875 86.1828 37.6755 85.8296 37.6886C85.1456 37.7138 84.4675 37.9237 83.9368 38.3722C83.2368 38.9635 83.3017 39.5181 83.9263 40.2439C84.5593 40.9793 85.4954 41.0396 86.2785 41.4345C86.4622 41.5272 86.6076 41.3966 86.5212 41.1567C86.3333 40.635 86.469 40.0938 86.4416 39.5636Z" fill="#696969"/>
<path d="M37.3546 38.947C36.9062 38.918 36.4455 38.9449 36.0123 38.8484C35.0821 38.6411 34.3129 38.9302 33.7377 39.6129C33.3381 40.0871 32.7746 40.144 32.3616 40.0765C30.4381 39.7634 28.4968 39.4427 26.8215 38.3207C26.5067 38.11 26.1375 38.0139 25.8033 37.8243C24.9721 37.3518 24.6733 36.9038 25.1079 36.1376C25.4147 35.5964 25.3797 35.0308 25.5078 34.4834C25.845 33.0466 26.6373 31.8914 27.6543 30.8841C28.1807 30.3632 28.796 30.289 29.5117 30.7003C30.1464 31.0653 30.9371 30.8769 31.6468 31.0266C31.8592 31.0712 32.1125 30.9928 32.2988 31.0776C33.0127 31.4025 33.1957 30.9945 33.288 30.4192C33.4443 29.449 32.861 28.0456 32.0282 27.5887C31.7071 27.4125 31.3109 27.4066 30.9337 27.6798C30.4005 28.0654 29.9357 28.5311 29.3111 28.8181C28.1752 29.3403 27.0664 29.5767 25.8517 29.1127C25.4817 28.9715 25.1635 28.7511 25.1905 28.4181C25.2242 28.0001 25.6444 27.6953 26.033 27.6873C26.9943 27.668 27.7298 27.2014 28.474 26.6893C29.6933 25.851 30.9156 25.0233 32.515 25.1493C33.5067 25.2273 34.1317 25.7844 34.6139 26.5827C34.7744 26.8491 34.9599 27.1011 35.1146 27.3704C36.0068 28.9256 35.7135 30.5457 35.3506 32.1607C35.0627 33.4424 34.7201 34.7101 34.2051 35.9239C34.1123 36.1422 34.2038 36.2687 34.4086 36.3884C35.5339 37.0446 36.2479 38.193 37.3534 38.9466L37.3546 38.947ZM27.2632 35.3115C27.2779 36.7015 27.4954 37.0125 28.6848 37.4176C28.9988 37.5246 29.3128 37.4538 29.6238 37.4976C30.6218 37.6388 30.9674 37.3868 30.9253 36.3584C30.8886 35.4645 31.1958 34.8365 32.0029 34.4926C32.5276 34.2688 32.4847 33.7517 32.6617 33.3589C32.8003 33.0521 32.512 33.0449 32.3287 33.1301C31.7235 33.4112 31.2287 33.78 30.5923 32.9952C30.264 32.5902 29.4531 32.5758 28.8593 32.387C28.4172 32.2463 28.0315 32.403 27.9009 32.8068C27.6358 33.6249 27.2459 34.4201 27.2628 35.3115H27.2632Z" fill="#696969"/>
<path d="M64.0861 0.839562C64.4907 0.878336 64.8616 0.33634 65.0563 0.566035C65.4217 0.997187 66.0919 1.04102 66.2891 1.64033C66.4446 2.11279 66.1467 2.55364 66.2853 3.05307C66.4842 3.76997 66.4796 4.53787 66.4552 5.31419C67.403 5.12327 68.2948 5.08703 69.1719 5.30155C69.5242 5.38753 69.7801 5.18986 70.0818 5.13844C70.2441 5.11105 70.4139 4.96565 70.529 5.15741C70.6044 5.28385 70.7153 5.43852 70.5732 5.62523C70.2593 6.03784 70.2411 6.52294 70.2706 7.01815C70.293 7.39367 70.1619 7.61705 69.7261 7.41264C69.7248 7.75823 69.9933 7.70934 70.1324 7.81134C70.4295 8.02965 70.7347 8.2349 70.7136 8.66859C70.6925 9.10395 70.395 9.43564 70.0755 9.55576C69.1036 9.92032 68.7462 10.8598 67.8523 11.5771C68.6227 11.5724 68.9367 11.8493 69.1816 12.3639C69.3363 12.6889 69.8795 12.5801 70.2445 12.6653C70.6858 12.7681 71.0634 12.844 71.0061 13.4214C70.969 13.7973 71.4575 13.9377 71.42 14.3701C71.0588 14.5205 70.682 14.2521 70.2639 14.3844C69.7645 14.5429 69.8053 14.765 69.8757 15.1178C70.1741 16.6144 69.8433 17.888 68.7993 19.0715C68.3104 19.6257 67.5362 19.7622 67.1801 20.4522C67.0347 20.7341 66.7266 20.5963 66.4885 20.4028C65.3476 19.4769 65.2557 19.1368 65.9241 17.6086C66.1062 17.1922 66.2676 16.7859 66.3195 16.3366C66.3329 16.2211 66.3039 16.0711 66.4809 16.0732C66.5656 16.0745 66.7228 16.1314 66.7232 16.1659C66.7413 16.9549 67.634 17.0459 67.8818 17.6444C68.5427 17.1028 68.9312 15.1772 68.5671 14.3857C68.4714 14.1779 68.3256 14.0902 68.1355 14.0359C67.4654 13.8433 66.8239 13.649 66.0809 13.8053C65.3509 13.9587 64.5801 13.8719 64.0212 13.2047C64.5367 12.9519 65.0083 12.6876 65.5676 12.6033C65.8516 12.5603 66.4 12.5886 66.056 11.9711C65.9747 11.8249 66.1707 11.7119 66.298 11.6542C67.0047 11.3335 67.3095 10.6435 67.7655 10.0902C68.0609 9.73151 67.9025 9.50518 67.5716 9.33871C67.1249 9.11407 66.7325 8.78322 66.1618 8.68165C66.7654 8.12701 67.5029 8.18897 68.1486 7.99257C68.3349 7.93609 68.5806 7.95421 68.6316 7.73758C68.7003 7.4472 68.4099 7.38651 68.2261 7.30306C67.6424 7.03712 67.0473 6.79689 66.4181 6.5301C66.1387 7.4177 65.8238 8.31077 65.5861 9.22407C65.4883 9.59959 65.1883 9.82633 65.0698 10.1804C65.0028 10.3814 64.7676 10.3506 64.728 10.1049C64.6838 9.83097 64.6812 9.54353 64.6678 9.26916C64.5814 7.5395 65.0955 5.85872 65.0117 4.13031C64.956 2.97847 64.8212 1.87467 64.0857 0.837876L64.0861 0.839562Z" fill="#696969"/>
<path d="M49.1321 41.0868C48.8422 41.2132 48.7587 40.9957 48.6588 40.8959C48.0541 40.2881 47.1799 40.4445 46.4614 40.0774C44.7671 39.2121 43.9216 37.8946 43.8871 36.06C43.8757 35.4565 44.0692 34.8083 44.325 34.2524C44.5774 33.7041 44.6015 33.1338 44.7342 32.5763C44.894 31.9061 44.5762 31.5369 43.9377 31.349C42.809 31.0169 42.3256 31.0805 41.9589 31.7241C41.1847 33.0816 40.7405 34.5183 40.5803 36.1009C40.4813 37.0783 40.7299 38.0649 40.3709 39.0503C40.1521 39.6509 39.8061 40.0955 39.4209 40.546C39.1764 40.8318 38.9113 40.6683 38.9151 40.3985C38.9223 39.8919 38.7006 39.395 38.5072 39.0511C38.0747 38.282 38.2813 37.6654 38.4094 36.9017C38.5476 36.0773 38.5139 35.1745 38.2096 34.3127C37.942 33.5557 38.0908 32.7052 37.8476 31.9238C37.7667 31.6634 37.722 31.3793 37.3937 31.3325C37.1707 31.3009 36.8972 31.3182 36.9785 30.9949C37.0514 30.7041 37.3355 30.2974 37.5205 30.3522C38.0705 30.5145 38.7128 30.2039 39.2009 30.7834C39.5621 31.212 39.4681 31.5572 39.3269 31.9782C39.294 32.0768 39.3416 32.202 39.4028 32.3276C39.6244 31.8084 39.9254 31.3498 40.0999 30.8028C40.5854 29.2792 41.4911 28.8084 43.1373 28.8527C44.1926 28.8809 45.0566 29.3559 45.9935 29.6433C46.7033 29.8612 47.1635 30.509 47.3355 31.2567C47.4813 31.8905 46.9701 32.0684 46.5376 31.9993C45.7381 31.8716 45.7491 32.3874 45.739 32.87C45.7259 33.4984 45.7773 34.1272 45.5788 34.7388C45.4444 35.1535 45.3175 35.5711 45.1822 35.9854C44.9538 36.6867 45.2134 37.3371 45.8692 37.681C46.2742 37.8934 46.6734 38.1214 47.0927 38.3001C47.8593 38.6271 48.2559 39.2796 48.5918 39.9741C48.7697 40.3425 48.8885 40.7412 49.1313 41.0872L49.1321 41.0868Z" fill="#696969"/>
<path d="M59.5665 8.52528C59.9234 8.54171 60.0638 8.30527 60.3078 8.24248C61.1495 8.02627 62.268 8.59482 62.2979 9.45965C62.3401 10.6667 62.8332 11.7625 62.9588 12.9439C63.1379 14.6255 62.6591 16.1499 62.0944 17.6937C61.7269 18.6985 61.007 18.8687 60.1232 18.8299C59.7936 18.8156 59.2917 19.0441 59.1737 18.6251C59.0611 18.226 59.5766 18.1721 59.8598 18.0111C60.5249 17.6322 60.9695 17.1428 61.2076 16.3421C61.686 14.7342 61.9726 13.1419 61.6236 11.481C61.466 10.7308 61.1044 10.0349 61.0188 9.26241C61.0066 9.15241 59.7018 8.69428 59.5766 8.73305C59.4156 8.78321 59.4636 8.87719 59.4763 9.00911C59.5854 10.1466 59.1185 11.167 58.7615 12.1996C58.5794 12.7272 58.0732 13.0033 57.5725 13.2203C57.3787 13.3042 57.1768 13.2692 57.0407 13.0981C56.9138 12.9388 57.0499 12.7942 57.162 12.7373C59.0004 11.7971 58.7792 10.0463 58.8643 8.42117C58.885 8.03217 58.8369 7.63979 58.8344 7.2491C58.8264 6.0374 58.4728 5.69897 57.2986 5.98514C56.4902 6.18238 56.1463 5.4756 55.5698 5.24C55.4534 5.19238 55.6106 4.72835 56.0212 4.74605C56.5332 4.76797 57.0491 4.77008 57.5591 4.72793C57.8136 4.70686 58.0581 4.5682 58.3451 4.46957C57.9148 3.84708 57.4874 3.24481 57.0807 2.62822C56.9867 2.48577 56.7722 2.39136 56.9918 2.09802C57.2071 1.81059 57.6543 1.69595 57.7061 1.74105C58.1778 2.14986 58.8875 2.18737 59.2499 2.76098C59.3743 2.9578 59.4855 3.04504 59.1872 3.17822C59.0013 3.26125 58.8272 3.42436 58.8196 3.68482C58.8078 4.08436 58.7665 4.38023 59.3907 4.26306C60.6193 4.0321 61.852 4.11555 63.0165 4.63563C63.2365 4.73383 63.5497 4.81349 63.4582 5.19153C63.3777 5.52491 63.1088 5.42291 62.8842 5.48403C61.8099 5.77441 60.709 5.51943 59.5024 5.66483C59.9576 6.02687 59.8783 6.38806 59.7093 6.78465C59.4733 7.33718 59.5395 7.92512 59.5665 8.52443V8.52528Z" fill="#696969"/>
<path d="M62.4785 53.4747C62.0975 54.3054 62.8911 54.5587 63.2856 54.8955C63.8538 55.381 64.6301 55.3308 65.3596 55.247C65.6285 55.2162 65.5189 55.0215 65.559 54.8689C65.7482 54.1432 65.7744 53.3791 66.2734 52.7287C66.4837 52.4548 66.7686 52.3928 67.0016 52.2028C66.3332 51.3114 66.0049 50.0904 64.5542 50.1229C65.4414 48.9103 66.6796 49.8337 67.4846 50.8334C68.1084 51.6072 68.4831 52.6133 69.4432 53.1266C69.1068 52.5926 69.0883 51.9735 68.8771 51.4197C68.8068 51.2351 68.5025 51.0796 68.7891 50.9005C68.9825 50.7799 69.2948 50.7812 69.4588 51.0096C69.8052 51.493 69.959 51.4989 70.3691 50.9759C70.6089 50.6703 71.3364 50.7909 71.8244 50.589C72.0297 50.5039 72.0103 50.739 71.9361 50.871C71.7603 51.1828 71.6187 51.5643 71.2795 51.7021C70.5432 52.0013 70.7058 52.4978 71.0013 52.9525C71.2862 53.3913 70.9591 53.7483 70.9406 54.1377C70.9339 54.2776 70.5971 54.4487 70.3362 54.2169C70.1976 54.0934 70.1209 53.8793 69.8764 53.8608C69.7542 54.1942 70.0286 54.4496 70.0593 54.7517C70.0737 54.8934 70.1626 55.0379 70.0539 55.158C69.8979 55.33 69.7496 55.1538 69.5936 55.1222C69.3475 55.0725 69.256 54.8537 69.0917 54.7163C68.945 54.5937 68.8438 54.4449 68.5922 54.5688C67.9853 54.8676 67.3253 55.005 66.6598 55.1121C66.4668 55.1433 66.2797 55.2132 66.1891 55.4063C65.7963 56.2416 65.1637 56.4397 64.3823 56.2821C63.4837 56.1008 62.672 55.6937 61.8421 55.3367C61.5037 55.1909 61.341 54.2856 61.478 53.9185C61.9294 52.7077 62.8726 51.9461 63.8323 51.1643C64.5289 50.5966 64.9061 50.5401 65.5152 51.182C65.9303 51.6195 65.8932 52.4485 65.4326 52.9079C65.2956 53.0444 65.1312 53.1548 65.0018 53.2981C64.0283 54.3754 63.6161 54.4024 62.4549 53.4524C62.9965 53.4469 63.4471 53.1907 63.8951 52.9306C64 52.8695 64.1104 52.7823 64.0763 52.6449C64.0295 52.4582 63.8378 52.462 63.7155 52.4851C63.1364 52.5964 62.7432 52.9597 62.4785 53.4747ZM67.5082 53.7107C67.7236 53.8073 67.9234 53.6951 68.0414 53.5143C68.1316 53.3765 67.9584 53.2467 67.8635 53.1532C67.711 53.0023 67.5352 52.8379 67.3211 53.0941C67.1175 53.3386 66.4655 53.0364 66.5713 53.554C66.6889 54.1271 67.1867 53.5274 67.5082 53.7107Z" fill="#696969"/>
<path d="M78.7204 44.7598C78.4869 43.3943 78.4388 42.218 79.1545 41.1386C79.2788 40.9511 79.2556 40.7644 79.1237 40.5966C78.9728 40.4049 78.8409 40.1604 78.6399 40.0542C78.1881 39.8148 77.8205 39.1637 77.2528 39.4494C76.7943 39.68 77.0746 40.3476 76.8697 40.7678C76.4466 41.6347 76.8609 42.5775 76.5895 43.4558C76.5123 43.7053 76.522 44.0577 76.2662 44.1276C76.0201 44.1951 75.8869 43.884 75.7609 43.6779C75.0815 42.5674 74.6242 41.3962 74.6781 40.0597C74.7098 39.2787 74.6853 38.4952 74.6781 37.713C74.6756 37.4361 74.663 37.1714 75.0052 37.0686C75.3419 36.967 75.3997 37.2385 75.5312 37.4311C75.8266 37.8639 76.3636 37.8492 76.8546 37.4049C77.5272 36.7963 77.9558 36.8499 78.5884 37.4437C79.3209 38.1315 79.6581 39.0297 80.0189 39.9071C80.1672 40.2683 80.4311 40.5347 80.5727 40.9005C80.9655 41.9133 80.9912 42.2517 80.1099 42.7575C79.5338 43.0879 79.3492 43.538 79.2472 44.0733C79.1869 44.3898 78.9947 44.4972 78.7204 44.7598Z" fill="#696969"/>
<path d="M71.6185 48.8168C71.9081 48.8201 72.0729 48.9664 72.3076 48.9445C72.8024 48.8985 73.0865 49.1628 73.0637 49.6909C73.0607 49.7642 73.038 49.8481 73.065 49.9088C73.1809 50.1675 73.1202 50.5823 73.4131 50.6665C73.8265 50.7854 73.9922 50.3197 74.2758 50.1203C74.6113 49.8843 74.4237 49.682 74.2931 49.4456C73.8957 48.7274 73.5172 47.9987 73.1151 47.2831C73.0228 47.1191 72.7999 46.9699 73.0127 46.7954C73.1716 46.6652 73.3811 46.763 73.5518 46.8806C74.1338 47.2818 74.2724 47.9966 74.7032 48.5045C74.7491 48.5588 74.7748 48.6317 74.8056 48.6983C75.1415 49.4262 75.2553 49.4966 75.8474 48.8222C76.2613 48.351 76.6731 48.4762 77.0857 48.5559C77.4937 48.6351 77.4675 49.0389 77.481 49.3925C77.4911 49.6512 77.5843 49.9117 77.6702 50.1612C77.763 50.4314 77.9994 50.9064 78.1364 50.7854C78.3935 50.5586 78.7601 50.6354 78.9928 50.2645C79.3413 49.709 79.2937 49.025 79.756 48.507C80.0372 48.1922 80.3174 48.0265 80.6875 47.9207C80.9403 47.8487 81.216 47.7977 81.4267 47.6561C81.6029 47.5376 81.6889 47.1297 81.9506 47.479C82.1187 47.7037 81.8987 48.0944 81.7453 48.158C81.2851 48.3498 81.0183 48.7944 80.583 48.9723C80.0983 49.1699 79.9904 49.521 79.9562 49.9834C79.901 50.7314 79.2204 51.5857 78.5562 51.7349C77.9488 51.8715 77.5864 51.4037 77.1923 51.0745C76.9955 50.9101 76.8231 50.6712 76.7333 50.4314C76.4805 49.757 76.0025 49.9737 75.5743 50.1258C75.2776 50.2312 75.5267 50.5523 75.5773 50.6071C75.9225 50.9843 75.7926 51.4618 75.901 51.8829C75.9819 52.1977 75.8462 52.5298 75.552 52.5724C75.2161 52.6208 74.9716 52.3351 74.9893 51.9794C75.0083 51.6034 74.9051 51.26 74.8321 50.9047C74.7921 50.7095 74.5805 50.5199 74.522 50.7028C74.3517 51.2338 73.6289 51.4403 73.7642 52.1501C73.8544 52.623 73.7932 53.1249 73.7975 53.6138C73.7991 53.7879 73.7954 53.975 73.5821 54.023C73.3958 54.0648 73.2959 53.8819 73.2727 53.771C73.1332 53.1 72.6397 52.8307 72.0703 52.6027C71.6771 52.4451 71.863 52.2672 72.1297 52.2154C72.8386 52.0776 72.8016 51.6675 72.5879 51.1394C72.2836 50.3871 72.2153 49.5396 71.6177 48.8172L71.6185 48.8168Z" fill="#696969"/>
<path d="M56.4329 53.0823C55.3536 53.5923 54.6046 54.0268 54.4533 55.0956C54.3935 55.5188 54.05 55.9015 53.6593 56.2336C53.1919 55.5036 53.2914 54.7378 53.5021 54.0159C53.728 53.2425 53.8211 52.4978 53.5042 51.7497C53.3533 51.394 53.5847 51.4028 53.763 51.4631C54.0757 51.5697 54.415 51.6709 54.4449 52.1185C54.4618 52.3709 54.5747 52.6166 54.6442 52.8661C55.2086 52.4442 55.7152 51.936 56.3246 51.6397C57.2944 51.1681 58.0024 51.2747 58.1748 52.4367C58.2321 52.8227 57.8414 53.0579 57.8861 53.4435C57.9038 53.5957 57.7816 53.7609 57.7361 53.9236C57.4061 55.1011 57.9527 55.6979 59.1652 55.4547C59.4847 55.3907 59.7953 55.413 60.1097 55.4101C60.2661 55.4084 60.4903 55.322 60.5594 55.5188C60.6446 55.7611 60.4583 55.9086 60.2716 56.0469C59.5264 56.5977 57.8326 56.7326 57.0706 56.2488C56.5623 55.9263 56.4283 55.3511 56.3507 54.8112C56.2761 54.2911 56.0894 53.7647 56.4333 53.0819L56.4329 53.0823Z" fill="#696969"/>
<path d="M48.0954 53.8924C48.1283 52.3401 48.4903 51.1988 49.8006 50.5725C50.5799 50.2 51.3794 50.5114 51.6799 51.3055C51.6972 51.3506 51.7199 51.3965 51.7507 51.4336C52.7344 52.6221 52.2582 53.8848 51.9298 55.134C51.7132 55.9575 50.9428 56.084 50.3038 56.2534C49.592 56.4422 49.039 56.0861 48.6412 55.4345C48.3032 54.8811 48.036 54.337 48.0958 53.8932L48.0954 53.8924ZM49.144 53.9881C49.0972 54.4133 49.141 54.7538 49.6354 54.9144C50.0535 55.0501 50.3603 54.879 50.4943 54.5714C50.7599 53.9628 51.0342 53.3576 51.0747 52.6554C51.1055 52.1189 50.7426 51.9735 50.4417 51.8163C50.1509 51.6645 49.9397 51.9642 49.7522 52.1888C49.313 52.7144 49.1786 53.3373 49.144 53.9885V53.9881Z" fill="#696969"/>
<path d="M76.0137 2.25144C75.9176 2.61811 75.7537 2.75929 75.5577 2.91523C75.3318 3.09478 75.0225 3.33838 75.454 3.66712C75.6319 3.80241 75.594 4.00681 75.457 4.18425C75.3537 4.31785 75.2155 4.44766 75.1738 4.60149C74.9681 5.35927 74.6836 5.3264 74.1167 4.85521C73.5511 4.38528 73.5377 5.19406 73.2595 5.39594C73.125 5.49372 73.2582 5.84985 72.892 5.80265C72.5573 5.75966 72.6631 5.47939 72.5839 5.30322C72.5051 5.12789 72.3829 4.9218 72.4153 4.75617C72.5417 4.11639 72.232 4.02114 71.6955 4.04179C71.3423 4.05528 71.1644 3.7552 71.0026 3.45892C70.81 3.10658 71.1063 2.93504 71.2302 2.69987C71.3128 2.54351 71.4502 2.50853 71.5918 2.62738C72.1679 3.10995 72.2657 2.58439 72.4191 2.22488C72.503 2.02848 72.5713 1.80933 72.5772 1.5986C72.586 1.28756 72.7613 1.05449 73.0016 1.18135C73.2624 1.31875 73.7674 0.984952 73.8036 1.64706C73.858 2.64171 73.9128 2.63876 74.8067 2.33615C74.8969 2.30538 74.9879 2.25818 75.0802 2.25481C75.3702 2.24427 75.6605 2.25101 76.0137 2.25101V2.25144ZM74.3848 3.67049C74.6292 2.97677 73.8921 3.14577 73.7383 2.89458C73.1739 1.97243 72.8937 2.70408 72.5274 3.02102C72.2235 3.28443 72.2948 3.48673 72.6581 3.56681C72.9927 3.64056 72.9851 3.80241 72.8052 4.0026C72.731 4.08478 72.5662 4.1067 72.6964 4.24873C72.779 4.33892 72.9261 4.37559 73.0231 4.2795C73.1756 4.12819 73.3109 3.95582 73.4352 3.78007C73.6139 3.52804 73.7846 3.42689 73.9229 3.79482C73.9857 3.96172 74.035 4.15727 74.2347 4.12946C74.5382 4.08689 74.3456 3.81716 74.3844 3.67091L74.3848 3.67049Z" fill="#696969"/>
<path d="M72.4683 43.5856C71.7151 42.4494 71.9651 41.1829 71.8732 39.9598C71.8454 39.5877 71.6035 39.2223 71.4222 38.8733C71.2654 38.572 71.399 38.365 71.5681 38.1484C71.8053 37.8441 71.9339 38.2061 72.1151 38.242C72.2323 38.2651 72.3414 38.3267 72.4544 38.3709C73.3921 38.7401 73.5249 38.8851 73.1797 39.811C72.9134 40.5258 72.9357 41.228 72.9125 41.9491C72.8986 42.3748 72.8459 42.8 72.7932 43.2236C72.7675 43.4305 72.6601 43.5869 72.4687 43.5856H72.4683Z" fill="#696969"/>
<path d="M94.0645 39.1637C93.3544 37.0661 91.4633 36.6278 89.7117 36.0356C89.2182 35.8687 89.49 35.6955 89.6266 35.5901C89.938 35.3499 90.3123 35.25 90.7207 35.2905C92.3547 35.4527 93.1845 36.2708 93.9069 37.9107C94.07 38.2807 94.5387 38.5901 94.0645 39.1637Z" fill="#696969"/>
<path d="M79.7135 32.3546C81.141 32.363 81.694 32.8565 82.0126 34.4189C82.08 34.7485 82.1116 35.0945 82.3502 35.3528C82.5972 35.62 82.3687 35.7975 82.2503 35.985C82.1078 36.2109 81.8815 36.181 81.667 36.1064C81.3332 35.9909 81.5376 35.7836 81.5709 35.5855C81.7332 34.6195 80.9754 33.4141 80.0077 33.0786C79.7131 32.9762 79.4147 32.8835 79.1155 32.795C78.9532 32.747 78.7311 32.717 78.7674 32.5114C78.8044 32.2994 79.0375 32.3592 79.2019 32.3546C79.3722 32.3499 79.5428 32.3533 79.7135 32.3546Z" fill="#696969"/>
<path d="M87.8414 33.1069C87.827 33.5953 87.0735 34.472 86.6153 34.4703C86.4691 34.4699 86.2959 34.3498 86.1863 34.2355C86.086 34.1314 86.0792 33.8862 86.193 33.8368C86.636 33.6447 86.6524 33.1971 86.8589 32.8628C87.0132 32.6133 87.1822 32.2589 87.5581 32.3803C87.8919 32.4877 87.8135 32.8376 87.8418 33.1065L87.8414 33.1069Z" fill="#696969"/>
<path d="M83.4901 34.448C83.3632 33.9148 83.8011 33.5229 83.9503 33.0395C83.9874 32.9185 84.0847 32.8232 84.2234 32.8726C84.405 32.9375 84.4076 33.1377 84.3355 33.2342C83.9823 33.7058 84.0708 34.2836 83.9212 34.802C83.8694 34.9811 83.893 35.2606 83.6553 35.2458C83.3758 35.2285 83.5271 34.9428 83.4934 34.775C83.4749 34.6823 83.4901 34.5824 83.4901 34.4484V34.448Z" fill="#696969"/>
<path d="M71.863 37.4488C71.6287 37.3792 71.4972 37.2132 71.4618 36.9894C71.4222 36.7399 71.7248 36.6733 71.7809 36.7222C71.9486 36.8684 72.3115 36.817 72.2959 37.1213C72.2853 37.3303 72.0401 37.3767 71.863 37.4488Z" fill="#696969"/>
<path d="M82.1648 46.331C82.153 46.4149 82.1205 46.5893 81.8967 46.5906C81.6624 46.5919 81.4272 46.5312 81.522 46.2353C81.5511 46.1443 81.3842 45.7991 81.6986 45.9331C81.8558 46.0001 82.1913 45.8876 82.1643 46.3314L82.1648 46.331Z" fill="#696969"/>
</svg>
