<svg width="80" height="73" viewBox="0 0 80 73" fill="none" xmlns="http://www.w3.org/2000/svg">
<g clip-path="url(#clip0_1_835)">
<path d="M1.48895 46.0488C1.69409 45.8268 1.57948 45.5457 1.62896 45.2944C1.92763 43.7363 2.33076 42.2123 3.38592 40.9693C3.97077 40.2792 4.76857 39.9934 5.67908 39.9177C6.55381 39.8446 7.31465 40.1212 8.08755 40.4441C8.32488 40.5431 8.61868 40.511 8.81813 40.717C8.86721 40.7676 8.91026 40.8566 8.90081 40.92C8.88522 41.0235 8.77739 40.9891 8.70821 40.9844C8.29964 40.9596 7.89084 40.9383 7.48488 40.9003C6.78386 40.8386 6.1236 41.0226 5.4983 41.2899C5.01789 41.4964 4.82136 42.0125 4.58708 42.4366C3.86458 43.748 3.55589 45.1806 3.54198 46.6655C3.52634 48.373 3.71614 50.076 4.35469 51.6631C4.90497 53.0299 5.77695 54.23 6.73849 55.3603C7.34086 56.0679 8.02504 56.6951 8.74793 57.2525C9.50936 57.8412 10.3895 58.2811 11.2371 58.7509C12.2348 59.3052 13.1986 59.9095 14.1697 60.5058C14.9523 60.9847 15.796 61.3631 16.6147 61.7837C17.2534 62.1109 17.8777 62.4743 18.5369 62.7506C19.7876 63.2751 21.0389 63.7659 22.3981 64.0196C23.5262 64.2303 24.6575 64.47 25.7898 64.6457C27.1938 64.8636 28.5664 65.2177 29.9639 65.4554C30.9896 65.6288 32.0245 65.7657 33.0307 66.0727C33.6667 66.2665 34.3444 66.3232 35.0023 66.4443C35.8762 66.6056 36.7614 66.7254 37.6192 66.948C38.5369 67.1865 39.4707 67.3148 40.4015 67.4614C42.196 67.745 44.0018 67.9635 45.8197 68.0294C47.0694 68.0749 48.3253 68.1291 49.5733 68.0766C50.653 68.0311 51.7243 67.8349 52.8005 67.7166C55.2929 67.441 57.7277 66.8949 60.1232 66.1791C62.0894 65.5924 64.048 64.9681 65.9274 64.141C67.6808 63.3693 69.2598 62.3242 70.6006 60.9457C71.1333 60.3987 71.5196 59.7355 71.8883 59.0828C72.3668 58.237 72.8945 57.4165 73.295 56.5231C73.6378 55.754 73.8087 54.9444 73.963 54.1302C74.1303 53.2495 74.1041 52.3488 73.9452 51.4794C73.6336 49.7714 72.9051 48.2607 71.5394 47.1144C70.7492 46.4513 69.9398 45.8205 69.0437 45.2917C67.6002 44.4403 67.0812 42.2981 67.9136 40.8424C68.5669 39.7 69.5665 39.0434 70.7285 38.614C71.266 38.4148 71.886 38.3731 72.4833 38.4883C72.8531 38.5593 73.2513 39.0791 73.2506 39.5345C73.2504 39.7841 73.2314 40.0358 73.2159 40.286C73.1673 40.9927 72.775 41.3975 71.9967 41.5228C72.0088 41.3465 72.0239 41.1755 72.0322 41.0058C72.0491 40.6612 71.8175 40.4547 71.5184 40.6129C71.1174 40.8231 70.6686 40.8901 70.2721 41.1344C69.334 41.7108 68.9115 42.8742 69.2574 43.9099C69.4261 44.4157 69.8874 44.3884 70.2096 44.5353C71.8108 45.2627 73.2713 46.1878 74.4339 47.5006C75.3322 48.5153 75.9369 49.7071 76.281 51.0395C76.5261 51.9873 76.6518 52.9219 76.5325 53.8919C76.5214 53.9806 76.5059 54.0824 76.6157 54.1372L76.5835 54.6055C76.3221 55.252 76.3717 55.9604 76.1037 56.6285C75.8606 57.2307 75.666 57.8667 75.4204 58.4789C75.003 59.5212 74.2943 60.3849 73.6914 61.3133C73.1662 62.1221 72.523 62.847 71.8278 63.489C70.7744 64.4606 69.5043 65.1559 68.2391 65.8279C67.3858 66.2803 66.4968 66.6594 65.5866 67.0016C64.5443 67.3921 63.5165 67.8173 62.4498 68.1437C61.4331 68.4567 60.4138 68.7593 59.4041 69.093C58.6114 69.3539 57.8119 69.5908 56.9933 69.7352C55.6376 69.9743 54.2743 70.1757 52.9125 70.379C51.1346 70.643 49.3597 70.7402 47.573 70.8114C47.0018 70.8345 46.4231 70.6952 45.8584 70.8706L45.6694 70.8576C45.5556 70.6626 45.36 70.747 45.2032 70.7345C43.7144 70.6153 42.2199 70.5548 40.7378 70.3871C39.3282 70.2261 37.9252 69.9931 36.5334 69.722C35.8876 69.5967 35.2341 69.5838 34.5874 69.4466C33.5398 69.2228 32.5001 68.9338 31.4265 68.8414C31.0053 68.804 30.5683 68.8229 30.1674 68.711C29.3705 68.4909 28.5558 68.3557 27.7487 68.2344C26.7604 68.0855 25.7812 67.8783 24.8059 67.6881C23.5178 67.436 22.2171 67.2201 20.9464 66.8376C20.0296 66.562 19.1428 66.2178 18.2612 65.8738C17.0692 65.4073 15.95 64.7705 14.8285 64.1419C13.2564 63.2614 11.7528 62.2725 10.2054 61.3549C9.00807 60.6452 7.94509 59.7575 6.91547 58.8283C6.77495 58.7023 6.58073 58.5928 6.57509 58.4035C6.5656 58.0976 6.32443 57.882 6.15539 57.8501C5.7252 57.77 5.5963 57.4255 5.33818 57.1851C5.07366 56.9392 5.00626 56.6125 4.82516 56.3369C4.58278 55.9661 4.18787 55.718 3.98174 55.3378C3.37041 54.2181 2.76674 53.0854 2.45398 51.8394C2.21878 50.8956 2.08003 49.9298 1.85687 48.9835C1.65751 48.1349 1.43371 47.2965 1.55212 46.4124C1.55907 46.3606 1.50731 46.2997 1.48232 46.244C1.48659 46.1819 1.49086 46.1198 1.49524 46.056L1.48895 46.0488Z" fill="#696969"/>
<path d="M57.0971 3.60465C57.1105 3.63087 57.1273 3.68263 57.1393 3.68176C57.981 3.61987 58.3397 4.29555 58.7402 4.80881C59.1624 5.35055 59.5551 5.92568 59.9036 6.52814C60.2839 7.18674 60.4682 7.90946 60.7201 8.60984C61.1158 9.70971 61.4266 10.8358 61.5535 11.9998C61.6689 13.0585 61.9657 14.0925 62.0407 15.1467C62.0893 15.8213 61.9902 16.5229 62.059 17.1989C62.1877 18.4592 61.9763 19.7096 62.0475 20.9676C62.1188 22.2239 62.1986 23.4809 62.3689 24.7272C62.4516 25.3248 62.4014 25.9319 62.4755 26.5054C62.5566 27.1266 62.6764 27.7521 62.6758 28.3761C62.6759 28.9428 62.709 29.5219 62.7404 30.0756C62.7692 30.57 62.6108 31.1225 62.8962 31.6076C62.9554 31.7078 62.9711 31.8505 62.9644 31.9715C62.9207 32.8303 63.1416 33.6854 63.0699 34.5322C63.0291 35.0017 63.1583 35.4659 63.069 35.9017C62.924 36.6051 63.1878 37.2557 63.204 37.9332C63.2204 38.6562 63.2414 39.3862 63.2496 40.1053C63.26 41.1145 63.4271 42.111 63.4014 43.1262C63.3878 43.6701 63.4881 44.2571 63.5629 44.8222C63.6804 45.7023 63.8403 46.5819 63.905 47.4667C63.9464 48.048 64.1485 48.5848 64.3137 49.1173C64.5527 49.8825 64.8361 50.6424 65.2328 51.3578C65.8225 52.4221 67.1675 52.7338 68.1685 52.0083C68.7109 51.6154 69.2872 51.2705 69.8084 50.8409C70.0403 50.6493 70.1189 50.3933 70.2571 50.1583C70.2975 50.0885 70.2365 49.9646 70.3754 49.9421C70.5194 49.9182 70.5494 50.0502 70.6297 50.1147C70.7791 50.2346 70.6401 50.2841 70.5835 50.3679C70.3186 50.768 70.0601 51.1752 69.805 51.581C69.7537 51.6618 69.5878 51.7567 69.7324 51.8476C70.2085 52.1485 69.8108 52.2864 69.6285 52.4476C68.9046 53.0877 68.015 53.4768 67.176 53.9184C66.46 54.2959 65.636 54.273 64.8133 54.0579C63.0047 53.5845 61.9861 52.3709 61.4264 50.6729C61.1233 49.7548 60.7942 48.845 60.6225 47.8904C60.5781 47.6479 60.5409 47.4007 60.5408 47.1545C60.5433 46.6993 60.2765 46.5359 59.8805 46.4767C58.9171 46.3345 57.9625 46.4359 56.9984 46.5012C55.4995 46.6039 53.9768 46.7809 52.5535 46.054C51.697 45.6156 51.058 45.0219 50.9034 44.0145C50.8393 43.5918 50.6004 43.2195 50.5006 42.7961C50.3987 42.3556 50.5285 41.9716 50.6105 41.5674C50.6212 41.5108 50.6233 41.4552 50.7048 41.4288C51.3852 41.199 51.9508 40.715 52.6501 40.5303C53.2631 40.3684 53.897 40.3445 54.5197 40.4362C54.8805 40.4897 54.9666 40.3725 54.9731 40.0558C54.9776 39.8419 54.9575 39.6163 55.0931 39.4198C55.597 38.6989 55.2818 38.4259 54.8311 37.7557C54.6189 37.4392 54.2749 37.2149 54.0311 36.9148C53.4278 36.1717 52.5796 36.0054 51.7477 36.1473C50.7132 36.3241 49.7279 36.7488 49.0254 37.5961C48.6261 38.078 48.5041 38.6448 48.5648 39.2899C48.7308 41.0688 48.5747 42.8459 48.3821 44.612C48.3218 45.1694 48.1024 45.7464 47.8207 46.2684C47.7819 46.3399 47.7137 46.4432 47.6707 46.4031C47.5737 46.3104 47.4174 46.3149 47.3555 46.1555C47.1946 45.7329 46.9602 45.3946 46.5181 45.1669C46.2659 45.0383 46.3821 44.655 46.5156 44.4145C46.5948 44.2732 46.6563 44.1425 46.6722 43.9851C46.8208 42.4656 46.7505 40.9479 46.6088 39.432C46.6 39.3386 46.5966 39.2406 46.618 39.151C46.9245 37.8734 46.572 36.6382 46.3728 35.3933C46.3241 35.0897 46.2671 34.7839 46.1702 34.4922C46.0901 34.2523 46.0695 33.9844 45.7553 33.8447C45.6006 33.7767 45.3261 33.5774 45.473 33.2907C45.6395 32.9648 45.8947 33.0498 46.1479 33.1886C46.2166 33.2254 46.2905 33.2845 46.3585 33.2824C47.3416 33.2353 47.5367 34.0228 47.8596 34.6775C47.8804 34.7194 47.8925 34.7658 47.9134 34.8077C48.0533 35.0905 47.9704 35.5807 48.2541 35.6474C48.4693 35.6976 48.7844 35.355 49.0474 35.1791C49.7601 34.7019 50.4984 34.2449 51.3707 34.1835C52.3127 34.1183 53.1782 34.2031 54.0361 34.844C54.9166 35.4999 55.0974 36.3977 55.4443 37.2699C55.5918 37.6393 55.7975 37.9773 55.9005 38.3773C56.0277 38.8701 55.9243 39.3386 55.9237 39.8159C55.9237 39.9137 55.8913 39.9908 55.8055 40.0557C55.6966 40.1359 55.5007 40.1984 55.543 40.348C55.5975 40.5406 55.8129 40.4408 55.9525 40.4571C56.5276 40.5253 57.1068 40.5347 57.6772 40.6718C58.4477 40.8563 59.2409 40.6376 60.0221 40.7419C60.227 40.7695 60.259 40.6249 60.2424 40.472C60.1427 39.6033 60.3468 38.7302 60.2013 37.8634C60.1546 37.5802 60.172 37.3031 60.1911 37.0245C60.2712 35.8106 60.1967 34.5995 60.1716 33.3868C60.1567 32.642 60.3067 31.89 60.2627 31.1483C60.2241 30.5013 60.2061 29.8508 60.1522 29.2045C60.0796 28.3123 60.2236 27.4267 60.1594 26.5351C60.0407 24.9078 59.9339 23.2797 59.8628 21.6506C59.8272 20.8605 59.9226 20.0643 59.8837 19.274C59.8153 17.9014 60.053 16.5398 59.9427 15.1594C59.8756 14.3115 59.9028 13.4464 59.7742 12.6044C59.6556 11.8137 59.5508 11.0206 59.3827 10.2349C59.2147 9.44749 59.0675 8.65479 58.7784 7.90294C58.4389 7.02114 58.2191 6.07504 57.5727 5.34248C57.4217 5.17187 57.3262 4.95786 57.2752 4.78738C57.144 4.35334 56.6746 4.37505 56.4581 4.04647C56.2249 3.68975 56.3559 3.68357 56.6487 3.66659C56.7014 3.66347 56.7525 3.61132 56.8037 3.58111C56.8982 3.58761 56.9927 3.5941 57.0855 3.60048L57.0971 3.60465ZM60.4115 44.8181C60.3953 44.166 60.4169 43.5569 60.3547 42.9573C60.2496 41.9213 60.4838 42.0149 59.4534 42.1094C59.3766 42.1159 59.2987 42.0903 59.2195 42.0832C58.263 41.9905 57.299 41.9799 56.3512 41.8102C55.7683 41.706 55.1965 41.9349 54.6305 41.8589C53.7704 41.7424 52.9458 41.7532 52.1929 42.2243C52.0033 42.3428 51.7039 42.4571 51.7698 42.7804C51.9093 43.4646 52.1232 44.1253 52.5984 44.6606C53.1901 45.327 54.023 45.369 54.814 45.3796C55.7575 45.3904 56.6997 45.2731 57.6418 45.1573C58.4676 45.0556 59.3079 44.8671 60.1511 45.0802C60.4461 45.1544 60.392 44.9298 60.4097 44.8197L60.4115 44.8181Z" fill="#696969"/>
<path d="M7.7312 25.6755C8.37655 25.2645 9.18856 25.29 9.72599 24.6978C9.89845 24.5073 10.9708 24.5928 11.1958 24.7719C11.506 25.0192 11.8183 25.2616 12.1267 25.5105C12.1878 25.5585 12.2619 25.6142 12.2844 25.6816C12.5039 26.3359 12.957 26.8966 12.9929 27.6327C13.0087 27.9694 13.1357 28.3172 13.3004 28.6591C13.5557 29.1876 13.6296 29.8134 13.7194 30.4065C13.8669 31.3679 13.8697 32.3395 14.1122 33.3007C14.4174 34.5073 14.6101 35.7501 14.6786 36.9978C14.7394 38.1101 14.8517 39.2141 14.9808 40.3209C15.0783 41.1709 15.1046 42.0464 15.1435 42.9109C15.17 43.5131 15.2475 44.1121 15.3011 44.7129C15.3639 45.4019 15.3348 46.0965 15.3689 46.7853C15.4015 47.42 15.2059 48.0221 15.2121 48.6466C15.2131 48.7563 15.1936 48.8663 15.193 48.9742C15.1944 49.1514 14.9311 49.3559 15.1378 49.4814C15.3314 49.5993 15.5862 49.6657 15.8458 49.638C17.0396 49.5109 18.0972 49.022 19.0849 48.39C19.4485 48.1569 19.6685 47.7436 19.6581 47.2774C19.6455 46.6964 19.7854 46.2152 20.3804 45.9694C20.4414 45.9449 20.4864 45.8569 20.5182 45.7899C20.9493 44.8447 21.7755 44.6148 22.7134 44.5848C22.7916 44.5818 22.8858 44.6169 22.9457 44.5839C23.3438 44.3667 23.5412 44.4292 23.873 44.8315C24.3488 45.4073 24.8581 45.9887 25.4452 46.4743C26.3803 47.2504 26.9968 48.2946 27.7932 49.1875C28.4448 49.9188 29.1111 50.6341 29.7699 51.3591C29.9669 51.5767 30.2331 51.7974 30.3366 52.0187C30.5641 52.5066 30.726 52.2479 30.8691 52.0401C31.3662 51.3204 31.7938 50.574 32.1153 49.7444C32.5501 48.624 32.7832 47.4526 33.0233 46.302C33.3443 44.764 33.6125 43.2055 33.6298 41.5977C33.6491 39.8365 33.6105 38.0798 33.5601 36.3223C33.5123 34.6004 33.4647 32.8751 33.3371 31.1562C33.2552 30.0526 33.0851 28.9513 32.8532 27.861C32.3531 25.5177 32.2227 23.1476 32.569 20.773C32.6758 20.0332 32.9409 19.3093 33.1932 18.5981C33.6347 17.3551 34.2476 16.2065 35.1321 15.203C35.6579 14.6067 36.3172 14.1899 36.9531 13.7445C37.4214 13.4174 37.9214 13.1229 38.4427 12.8889C39.097 12.5949 39.7808 12.5862 40.506 12.7153C41.732 12.9328 42.7692 13.4308 43.6352 14.3235C43.955 14.6542 43.9073 15.1501 44.2448 15.4685C44.3403 15.5593 44.1441 15.6521 44.0481 15.5932C43.6463 15.3464 43.3317 15.6064 43.0106 15.7648C42.8387 15.8491 42.705 15.8703 42.5293 15.7874C41.5493 15.3203 40.5118 15.2456 39.4573 15.3941C38.9831 15.461 38.5645 15.7054 38.1628 15.9747C37.1372 16.6648 36.2762 17.5248 35.6868 18.6008C35.1692 19.5468 34.9185 20.604 34.7621 21.6709C34.7078 22.0416 34.7206 22.422 34.6763 22.7951C34.5866 23.558 34.688 24.302 34.7852 25.0592C34.9662 26.4951 35.3588 27.8865 35.5881 29.3106C35.7798 30.4926 35.8937 31.6726 35.8479 32.8568C35.8038 33.9922 35.9564 35.126 35.8653 36.2548C35.8099 36.9374 35.7611 37.6222 35.8987 38.2843C36.124 39.3725 35.6988 40.4277 35.8279 41.5093C35.9099 42.1912 35.6452 42.8595 35.5446 43.5339C35.4308 44.3019 35.3176 45.0616 35.0917 45.8067C34.7829 46.8227 34.6342 47.875 34.3165 48.8972C33.9352 50.1275 33.2999 51.2307 32.8124 52.4048C32.6663 52.754 32.3255 52.9515 32.0641 53.2034C31.7773 53.4788 31.4985 53.7363 31.4229 54.146C31.4124 54.1992 31.3484 54.2926 31.3267 54.2878C30.9459 54.2042 30.6602 54.5371 30.2878 54.5048C29.654 54.4511 29.0126 54.4593 28.3824 54.3789C27.8581 54.3108 27.3591 54.0235 27.2136 53.5261C26.9433 52.6001 26.392 51.8893 25.7422 51.2307C24.5568 50.0276 23.5168 48.6811 22.164 47.6453C21.6003 47.2136 21.3991 47.3279 21.2029 48.0127C20.9489 48.8959 20.3084 49.5079 19.5254 49.9483C18.5324 50.5091 17.4866 51.0242 16.3782 51.2414C15.4743 51.4171 14.5058 51.8194 13.5836 51.3749C12.8746 51.0344 12.0623 50.766 11.812 49.8448C11.6795 49.355 11.8601 48.9475 12.0487 48.5472C12.2851 48.0423 12.3736 47.5205 12.4161 46.9753C12.5047 45.8092 12.5682 44.6397 12.5349 43.472C12.5092 42.5628 12.4088 41.6553 12.3458 40.747C12.2985 40.0539 12.2343 39.3597 12.2176 38.6653C12.1915 37.5656 12.0514 36.4715 12.0064 35.3755C11.9708 34.4876 11.8252 33.6208 11.6552 32.7641C11.4375 31.6647 11.3243 30.5488 11.0861 29.4513C11.0038 29.0696 11.0624 28.6621 10.9526 28.2616C10.7194 27.4123 10.6023 26.5256 10.1364 25.7565C9.94612 25.4416 9.68669 25.2449 9.29274 25.5501C9.076 25.7191 8.81577 25.8547 8.55429 25.9345C8.23731 26.0325 7.94703 25.9147 7.72875 25.6619L7.7312 25.6755Z" fill="#696969"/>
<path d="M29.5553 41.6802C28.869 41.8979 28.3377 42.3015 27.6542 42.3305C27.1816 42.3502 26.7035 42.1032 26.2365 42.3612C26.2084 42.3761 26.1254 42.3502 26.1104 42.3222C25.7618 41.6708 25.0869 41.8706 24.5645 41.801C23.5668 41.665 22.5447 41.76 21.5427 41.5882C21.4104 41.5657 21.2605 41.5267 21.1363 41.6311C20.4831 42.1816 19.8829 41.7626 19.2883 41.5092C19.0346 41.4024 18.803 41.2448 18.5464 41.1293C17.8641 40.821 17.7788 40.434 18.269 39.8386C18.3873 39.6949 18.4267 39.615 18.3059 39.4987C17.7333 38.95 17.7789 38.2127 17.691 37.5186C17.668 37.3348 17.6915 37.1408 17.7261 36.9577C17.9275 35.8533 17.7062 34.8059 17.3681 33.7555C17.2326 33.3347 16.9514 32.9376 17.0438 32.4059C17.5649 32.5952 18.1314 32.4672 18.6611 32.8763C18.9686 33.1133 19.5049 33.4504 20.051 33.0764C20.2841 32.917 20.6236 32.9842 20.8503 33.1634C21.1366 33.3888 21.4563 33.399 21.7783 33.4009C23.1322 33.4113 24.4731 33.264 25.8155 33.0965C26.6277 32.9955 27.414 32.8033 28.1958 32.5771C28.3705 32.5267 28.5468 32.6012 28.6093 32.7269C28.8365 33.1962 29.3167 33.263 29.7089 33.4771C30.1714 33.7282 30.7087 33.8781 30.982 34.3911C31.0525 34.5241 31.1833 34.5213 31.3078 34.5349C31.4407 34.5491 31.5607 34.6046 31.5726 34.7521C31.5893 34.9523 31.329 34.7438 31.3093 34.9566C31.6 35.0188 31.5216 35.3946 31.7715 35.5332C31.8041 35.5523 31.8356 35.6118 31.7697 35.6832C31.4033 36.0796 30.9459 36.3214 30.428 36.4325C30.0667 36.5089 29.9654 36.6757 29.8908 37.0466C29.7549 37.7153 29.5661 38.3668 29.6081 39.0629C29.6141 39.173 29.4779 39.3036 29.3861 39.4069C29.2573 39.5532 29.1413 39.7375 29.1791 39.902C29.2584 40.2532 29.1586 40.5213 28.9 40.7312C28.7457 40.8555 28.8087 40.9256 28.9035 41.0266C29.1009 41.2375 29.2621 41.4813 29.5535 41.6818L29.5553 41.6802ZM18.8444 40.0012C18.988 40.1308 19.1199 40.0876 19.2371 40.1092C20.2168 40.2844 21.1315 39.752 22.1239 39.8674C22.8066 39.9481 23.5053 39.7718 24.2048 39.8064C25.0193 39.8455 25.8276 39.8993 26.6153 40.1306C26.7616 40.1727 27.0169 40.2577 27.0551 40.0225C27.1363 39.5305 27.4483 39.1118 27.4729 38.6058C27.5146 37.7519 27.5767 36.8977 27.6184 36.0438C27.6307 35.7916 27.5808 35.4813 27.3435 35.4076C26.9484 35.2843 26.5146 35.2073 26.1016 35.2227C24.7742 35.2715 23.4491 35.1888 22.1226 35.1988C21.8292 35.2006 21.5354 35.1349 21.2995 35.3851C21.1714 35.5214 21.063 35.4212 20.9299 35.3597C20.5568 35.189 20.1985 35.0008 19.8933 34.6813C19.9732 35.2451 20.1021 35.7616 20.0456 36.3126C19.9773 36.9859 19.9243 37.6586 20.0496 38.3503C20.111 38.6901 20.275 39.2647 19.7106 39.435C19.3557 39.5422 19.1266 39.7676 18.8444 40.0012Z" fill="#696969"/>
<path d="M45.4458 48.9302C45.3905 49.4138 45.4047 50.0219 45.2409 50.5791C44.9996 51.4007 44.7659 52.2364 43.8904 52.7159C42.5956 53.4247 41.3143 53.5423 39.9269 53.0085C38.0739 52.2942 37.1581 50.8432 36.7398 49.0368C36.5489 48.2124 36.846 47.4165 37.2201 46.636C37.8814 45.253 39.136 44.6595 40.3744 43.9823C40.9769 43.6526 41.4126 43.8985 41.9015 44.1362C41.9425 44.1558 42.0061 44.1923 42.0074 44.2227C42.0396 44.8405 42.5696 44.7505 42.9348 44.8396C44.0284 45.1088 44.7439 45.7736 45.1306 46.807C45.3758 47.458 45.576 48.1211 45.4491 48.9321L45.4458 48.9302ZM41.2947 52.298C41.5527 52.368 42.0083 52.3251 42.2982 52.1764C42.9887 51.8241 43.627 51.3435 43.8536 50.5124C43.9604 50.1183 43.9269 49.718 43.9773 49.3301C44.1365 48.1234 43.8552 47.0617 43.1145 46.122C42.8463 45.7814 42.4445 45.6088 41.9957 45.6757C41.8124 45.7036 41.7452 45.645 41.6122 45.533C41.3206 45.287 40.9526 45.066 40.5613 45.2584C40.3069 45.3842 40.051 45.5556 39.802 45.6751C38.5787 46.2572 38.3271 47.3766 38.1482 48.5247C38.115 48.7366 38.1008 48.992 38.1261 49.24C38.1955 49.9329 38.5701 50.4511 38.9854 50.9452C39.5559 51.6236 40.2329 52.1575 41.293 52.2979L41.2947 52.298Z" fill="#696969"/>
<path d="M17.8245 19.4695C17.9846 19.5328 18.1365 19.641 18.3014 19.3876C18.3886 19.2536 18.7065 19.4627 18.8456 19.5363C19.3185 19.7847 19.7865 20.0547 20.2371 20.3555C21.2373 21.0213 22.375 21.2918 23.5727 21.0823C24.3619 20.946 25.1448 20.8278 25.943 20.7578C26.5109 20.7091 27.1086 20.5478 27.5195 20.0448C27.6954 19.8292 27.9836 19.7057 28.2385 19.821C29.21 20.2639 30.2878 20.2941 31.2861 20.6427C31.6222 20.7603 31.8908 20.8732 31.9244 21.2229C31.9586 21.5643 31.591 21.6334 31.3924 21.8104C30.6624 22.4652 29.7386 22.3646 28.8867 22.3027C28.0568 22.2422 27.2607 22.3798 26.4497 22.4387C26.0356 22.4693 25.6228 22.5067 25.2061 22.5253C24.7078 22.5484 24.2077 22.5983 23.7232 22.7404C23.6349 22.7664 23.5357 22.7798 23.4449 22.7685C22.7531 22.6721 22.0459 22.8478 21.357 22.6351C21.0647 22.5459 20.8046 22.3847 20.4931 22.3278C20.2638 22.2851 20.0687 22.0406 19.8191 22.2933C19.8008 22.3123 19.6623 22.2556 19.6236 22.2023C19.2254 21.6571 18.58 21.3278 18.3045 20.6747C18.1399 20.2822 17.5947 20.0507 17.8229 19.4677L17.8245 19.4695Z" fill="#696969"/>
<path d="M41.1103 19.3615C42.2442 19.5879 43.4069 19.715 44.3256 20.5557C44.5984 20.8055 44.7032 21.0556 44.6066 21.3761C44.5168 21.6719 44.3045 21.7753 43.9832 21.6655C43.9053 21.6399 43.7015 21.6698 43.6718 21.806C43.6372 21.9639 43.7892 21.9963 43.918 22.022C44.0584 22.0519 44.1708 22.1675 44.3504 22.0703C44.4701 22.006 44.6705 22.0248 44.7774 22.1721C44.895 22.3354 44.8396 22.5255 44.7375 22.6534C44.5536 22.887 44.3987 23.0687 44.642 23.3772C44.7651 23.534 44.5847 23.7426 44.4558 23.867C43.8598 24.4467 43.2655 25.0282 42.6381 25.572C42.4038 25.7751 42.0457 25.7067 41.7446 25.7703C40.9017 25.9485 40.1707 25.7549 39.5439 25.1316C39.225 24.8145 38.7363 24.6966 38.4818 24.2811C37.9317 23.3797 37.4955 22.4744 37.8938 21.3667C38.2819 20.2836 39.0079 19.6353 40.131 19.4022C40.4577 19.3352 40.7801 19.3321 41.1122 19.3583L41.1103 19.3615ZM40.8966 24.3695C41.8509 24.4469 42.8382 23.6968 42.9084 22.8245C43.022 21.3937 42.2136 20.9941 40.784 20.7052C40.1553 20.5777 39.2521 21.4854 39.1466 22.1561C38.9507 23.4026 39.791 24.3239 40.8966 24.3695Z" fill="#696969"/>
<path d="M41.0351 34.2438C41.4269 34.2168 41.7418 34.4442 41.9165 34.9858C42.0523 35.4033 42.5491 35.4509 42.9101 35.5769C43.3139 35.7194 43.6126 35.9372 43.8645 36.2683C44.191 36.6972 44.2231 37.1429 44.2116 37.6802C44.1973 38.4061 44.083 39.1066 43.9024 39.7857C43.5571 41.0859 42.9636 41.9255 41.4401 41.9423C40.2067 41.9553 39.2832 41.4803 38.4686 40.6535C37.5559 39.7256 37.6136 38.6147 37.8839 37.4696C38.1156 36.4904 38.7967 35.7816 39.396 35.0284C39.7691 34.5582 40.2124 34.1772 41.0335 34.242L41.0351 34.2438ZM42.8402 37.7765C42.9849 37.2265 42.8949 36.6604 42.2439 36.2901C42.0058 36.154 41.8026 35.9528 41.5561 35.8397C40.8493 35.5162 40.8386 35.5239 40.3188 36.1308C39.8396 36.6899 39.5853 37.3807 39.2153 38.003C38.9126 38.5101 38.9464 39.0538 38.9402 39.588C38.9368 39.8846 39.0698 40.2192 39.3476 40.3952C40.1146 40.878 40.9451 41.0531 41.8396 40.8161C42.0174 40.7693 42.1111 40.6644 42.1832 40.4788C42.5054 39.6391 42.7756 38.7908 42.8435 37.7784L42.8402 37.7765Z" fill="#696969"/>
<path d="M41.722 28.2733C42.1077 28.1362 42.5902 28.22 42.7606 27.6903C42.8339 27.4626 43.0114 27.6181 43.1157 27.6287C43.343 27.6527 43.5987 27.7057 43.6716 27.9772C43.7188 28.1542 43.7675 28.3582 43.7252 28.5291C43.5078 29.3979 43.5938 30.2926 43.4742 31.1699C43.4509 31.3352 43.3948 31.4612 43.2896 31.5856C42.9761 31.9536 42.6624 32.325 42.5099 32.7919C42.4541 32.9634 42.3062 32.9448 42.2058 32.9497C41.8332 32.9696 41.5017 33.2049 41.1165 33.1363C41.0193 33.1195 40.9263 33.1401 40.8801 33.2448C40.8378 33.3431 40.7511 33.4198 40.6613 33.3698C40.1733 33.0951 39.5211 33.2357 39.1153 32.7508C38.5936 32.128 38.0396 31.53 37.9917 30.6497C37.9488 29.8675 37.9581 29.0906 38.2296 28.347C38.3633 27.98 38.7154 27.7664 39.0108 27.5624C39.7104 27.0776 40.3851 26.4864 41.366 26.6938C41.8189 26.789 41.9948 27.0659 42.1359 27.4551C42.2757 27.8391 41.9251 27.8825 41.7769 28.0663C41.7361 28.1174 41.6962 28.1552 41.7186 28.2731L41.722 28.2733ZM39.0942 30.0744C39.0589 30.5375 39.0704 31.0122 39.1731 31.4915C39.2925 32.0479 39.6083 32.2635 40.1889 32.1769C41.3692 32 42.0933 31.3549 42.3462 30.1917C42.5868 29.0833 42.5934 28.6671 41.346 28.7366C41.3307 28.7372 41.315 28.7429 41.2998 28.7418C41.1043 28.725 40.9468 28.6737 41.0535 28.4281C41.1363 28.2347 41.0673 28.1288 40.9082 28.0015C40.7284 27.8559 40.5874 27.9086 40.4419 28.0032C39.6996 28.4935 39.0396 29.0435 39.0959 30.0745L39.0942 30.0744Z" fill="#696969"/>
<path d="M30.558 29.5585C29.8654 29.769 29.4074 30.3902 28.6664 30.5147C28.2188 30.5902 27.7932 30.4918 27.3739 30.4258C26.5319 30.2938 25.7159 30.376 24.8788 30.4685C24.2023 30.5435 23.4926 30.461 22.8154 30.3486C22.2338 30.2513 21.6875 30.5039 21.1056 30.3863C20.798 30.323 20.5795 30.2708 20.4805 29.9605C20.4582 29.8898 20.4305 29.8002 20.3753 29.7643C19.8328 29.4184 19.7855 28.9969 20.0908 28.4528C20.1817 28.2888 20.3063 28.1287 20.366 27.927C20.4014 27.8063 20.5511 27.4287 20.8079 27.615C21.0388 27.7827 21.4391 27.9029 21.393 28.2776C21.3581 28.5636 21.4852 28.6128 21.6866 28.6924C22.1555 28.8747 22.6373 28.7965 23.1148 28.7804C23.5174 28.7676 23.92 28.7076 24.3225 28.6965C24.5739 28.6902 24.8002 28.6534 25.0451 28.5674C26.1797 28.1664 27.3475 28.245 28.4824 28.5304C28.9206 28.6415 29.4112 28.7798 29.7668 29.1078C29.9964 29.3192 30.3725 29.1983 30.5597 29.5586L30.558 29.5585Z" fill="#696969"/>
<path d="M19.8362 25.5446C19.8375 25.4772 19.8396 25.447 19.8367 25.4147C19.8219 25.186 19.5809 24.9671 19.9339 24.74C20.3153 24.4947 20.654 24.5736 20.9795 24.7461C22.028 25.3022 23.0827 25.4962 24.2258 25.0215C24.8331 24.7698 25.5 24.7111 26.1164 24.4246C26.6068 24.1968 27.1663 24.5406 27.6419 24.7251C28.0795 24.8951 28.5847 24.8455 28.9764 25.2148C29.3045 25.5224 29.3641 25.567 28.9757 25.8169C28.8125 25.922 28.5094 25.8911 28.6278 26.2416C28.6574 26.328 28.4999 26.3509 28.4496 26.3171C28.1854 26.1404 27.9906 26.3108 27.7747 26.4191C27.4463 26.5837 27.1366 26.6012 26.7476 26.5138C25.9094 26.3263 25.0541 26.4868 24.2055 26.5752C23.6777 26.6316 23.2341 26.9199 22.723 27.0045C22.4693 27.0461 22.2299 27.0516 21.9877 26.9489C21.8921 26.9086 21.7204 26.8665 21.6766 26.9124C21.1563 27.4517 20.8192 26.5111 20.3446 26.7567C20.1957 26.3333 19.4524 26.1473 19.8362 25.5446Z" fill="#696969"/>
<path d="M25.64 19.639C25.3547 19.3749 24.9779 19.3321 24.6579 19.128C24.2308 18.8557 23.9774 18.4976 23.7741 18.1008C23.6291 17.8176 23.3728 17.5993 23.302 17.274C23.289 17.2157 23.1878 17.1346 23.1267 17.1354C22.2506 17.1292 21.9999 16.3125 21.4623 15.8708C21.4174 15.834 21.3875 15.7762 21.3407 15.741C21.1286 15.5712 21.1527 15.3435 21.2426 15.1456C21.3206 14.9739 21.5157 15.021 21.6791 14.9867C22.0524 14.9078 22.223 15.1135 22.4292 15.2963C22.7728 15.5999 23.1927 15.7553 23.6091 15.9138C24.924 16.4157 25.6927 17.3927 26.0789 18.7045C26.1395 18.9077 26.3017 19.1634 25.8577 19.1851C25.6297 19.1964 25.8128 19.4924 25.6381 19.6423L25.64 19.639Z" fill="#696969"/>
</g>
<defs>
<clipPath id="clip0_1_835">
<rect width="75.4995" height="67.8733" fill="white" transform="translate(4.6543) rotate(3.93202)"/>
</clipPath>
</defs>
</svg>
