<?xml version="1.0" encoding="utf-8"?>
<!-- Generator: Adobe Illustrator 27.0.0, SVG Export Plug-In . SVG Version: 6.00 Build 0)  -->
<svg version="1.1" id="Layer_1" xmlns="http://www.w3.org/2000/svg" xmlns:xlink="http://www.w3.org/1999/xlink" x="0px" y="0px"
	 viewBox="0 0 88.5 54" style="enable-background:new 0 0 88.5 54;" xml:space="preserve">
<style type="text/css">
	.st0{fill:#696969;}
</style>
<path class="st0" d="M30.4,3.8c0.1-0.6-0.1-1.2,0-1.8c0-0.5-0.3-0.8-0.6-1.1c-0.1-0.1-0.4-0.1-0.3-0.3c0.1-0.2,0.3-0.5,0.6-0.5
	c0.2,0,0.4,0,0.6,0.1c0.3,0.2,0.6,0.4,1,0.7c0.4,0.3,0.6,0.7,0.8,1.2c0.4,1.7,0.4,3.4,0.4,5.1c0,0.7,0.1,0.9,0.8,1
	c0.9,0.1,1.8,0.4,2.7,0.6c0.5,0.1,1,0.4,1.5,0.6c0.1,0.1,0.2,0.1,0.3,0.2c0.1,0.3,0.3,0.6,0.7,0.6c0.1,0,0.4,0.1,0.3,0.3
	c-0.1,0.2,0,0.5-0.3,0.5c-0.7,0.1-1.3,0.5-2,0.4c-0.7,0-1.4-0.2-2.1-0.5c-0.4-0.2-0.9-0.4-1.4-0.4c-0.3,0-0.4,0-0.4,0.3
	c0,0.9-0.2,1.8-0.1,2.7c0.1,1.4-0.1,2.8,0.3,4.1c0,0.1,0,0.2,0,0.3c-0.3,0.4-0.2,0.8,0,1.2c0.1,0.3,0.1,0.7,0.1,1.1
	c0,0.9,0.3,1.7,0.5,2.5c0.2,1.4,0.8,2.7,1.1,4.1c0.2,0.8,0.6,1.5,0.9,2.3c0.3,1.1,0.9,2.2,1.2,3.3c0.1,0.4,0.2,0.9,0.5,1
	c0.3,0.1,0.5-0.4,0.8-0.7c0.4-0.4,0.8-0.9,1.2-1.3c0.3-0.3,0.2-0.6,0.3-0.9c0.2-0.3,0.3-0.3,0.5-0.2c0.3,0.1,0.4,0,0.4-0.3
	c-0.1-0.5,0.2-1,0.7-1.2c0.1,0,0.2,0,0.3-0.1c0.2-0.3,0.3-0.1,0.4,0.1c0.4,1.1,0.7,2.2,0.3,3.4c-0.1,0.2-0.2,0.4-0.4,0.5
	c-0.9,0.2-1.3,1-1.9,1.6c-0.4,0.4-0.7,1-1.2,1.4c-0.5,0.4-0.3,0.9-0.1,1.3c0.2,0.5,0.4,1.1,0.7,1.6c0.4,1,0.9,2,1.5,2.9
	c0.5,0.9,1,1.9,1.5,2.8c0.8,1.5,2,2.8,3.1,4.1c0.7,0.8,1.5,1.6,2.3,2.2c0.6,0.5,0.4,1.2,0.4,1.9c0,0.3-0.3,0.7-0.1,1
	c0,0.1-0.1,0.2-0.2,0.2c-0.5,0-1,0.1-1.6-0.1c-1.5-0.7-2.8-1.5-4.1-2.5c-0.5-0.3-0.8-0.9-1.1-1.4c-1.1-1.4-2.2-2.9-3.1-4.5
	c-0.8-1.5-1.4-3-2.2-4.5c-0.1-0.3-0.3-0.6-0.4-0.9c-0.1-0.2-0.2-0.2-0.4-0.1c-0.6,0.6-1.2,1.3-1.7,2c-0.1,0.1-0.1,0.2-0.2,0.2
	c-0.4,0.4-0.8,0.7-1,1.2c-0.3,0.6-1,0.8-1.4,1.2c-0.2,0.1-0.3,0-0.4-0.1c-0.2-0.1-0.1-0.2,0-0.4c0.3-0.8,0.6-1.5,0.8-2.4
	c0.2-0.9,0.6-1.7,1.3-2.5c0.6-0.6,1.1-1.3,1.6-1.9c0.3-0.4,0.1-0.7,0-1.1c-0.3-0.9-0.6-1.8-0.9-2.7c-0.2-0.5-0.4-1.1-0.6-1.6
	c-0.5-1.3-0.9-2.7-1.3-4c-0.3-1.2-0.7-2.4-1-3.7c-0.1-0.7-0.3-1.4-0.4-2.1c0-1.5-0.2-3.1-0.2-4.6c0-1,0-2.1,0-3.1
	c0.1-1.2-0.1-2.5,0.2-3.7c0.1-0.6,0-0.7-0.6-0.7c-1,0-2.1,0-3.1,0.2c-0.3,0.1-0.7,0-1-0.1c-1.5-0.2-3-0.1-4.6-0.2
	c-1.4-0.1-2.8-0.3-4.2-0.4c-0.6-0.1-0.9,0.3-0.7,0.9c0.3,0.9,0.4,1.8,0.6,2.6c0.2,0.8,0.2,1.5,0.3,2.3c0.2,0.7,0,1.4-0.1,2.1
	c-0.2,1.2-0.4,2.3-0.8,3.4c-0.5,1.1-0.7,2.3-1.1,3.5c-0.6,1.4-1.4,2.6-1.8,4.1c-0.4,1.6-1.5,2.7-2.5,3.9c-0.6,0.7-1.1,1.4-1.7,2.1
	c-0.4,0.5-1,0.9-1.5,1.3c-0.7,0.5-1.3,1.3-2.2,1.4c-0.7,0.1-1.3,0.6-2,0.7c-0.3,0.1-0.6-0.1-1-0.1c-0.1,0-0.3-0.1-0.3-0.2
	c0-0.5-0.2-0.7-0.7-0.6c0-0.2-0.4-0.4-0.3-0.5c0.1-0.2,0.2-0.4,0.5-0.4c0.5,0,1-0.1,1.5-0.2c0.6-0.1,1.1-0.3,1.5-0.8
	c0.5-0.5,1.1-0.9,1.6-1.4c0.6-0.4,0.9-1,1.4-1.5c0.5-0.6,1-1.2,1.5-1.8c1-1.3,2-2.5,2.6-4.1c0.5-1.3,1-2.7,1.4-4
	c0.3-1.3,0.5-2.7,0.8-4.1c0.1-0.9,0.2-1.8,0.2-2.8c0-1.7-0.4-3.4-0.9-5c-0.2-0.7-0.6-1.3-0.9-2C11.4,8.2,11,8.1,10.7,8
	c-0.6-0.3-0.9-1.1-0.4-1.5c0.3-0.2,0.6-0.4,1-0.1c0.3,0.2,0.5,0.2,0.9,0.2c0.6-0.1,1.1,0.1,1.5,0.5c0.2,0.2,0.4,0.5,0.7,0.1
	c0.1-0.1,0.3,0.2,0.6,0.2c1.5-0.1,2.9,0,4.4,0.1c1.7,0.2,3.3,0.1,5,0.2c1.8,0.1,3.6-0.1,5.4,0c0.3,0,0.4-0.2,0.4-0.4
	C30.2,6.2,30.4,5,30.4,3.8L30.4,3.8z"/>
<path class="st0" d="M41.3,22.8c-0.7-0.3-1.2-0.8-1.7-1.2c-0.9-0.7-1.6-1.5-2.1-2.4c-0.3-0.6-0.7-1.3-0.7-2.2
	c0.1-0.6-0.1-1.2,0.2-1.7c0.1-0.1,0.1-0.3,0.3-0.2c0.7,0.2,1.2-0.4,1.7-0.7c0.5-0.3,0.9-0.4,1.4-0.2c1.5,0.4,2.9,1.1,4.3,1.9
	c0.7,0.4,1.3,0.9,1.9,1.4c0.3,0.2,0.3,0.5,0,0.8c-0.3,0.4-0.7,0.8-1,1.1c-0.3,0.4-0.9,0.3-1.3,0.5c-0.1,0.1-0.3-0.1-0.3-0.3
	c-0.1-0.4-0.4-0.7-0.7-0.9c-0.8-0.5-1.5-1-2.2-1.7c-0.4-0.4-0.9-0.4-1.3-0.8c-0.1-0.1-0.2-0.1-0.2,0c-0.1,0.2-0.4,0.4-0.3,0.7
	c0.3,1.1,0.7,2.1,1.6,2.8c0.6,0.6,1.2,1,2,1.2c0.2,0.1,0.4,0.2,0.6,0.2c0.1,0,0.1,0.1,0.2,0.1c0.2,0.5,0.6,0.8,1,1.1
	c0.6,0.4,1,1.1,1.3,1.8c0.2,0.5-0.3,1.1-1,1.3c-0.5,0.1-0.9,0.3-1.4,0.3c-0.3,0-0.5,0-0.8,0.2c-0.1,0-0.2,0.1-0.3,0
	c-0.5-0.3-1.1-0.1-1.6,0c-0.8,0.2-1.5,0.4-2.3,0.4c-0.5,0-0.8,0-1.1-0.6c-0.2-0.3-0.3-0.6-0.7-0.8c-0.2-0.1-0.4-0.5-0.4-0.8
	c0-0.5-0.2-0.7-0.4-1.1c-0.7-0.8-1.4-1.6-1.9-2.5c-0.1-0.1-0.1-0.2,0-0.3c0.1-0.1,0.2,0,0.3,0.1c0.4,0.4,1,0.6,1.5,0.7
	c0.7,0.2,1.2,0.7,1.7,1.1c0.8,0.6,1.6,1,2.4,1.6c0.1,0.1,0.2,0.1,0.3,0C40.5,23.5,41,23.2,41.3,22.8L41.3,22.8z"/>
<path class="st0" d="M58.9,42.6c0,0.3,0,0.6-0.2,0.9c-0.3,0.5-0.8,0.2-1.1,0.1c-0.6-0.2-0.6,0.3-0.8,0.5c-0.2,0.2-0.2,0.6-0.2,0.8
	c-0.1,0.3,0,0.5,0.3,0.7c0.7,0.4,1.5,0.7,2.3,1.1c1.1,0.4,2,1.2,2.7,2.2c0.2,0.3,0.3,0.9,0.2,1.3c-0.1,0.9-0.4,1.7-0.7,2.5
	c-0.4,0.9-1.6,1.5-2.5,1.2c-0.8-0.3-1.7-0.3-2.6-0.5c-0.8-0.2-1.6-0.5-2.3-0.8c-0.3-0.2-0.6-0.1-0.9-0.3c-0.5-0.4-1-0.8-1.5-1.2
	c-0.4-0.3-0.6-1-0.5-1.6c0.1-0.4,0.5-0.6,0.8-0.7c0.4-0.1,0.7,0,0.9,0.3c0.2,0.3,0.3,0.7,0.7,0.8c0,0,0.1,0,0.1,0.1
	c0.1,1,0.9,0.8,1.5,1c0.9,0.2,1.8,0.1,2.6-0.1c0.7-0.1,1.2-0.6,1.7-1c0.4-0.3,0.1-0.7-0.2-0.8c-0.7-0.4-1.4-0.7-2.2-0.8
	C56.6,48,56.3,48,56,48c-0.2,0-0.4-0.2-0.4-0.4c-0.4-0.8-0.5-1.7-0.7-2.6c-0.3-1.3,0.2-2.4,0.8-3.4c0.3-0.7,1.8-1.1,2.5-0.7
	C58.7,41.2,58.9,41.8,58.9,42.6L58.9,42.6z"/>
<path class="st0" d="M75.4,44.6c-0.1,0.8,0.5,1.1,1.1,1.4c0.4,0.2,0.9,0.4,1.3,0.5c1.3,0.4,1.9,1.3,2.1,2.6c0,0.2,0,0.4-0.1,0.7
	c-0.2,0.7-0.4,1.3-0.6,2c-0.2,0.5-0.7,0.8-1.2,0.7c-0.9-0.2-1.8-0.6-2.6-1.2c-0.1-0.1-0.2-0.2-0.4-0.2c-1.4-0.1-2.7-0.6-3.9-1.2
	c-0.4-0.2-0.8-0.5-0.6-1.1c0.1-0.3-0.2-0.6-0.2-0.9c-0.1-0.3-0.1-0.5-0.1-0.8c0-0.2,0-0.5-0.2-0.8c-0.2-0.2-0.2-0.6,0-0.7
	c0.1-0.1,0.4-0.2,0.6,0.1c0.5,0.7,1,1.4,1.5,2.1c0.5,0.7,1.1,1.2,1.9,1.5c0.6,0.2,1.1-0.1,1.7-0.1c0.3,0,0.5-0.1,0.8-0.2
	c0.3,0,0.7-0.1,0.7-0.5c0-0.5-0.4-0.6-0.7-0.7c-1.4-0.2-2.1-1.2-2.7-2.3c-0.3-0.6-0.4-1.3-0.6-2c-0.1-0.3,0.4-0.8,0.7-0.9
	c0.3,0,0.5-0.2,0.6-0.4c0.7-1,1.6-1.1,2.7-0.8c0.2,0.1,0.5,0,0.7,0c0.8-0.1,1.5,0.3,2.1,0.9c0.3,0.3,0.4,0.7,0.5,1.1
	c0.1,0.2-0.1,0.2-0.2,0.3c-0.4,0.3-0.9,0.4-1.4,0.5c-0.7,0-1.3,0.1-1.9-0.6c-0.2-0.3-0.8-0.3-1.2-0.5c-0.2,0-0.3,0.1-0.3,0.3
	C75.6,43.8,75.4,44.2,75.4,44.6L75.4,44.6z"/>
<path class="st0" d="M48.6,34.1c0.6,0,1.1-0.1,1.7-0.1c0.6,0,1.1,0.4,1.7,0.5c0.6,0.1,0.8,0.6,1.2,1c0.8,0.8,0.8,1.6,0.3,2.6
	c-0.2,0.4-0.6,0.3-0.9,0.5c-0.5,0.3-1,0.6-1.5,0.9c-0.4,0.3-0.2,1.1,0.4,1.5c0.6,0.4,1.1,1,2,1.2c0.3,0,0.2,0.5,0.1,0.7
	c-0.1,0.3-0.4,0.6-0.7,0.6c-1,0.1-1.9,0.2-2.9-0.1c-1-0.3-1.5-1.2-1.3-2.3c0-0.2,0-0.3,0-0.5c0-0.9,0.4-1.6,1-2.2
	c0.4-0.4,0.6-0.9,0.8-1.3c0.2-0.3-0.2-0.4-0.5-0.5c-0.7-0.1-1.4,0-2,0.5c-0.4,0.4-0.8,0.7-1.4,0.7c-0.2,0-0.3,0.3-0.5,0.4
	c-0.1,0.1-0.3,0.2-0.5,0.3c-0.2,0.1-0.5,0-0.7-0.1c-0.2-0.1-0.1-0.3,0-0.5c0.1-0.3,0.1-0.8,0.5-1c-0.3-0.6,0.6-1,0.1-1.6
	c-0.3-0.3,0-0.8,0.4-0.9c0.4-0.1,0.6-0.3,0.7-0.6c0-0.2,0.1-0.3,0.2-0.5c0.2-0.3,0.2-0.5,0-0.8c-0.1-0.2-0.3-0.5,0-0.6
	c0.3-0.2,0.6-0.8,1.1-0.3c0.2,0.2,0.4,0.2,0.6,0.2c0.6,0.2,0.8,0.6,0.7,1.2C49.2,33.4,49.1,33.8,48.6,34.1L48.6,34.1z"/>
<path class="st0" d="M47.4,24.9c-0.1-0.4,0.2-0.8-0.2-1.2c-0.2-0.1,0-0.4,0.1-0.4c0.4-0.2,0.5-0.6,0.7-1c0.2-0.6,0.6-1.1,1-1.6
	c0.2-0.3,0.7-0.6,1.2-0.6c0.6,0,1.1-0.1,1.7-0.2c0.5,0,1,0,1.4,0.2c0.7,0.3,1,1,0.7,1.8c-0.2,0.7-0.2,1.5-0.5,2.2
	c-0.3,0.6-1.2,1.4-1.9,1.5c-0.4,0-0.8,0.1-1.2,0.3c-0.2,0.1-0.2,0.1-0.2,0.3c0.2,0.7,0.2,1.4,0.6,2.1c0.2,0.4,0.4,0.6,1,0.6
	c0.8,0,1.6-0.1,2.4,0.2c0.2,0.1,0.3,0.3,0.2,0.5c-0.1,0.1,0.1,0.4-0.3,0.4c-0.4,0-0.8,0.3-1.1,0.6c-0.5,0.5-1.1,0.7-1.8,0.4
	c-0.6-0.2-1.3-0.4-1.6-1.1c-0.2-0.3-0.5-0.4-0.7-0.7c-0.7-1-1.1-2-1.4-3.1C47.3,25.5,47.4,25.2,47.4,24.9L47.4,24.9z M50.3,23.5
	c0.5,0,0.9-0.4,1.1-1c0-0.1,0.2-0.2,0-0.3c-0.1-0.1-0.3-0.1-0.4,0c-0.3,0.2-0.5,0.4-0.8,0.5c-0.2,0.1-0.3,0.3-0.3,0.6
	C50,23.5,50.1,23.6,50.3,23.5L50.3,23.5z"/>
<path class="st0" d="M25.3,21.1c0-0.3,0-0.5,0-0.6c-0.1-0.5,0.4-0.7,0.6-0.8c0.3-0.2,0.4,0.2,0.4,0.5c0,0.8,0,1.5,0.6,2.1
	c0.4,0.3,0.3,1.3,0.2,1.8c-0.2,0.9-0.8,1.6-1.3,2.3c-0.6,0.8-1.4,1.2-2.5,1.4c-0.8,0.1-1.6,0.1-2.3,0.3c-0.1,0-0.2,0-0.3,0
	c-1.2-0.8-2.2-1.7-3.1-2.8c-0.3-0.3,0-0.6,0-0.9c0-0.3,0-0.6-0.1-1c-0.2-0.8-0.2-1.5,0.5-2.1c0.6-0.5,1-1.1,1.6-1.6
	c0.8-0.6,2.8-1,3.7-0.6c0.3,0.2,0.5,0.6,0.5,0.9c0,0.3-0.1,0.7-0.5,0.9c-0.1,0.1-0.4,0.1-0.5,0c-0.6-0.6-1.2-0.3-1.7,0
	c-1.1,0.5-1.9,1.4-2.4,2.5c-0.1,0.2-0.1,0.4,0,0.6c0.4,0.6,0.9,1.2,1.6,1.6c0.2,0.1,0.4,0.2,0.7,0.2c1.1-0.1,2.3-0.3,3.3-1
	c0.4-0.3,0.6-0.7,0.6-1.2C25.1,22.6,25.4,21.8,25.3,21.1L25.3,21.1z"/>
<path class="st0" d="M61.5,47.2c0.1-0.7,0.5-1.2,1.1-1.7c0.5-0.4,1.1-0.8,1.2-1.5c0-0.1,0-0.2,0.1-0.2c0.2-0.3,1.6-0.6,1.9-0.5
	c0.5,0.2,1.1,0.2,1.6,0.4c0.6,0.2,0.9,1.1,0.7,1.7c-0.3,0.7-0.9,1-1.4,1.4c-0.4,0.3-0.8,0.7-0.8,1.3c0,0.1,0,0.2-0.2,0.3
	c-0.1,0.1-0.5,0-0.3,0.3c0.2,0.2,0.3,0.7,0.8,0.5c0.6-0.2,1.1-0.5,1.6-0.8c0.3-0.2,0.7-0.5,1.2-0.2c0.5,0.2,0.6,0.6,0.3,1.1
	c-0.3,0.5-0.7,0.9-1.1,1.3c0,0-0.1,0-0.1,0.1c-0.3,1-1.2,0.5-1.8,0.6c-0.8,0.1-1.3-0.4-1.8-0.9c-0.1-0.1-0.1-0.4-0.4-0.1
	c-0.1-0.1-0.2-0.1-0.2-0.3c0-0.6-0.5-0.9-0.9-1.2c-0.2-0.1-0.5-0.2-0.6-0.5c-0.1-0.2-0.2-0.3-0.3-0.3C61.7,47.9,61.3,47.8,61.5,47.2
	L61.5,47.2z M64.9,46c-0.4-0.2-0.7-0.2-1,0.1c-0.1,0.1-0.1,0.2,0,0.3c0.1,0.1,0.2,0,0.3,0C64.3,46.3,64.6,46.2,64.9,46L64.9,46z"/>
<path class="st0" d="M26.6,39.8c-0.5,0.6-0.9,1.1-1.4,1.7c-0.3,0.4-0.8,0.5-1.2,0.6c-0.4,0.1-0.8,0.2-1.3,0.2
	c-0.5,0-0.9-0.1-1.4-0.2c-0.4,0-0.8-0.1-1.1,0c-0.3,0.1-0.5,0-0.7-0.2c-0.8-0.8-1.8-1.5-2.1-2.6c-0.2-0.8-0.2-1.7-0.1-2.5
	c0.1-0.8,0-1.6,0.1-2.4c0-0.1,0-0.3-0.1-0.3c-0.5-0.4-0.5-1-0.5-1.5c0-0.4,0.7-0.5,1.1-0.2c1.1,0.8,1.4,1.9,1.2,3.2
	c-0.1,0.9-0.4,1.8-0.2,2.7c0.4,1.3,1.8,2,3.1,1.9c0.8-0.1,1.3-0.6,2-1c0.8-0.6,1.6-1.3,2.7-1.4c0.1,0,0.3-0.1,0.3,0.1
	c0.1,0.1-0.1,0.2-0.2,0.2c-0.4,0.4-0.8,0.7-1.1,1.1c-0.2,0.2-0.3,0.2,0,0.6C26.1,40.1,26.3,39.7,26.6,39.8z"/>
<path class="st0" d="M16.3,29.1c0.5,0,0.7,0.3,0.9,0.6c0.2,0.3,0,0.6-0.1,0.8c-0.5,0.5-0.5,1.1-0.6,1.6c-0.2,1.5-0.7,2.8-1.5,4
	c-0.5,0.7-1,1.3-1.8,1.8c-0.3,0.2-0.5,0.3-0.8,0c-0.4-0.3-0.8-0.4-1.3-0.3c-0.4,0.1-0.7-0.3-0.7-0.7c0-0.1,0-0.1,0-0.2
	c-0.3-0.8-0.2-0.9,0.4-1.3c0.3-0.2,0.5-0.4,0.7-0.6c0.3-0.3,0.7-0.5,1.1-0.6c0.9-0.2,1.4-0.9,1.8-1.7c0.3-0.5,0.5-1.1,0.7-1.7
	c0.2-0.4,0-0.9,0.3-1.3C15.7,29.3,15.9,29.1,16.3,29.1L16.3,29.1z"/>
<path class="st0" d="M25.7,17.2c-1.3-0.1-2.6-0.2-3.9-0.4c-0.5-0.1-0.9-0.2-1.4,0.2c-0.2,0.2-0.5,0-0.7-0.2
	c-0.4-0.6-0.9-1.1-1.2-1.7c-0.2-0.3-0.4-0.7-0.6-1c-0.1-0.1-0.1-0.3,0-0.5c0.1-0.2,0.2,0,0.4,0c0.6,0,1,0.6,1.5,0.5
	c0.1,0,0.2,0,0.3,0c1.5-0.1,2.9,0.4,4.3,0.5c0.6,0,1.2,0.2,1.7,0.3c0.4,0.1,0.7,0.4,0.8,0.8c0,0.3,0.5,0.6,0.2,0.9
	c-0.2,0.2-0.6,0.2-0.9,0.4C26.1,17.2,25.9,17.2,25.7,17.2C25.7,17.2,25.7,17.2,25.7,17.2L25.7,17.2z"/>
<path class="st0" d="M24.9,33.6c1-1,1.8-0.5,2.6-0.1c0.2,0.1,0.3,0.2,0.3,0.4c0.2,0.9,1,1.4,1.4,2.1c0.3,0.5,0.4,1.5,0,1.9
	c-0.4,0.4-1,0.4-1.3-0.1c-0.4-0.8-0.9-1.5-1.4-2.3C26.2,34.7,26,33.8,24.9,33.6z"/>
<path class="st0" d="M37.5,3.4c1.1,0.7,2.2,1.4,2.7,2.7c0.2,0.4,0.1,1.4-0.3,1.6c-0.3,0.2-0.7,0.2-0.8,0.7c0,0.1-0.1,0.1-0.2,0
	C38.9,8,38.7,7.9,38.4,8c-0.1,0.1-0.1-0.1-0.2-0.2c-0.4-0.7-0.4-1.5-0.8-2.2c-0.1-0.2-0.2-0.3-0.4-0.5c-0.3-0.2-0.5-0.8-0.3-1.2
	c0.1-0.2,0.3-0.3,0.4-0.2C37.5,3.9,37.5,3.6,37.5,3.4L37.5,3.4z"/>
<path class="st0" d="M20.7,33.4c0.2-0.2,0.3-0.4,0.3-0.7c0-0.3,0.3-0.7,0.5-0.8c0.4-0.1,0.7,0.2,1,0.4c0.5,0.4,0.6,1,0.9,1.6
	c0.2,0.4,0.3,0.8,0.6,1.2c0.2,0.2,0.3,0.5,0.1,0.8c-0.1,0.2-0.4,0.2-0.5,0.1c-0.5-0.4-1.1-0.7-1.4-1.4c0-0.1,0-0.2-0.1-0.2
	C21.5,34.2,21.3,33.5,20.7,33.4L20.7,33.4z"/>
</svg>
