<svg width="71" height="77" viewBox="0 0 71 77" fill="none" xmlns="http://www.w3.org/2000/svg">
<path d="M57.4826 0.0419356C58.4948 0.125536 59.5507 0.0689449 60.5546 0.373764C61.0787 0.532605 61.5822 0.800126 62.0517 1.08951C63.7655 2.14738 65.2452 3.43675 65.9879 5.38399C66.2092 5.96341 66.4246 6.55568 66.5416 7.16211C66.6407 7.67528 66.8593 8.11451 67.0992 8.55759C67.3178 8.96209 67.2992 9.31642 66.9641 9.67333C66.7037 9.95178 66.5931 10.3003 66.604 10.7119C66.622 11.3691 66.5776 12.0251 66.2645 12.6386C66.141 12.8797 66.1262 13.1749 66.0484 13.4418C65.7777 14.3717 64.8973 14.4617 64.2497 14.0849C63.8876 13.8739 63.5577 13.8392 63.2291 13.9877C62.6414 14.2533 62.015 14.1164 61.6369 13.7948C61.2414 13.4591 60.7391 13.0894 60.5977 12.5106C60.5501 12.3145 60.4002 12.236 60.2825 12.1595C59.5494 11.681 58.8909 11.1042 58.3057 10.4695C57.7051 9.81867 56.9861 9.34343 56.2884 8.82768C56.1315 8.71193 55.8935 8.59746 56.0003 8.37302C56.0961 8.1711 56.3173 8.24248 56.5276 8.27528C57.934 8.49457 59.2279 9.02961 60.534 9.56594C61.4716 9.95114 62.4214 10.299 63.3095 10.7942C63.4188 10.8553 63.5815 10.9048 63.6883 10.8688C64.1044 10.7293 64.5217 10.6045 64.9558 10.5351C65.1513 10.5035 65.1616 10.3646 65.1744 10.2039C65.2593 9.13829 64.9931 8.15695 64.5339 7.20133C63.6555 5.37435 62.1012 4.56728 60.1989 4.32677C58.2749 4.08369 56.5508 4.71969 55.0427 5.84379C54.181 6.48623 53.7862 7.50358 53.599 8.56852C53.5566 8.81096 53.5122 9.05469 53.5013 9.2997C53.4338 10.8611 53.7244 12.3678 54.1694 13.8591C54.3868 14.5865 54.6087 15.3221 54.8865 16.0167C55.1482 16.67 55.3945 17.3375 55.6877 17.9826C56.0697 18.8231 56.4254 19.6777 56.754 20.5401C57.1643 21.6166 57.725 22.6217 58.1803 23.677C58.788 25.0847 59.5102 26.439 60.1777 27.8178C60.57 28.6281 60.8768 29.4937 61.2838 30.2975C61.7481 31.2139 62.2195 32.1322 62.6021 33.0776C63.0877 34.2769 63.8446 35.3579 64.2278 36.5746C64.6446 37.9 65.2761 39.1334 65.6889 40.4556C66.0233 41.5263 66.5429 42.5405 66.8612 43.615C67.242 44.8986 67.8252 46.1095 68.1288 47.4208C68.3333 48.3037 68.721 49.1455 68.9082 50.0304C69.1609 51.2265 69.4689 52.4104 69.6914 53.6162C69.8651 54.5603 69.8541 55.5133 70.0278 56.4541C70.1332 57.0245 70.0239 57.6445 69.9512 58.2348C69.8413 59.1293 69.739 60.0277 69.4638 60.8952C68.8246 62.9061 68.157 64.9119 66.896 66.6328C65.6368 68.3517 63.9629 69.5684 61.9726 70.3279C60.534 70.8771 59.015 70.9575 57.4967 71.088C56.343 71.1871 55.1765 71.2694 54.0485 71.6231C53.6228 71.7562 53.1476 71.7845 52.6987 71.8475C51.7322 71.9832 50.7598 72.1247 49.8325 72.389C48.5251 72.7613 47.167 72.9041 45.8789 73.3787C45.1689 73.6404 44.4165 73.8372 43.657 73.9902C43.0017 74.1221 42.4056 74.5227 41.7284 74.668C40.9124 74.843 40.1047 75.0558 39.2918 75.2468C38.605 75.4076 37.9195 75.5754 37.2282 75.713C36.1967 75.9182 35.16 76.0725 34.1099 76.1793C33.306 76.2609 32.5009 76.3111 31.6983 76.3883C31.2874 76.4275 30.8797 76.4307 30.4739 76.4211C29.6295 76.4018 28.7787 76.4925 27.9505 76.45C27.173 76.4101 26.3717 76.3638 25.5846 76.1851C24.6605 75.9754 23.6926 75.9658 22.7447 75.8558C21.8656 75.7542 21.0129 75.5323 20.1531 75.3259C18.9814 75.0449 17.9377 74.4886 16.9229 73.9079C15.4747 73.0784 14.0252 72.198 12.8651 70.9832C11.4716 69.5234 10.1938 67.9331 9.45229 66.0353C8.95519 64.7627 8.47995 63.4682 8.26774 62.0862C8.13141 61.1968 7.85102 60.2997 7.17 59.6084C6.80473 59.2374 6.34365 59.056 5.87163 58.9435C5.60668 58.8805 5.63883 58.7499 5.5906 58.5801C5.52179 58.339 5.67227 58.3068 5.83175 58.2419C6.48834 57.9763 7.0774 58.083 7.7044 58.4161C8.93268 59.0682 9.69666 60.1158 10.2568 61.3158C10.561 61.9672 10.6568 62.7132 10.8966 63.3994C11.3693 64.7524 11.8034 66.0939 12.5712 67.3588C13.5603 68.989 14.7982 70.3279 16.2471 71.4925C17.2631 72.3092 18.4515 72.8822 19.6284 73.4449C20.885 74.0449 22.2142 74.3606 23.5897 74.6211C24.6765 74.8269 25.7762 74.7889 26.8592 75.023C27.5717 75.1767 28.3659 75.1021 29.1157 75.1741C29.5414 75.2153 29.9627 75.2224 30.3864 75.2365C31.016 75.2578 31.6424 75.1619 32.2456 75.0359C33.1446 74.8481 34.0578 74.8661 34.9568 74.724C35.9362 74.5696 36.8848 74.2944 37.8436 74.0591C38.5773 73.879 39.3092 73.6861 40.032 73.4668C40.6088 73.2912 41.1754 73.0796 41.7381 72.8616C43.2551 72.2751 44.7515 71.6289 46.2879 71.0996C47.32 70.744 48.3238 70.279 49.3798 70.0276C50.5913 69.7395 51.7521 69.2739 52.9611 69.0244C53.9045 68.8295 54.7681 68.398 55.6987 68.236C56.7334 68.0559 57.7327 67.7543 58.7321 67.4688C59.8793 67.1414 61.1153 67.1755 62.1964 66.5942C62.4832 66.4398 62.7063 66.173 63.051 66.1183C63.0896 66.1119 63.1481 65.9755 63.1404 65.9691C63.0664 65.9087 62.9841 65.8296 62.8973 65.8199C62.4992 65.7756 62.1333 65.6006 61.7603 65.5183C61.2369 65.4032 60.9102 65.0656 60.516 64.7949C59.6858 64.2232 59.0646 63.4939 58.8363 62.4881C58.7102 61.9319 58.788 61.3634 58.7906 60.8013C58.7957 59.8303 58.6986 58.8509 58.9925 57.8991C59.1758 57.3049 59.9565 56.4451 60.7321 56.4207C61.0671 56.4097 61.2986 56.1853 61.5957 56.094C62.4748 55.8245 63.3288 56.22 64.2047 56.1223C64.9352 56.0413 65.6773 56.0966 66.3957 56.3699C66.8908 56.5583 67.141 56.3146 67.1712 55.7512C67.2137 54.957 66.8825 54.2374 66.7172 53.4863C66.5764 52.8484 66.3648 52.2259 66.1744 51.5995C65.8143 50.413 65.442 49.2304 65.0838 48.0439C64.5577 46.3018 63.833 44.6343 63.1494 42.9533C62.7243 41.9083 62.1931 40.9 61.8324 39.8312C61.2472 38.0994 60.1269 36.6068 59.5803 34.8865C59.2157 33.7406 58.5887 32.7599 58.1154 31.6891C57.6144 30.5548 57.0967 29.4152 56.4434 28.367C56.1559 27.9059 55.9977 27.4185 55.7971 26.9445C55.534 26.3239 54.9842 25.9194 54.7193 25.3072C54.3759 24.513 53.9128 23.7773 53.5836 22.9696C53.2395 22.1253 52.7707 21.3324 52.3695 20.5105C51.7219 19.1845 51.1592 17.825 50.7032 16.4192C50.4968 15.7826 50.2692 15.153 50.0614 14.5164C49.7817 13.6598 49.6582 12.7678 49.3959 11.9145C49.1766 11.2013 49.1791 10.472 49.1412 9.75886C49.057 8.1666 49.0435 6.55182 49.6518 5.03673C50.1663 3.75572 50.8794 2.56602 51.8717 1.60012C52.4293 1.058 53.2022 0.809129 53.9405 0.538393C55.0826 0.119105 56.2704 0.115247 57.4807 0.0406494L57.4826 0.0419356ZM60.2793 60.6026C60.1848 61.0399 60.3192 61.6315 60.4009 62.2161C60.4729 62.7351 60.5829 63.274 61.044 63.6508C61.896 64.3473 62.7552 64.883 63.9642 64.6379C64.4118 64.5473 64.732 64.4296 64.9738 64.0804C65.1597 63.8122 65.3172 63.5241 65.4863 63.2444C66.3288 61.8521 66.6034 60.2566 67.0953 58.7396C67.1403 58.6007 67.1461 58.4586 67.0014 58.3917C66.3764 58.1043 65.8098 57.6078 65.1333 57.5358C64.1397 57.4297 63.1282 57.2708 62.1243 57.501C61.4356 57.6586 60.8896 57.9904 60.5494 58.6554C60.2543 59.2329 60.2851 59.8329 60.2793 60.6026Z" fill="#696969"/>
<path d="M27.6117 58.6593C28.0991 59.0297 28.6786 59.1621 29.1763 59.474C30.2631 60.1557 30.9332 61.1004 31.1602 62.3647C31.33 63.3094 31.7377 64.2161 31.6457 65.2026C31.5988 65.7074 31.4882 66.1974 31.1744 66.6231C31.1068 66.7151 31.0612 66.7961 30.9557 66.7485C30.2258 66.4161 29.7358 66.9678 29.1699 67.2302C29.0612 67.2804 28.9487 67.3653 28.847 67.2945C28.449 67.0174 27.9905 67.1241 27.5828 67.1569C27.1197 67.1942 26.6799 67.0874 26.2908 66.9601C25.332 66.6463 24.3577 66.5756 23.3712 66.5479C23.1391 66.5415 22.914 66.4534 22.795 66.3318C22.6323 66.1659 22.4896 66.0797 22.2664 66.0514C22.1217 66.0328 21.9629 65.9215 21.9976 65.7505C22.0227 65.6277 22.0966 65.5164 22.2909 65.4797C23.1384 65.3215 23.9738 65.0933 24.8233 64.9499C25.2001 64.8862 25.5686 64.836 25.9976 64.9769C26.9963 65.3048 28.0406 65.5267 29.0895 65.0778C29.4361 64.9293 29.5834 64.6302 29.5364 64.3293C29.3827 63.3486 29.0528 62.4161 28.4548 61.6136C27.7377 60.6515 26.6831 60.2824 25.5474 60.1692C25.2014 60.1345 24.8934 59.9621 24.669 59.8335C24.2201 59.5769 23.7088 59.5647 23.2748 59.3075C22.9185 59.0965 22.7925 58.7744 23.0979 58.494C23.4111 58.2072 23.6214 57.8972 23.741 57.4831C23.8375 57.1499 24.1095 57.0008 24.505 56.9924C26.0677 56.9602 27.6348 56.8837 29.1692 56.5872C30.0245 56.422 30.8657 56.1448 31.6792 55.7879C32.3628 55.4876 32.4599 54.9275 32.4335 54.3378C32.3859 53.2799 31.7364 52.5809 30.7088 52.3641C29.7692 52.1661 28.8175 52.0323 27.8747 51.869C26.2619 51.5892 24.703 51.7963 23.1146 51.9545C21.97 52.0683 20.8761 52.3873 19.7758 52.6529C19.0021 52.8394 18.2279 53.1127 17.4671 53.3976C16.6806 53.6921 15.8099 53.7751 14.9688 53.9043C13.5302 54.1249 12.1334 53.9326 10.7302 53.5378C9.91995 53.3095 9.06143 53.2625 8.32189 52.7957C8.1264 52.6722 7.90389 52.7481 7.81643 52.9307C7.61065 53.3603 7.24088 53.0902 7.17721 52.9764C6.55021 51.8471 5.32129 51.5217 4.37017 50.8388C3.46665 50.1899 2.83579 49.287 2.39528 48.3635C2.02744 47.5931 1.75413 46.7038 1.58307 45.8099C1.40558 44.8826 1.12069 43.9694 1.00044 43.0286C0.847386 41.8312 0.781792 40.6292 0.869251 39.4164C0.925199 38.6408 0.981147 37.864 1.13934 37.1084C1.3805 35.9541 1.65381 34.8036 2.07245 33.6949C2.42936 32.7502 2.73997 31.7875 3.11681 30.8512C3.94381 28.7972 4.85763 26.7882 6.08462 24.9285C6.92513 23.6545 7.82672 22.4462 9.02671 21.4931C10.1064 20.6359 11.282 19.9362 12.5501 19.38C13.2099 19.0906 13.8395 18.7356 14.5379 18.5324C15.4607 18.2636 16.408 18.2578 17.3462 18.3292C18.1346 18.3896 18.9256 18.4938 19.7128 18.5658C20.7944 18.6649 21.7873 19.0642 22.8278 19.2932C24.4844 19.6578 25.8516 20.6295 27.2117 21.5375C28.431 22.351 29.4972 23.3831 30.4367 24.5593C31.1756 25.4841 31.9763 26.3831 32.8296 27.2223C33.6406 28.0197 34.3383 28.9162 34.9962 29.8435C35.2868 30.2538 35.3286 30.7612 35.5556 31.2049C36.1203 32.3084 36.5563 33.4705 36.9466 34.6505C37.1248 35.1901 37.3826 35.7116 37.7543 36.1592C38.8199 37.4428 40.5807 37.2241 41.2353 35.5251C41.5652 34.6692 41.6707 33.8171 41.2617 32.9464C41.1601 32.7303 41.1749 32.4628 41.1112 32.2261C40.9517 31.6332 40.7562 31.4975 40.2038 31.7573C39.7569 31.9676 39.4495 31.7586 39.1087 31.5837C38.991 31.5232 38.9183 31.4043 38.9389 31.2506C38.9595 31.0949 39.0746 31.0937 39.1903 31.066C39.7305 30.9368 40.0739 30.639 40.1459 30.0461C40.2064 29.5477 40.5942 29.1799 40.9048 29.313C41.1594 29.4217 41.4926 29.6088 41.5639 29.8339C41.7903 30.5419 42.3813 31.0808 42.4688 31.8364C42.5247 32.3168 42.7273 32.7123 43.0482 33.0589C43.1974 33.2203 43.1093 33.4075 43.0855 33.5779C43.0218 34.0351 42.926 34.4872 43.1581 34.9309C43.1986 35.0081 43.1903 35.1341 43.1601 35.2222C43.0031 35.6782 43.0121 36.1791 42.8784 36.6139C42.7189 37.1309 42.4231 37.6447 41.9794 38.0434C41.3819 38.5804 40.7659 38.9135 39.9093 38.8672C39.0919 38.8228 38.4366 38.5495 37.8212 38.0415C36.9415 37.3148 36.4045 36.3907 36.0315 35.3271C35.2778 33.1766 34.4367 31.0525 33.1795 29.1426C32.8065 28.576 32.3222 28.039 31.7409 27.6011C31.1834 27.1812 30.7441 26.6043 30.2554 26.095C29.103 24.8937 28.0709 23.5722 26.7416 22.5478C25.8284 21.8443 24.8098 21.3105 23.7924 20.7787C23.2529 20.4964 22.6368 20.5304 22.0593 20.4089C21.0832 20.2031 20.1005 20.0436 19.0896 20.0243C17.1012 19.9858 15.1623 19.9723 13.3514 21.0565C12.1296 21.7877 10.8595 22.4436 9.873 23.4764C9.08651 24.3002 8.39906 25.2133 7.79071 26.1966C6.44796 28.3683 5.27756 30.6255 4.3348 32.9888C3.62935 34.7573 2.95025 36.5508 2.80428 38.4884C2.76891 38.9572 2.46795 39.4434 2.5464 39.8755C2.75026 41.0003 2.49431 42.1829 2.92517 43.2575C3.21006 43.9687 3.04736 44.7539 3.32646 45.4125C3.77854 46.4787 3.81069 47.8111 4.94637 48.4915C5.71421 48.952 6.39073 49.5359 6.86661 50.2388C7.2756 50.8426 7.77271 51.2445 8.37334 51.5236C10.3592 52.4445 12.453 52.8272 14.5971 52.2812C15.6581 52.0111 16.6832 51.5455 17.7494 51.2825C19.2015 50.9236 20.6259 50.4497 22.1339 50.287C23.2638 50.1655 24.3796 49.9134 25.5255 49.9275C26.7699 49.9423 27.9975 50.0986 29.229 50.2819C29.9165 50.3841 30.5988 50.5198 31.285 50.6253C32.1666 50.7603 32.9685 51.1211 33.6721 51.6825C33.9235 51.8831 34.0541 52.1847 34.2187 52.4387C34.4618 52.8143 34.8058 53.1256 34.9827 53.5281C35.0971 53.7886 35.2135 54.1365 34.9094 54.3969C34.546 54.7082 34.5557 55.1654 34.4553 55.5731C34.3203 56.1223 34.0097 56.557 33.7287 57.0342C33.2817 57.7924 32.6213 57.8818 31.8901 58.0368C30.8567 58.2554 29.8187 58.3589 28.7692 58.4046C28.375 58.422 28.0278 58.6811 27.6091 58.6605L27.6117 58.6593Z" fill="#696969"/>
<path d="M53.9978 57.9712C53.945 55.9274 53.354 54.0059 52.455 52.213C51.7348 50.7764 51.2499 49.2684 50.6865 47.7803C50.0563 46.1147 49.4718 44.4369 48.9959 42.7199C48.837 42.1469 48.5316 41.626 48.4814 41.0093C48.3226 39.0543 48.4988 38.4254 49.7624 36.9489C50.0595 36.6023 50.2557 36.1682 50.6576 35.911C50.8107 35.8126 51.0711 35.6274 51.1213 35.6936C51.2479 35.8602 51.4299 36.0473 51.3971 36.2968C51.3129 36.9399 51.3438 37.5965 51.4286 38.2203C51.5721 39.273 51.2319 40.2608 51.1881 41.2839C51.1508 42.1501 51.565 42.8729 51.7759 43.6575C52.1508 45.0511 52.7405 46.3739 53.2531 47.7198C53.927 49.4896 54.7392 51.2092 55.363 52.995C55.9598 54.7037 56.327 56.5049 56.154 58.3158C55.9997 59.9319 55.6325 61.5158 54.8929 63.0206C54.4248 63.9724 53.781 64.719 53.0543 65.4251C52.6955 65.7736 52.2138 65.9955 51.7393 66.1646C51.4254 66.2765 51.1695 66.4842 50.8621 66.5929C50.7759 66.6231 50.7148 66.6791 50.7078 66.7678C50.6897 66.9852 50.6962 67.2302 50.4158 67.2701C50.1528 67.308 49.8666 67.317 49.6582 67.1151C49.1631 66.636 48.5534 66.4038 47.9219 66.1582C47.2435 65.8939 46.9965 65.2289 46.92 64.5389C46.884 64.2155 46.8885 63.8798 47.0139 63.5595C47.1773 63.1422 47.1027 62.7087 47.0113 62.2984C46.6686 60.7576 46.8602 59.1981 46.8152 57.6477C46.7792 56.3963 46.6924 55.1622 46.457 53.9165C46.1805 52.4529 45.8699 50.9995 45.4795 49.568C45.2821 48.842 44.9901 48.1031 44.322 47.6131C44.1998 47.5237 44.1123 47.424 43.9458 47.4221C43.758 47.4202 43.641 47.3211 43.6217 47.1173C43.6037 46.9276 43.7239 46.88 43.8628 46.7977C44.2037 46.5951 44.5381 46.5893 44.9053 46.7057C45.122 46.7745 45.34 46.8395 45.5811 46.8369C46.2949 46.8292 46.4885 46.9964 46.6576 47.698C46.7451 48.0607 46.7753 48.4291 46.9869 48.7668C47.457 49.5185 47.4158 50.413 47.6094 51.2433C47.8461 52.258 48.0126 53.2876 48.2473 54.3043C48.3695 54.8323 48.4994 55.3808 48.4338 55.9557C48.3946 56.2985 48.5393 56.6612 48.5933 57.0162C48.7779 58.229 48.7341 59.4567 48.8248 60.674C48.9194 61.9428 48.9496 63.2354 49.4229 64.445C49.5341 64.7286 49.8383 64.7666 50.0988 64.6753C51.275 64.265 52.2531 63.6894 52.8711 62.4721C53.5225 61.1878 53.7444 59.8367 53.9932 58.4689C54.0222 58.3081 53.9971 58.1377 53.9971 57.9712H53.9978Z" fill="#696969"/>
<path d="M15.5854 42.1739C15.6818 41.8086 15.4632 41.4176 15.3924 41.0029C15.3686 40.8659 15.2934 40.8421 15.1911 40.8459C14.2169 40.8852 13.2388 40.8916 12.2934 41.1829C12.1095 41.2395 12.004 41.3057 11.9661 41.5366C11.8992 41.9418 11.7147 41.9327 11.3571 41.7643C10.8484 41.5244 10.6504 40.8922 10.0298 40.8074C9.71082 40.7636 9.40215 40.5855 9.37899 41.1302C9.37256 41.2787 9.23816 41.4498 9.04395 41.4305C8.80987 41.4074 8.88189 41.1861 8.91405 41.08C9.04588 40.6459 8.75778 40.2234 8.90119 39.7932C8.9327 39.6987 8.80408 39.6807 8.76292 39.6254C8.66518 39.4942 8.6491 39.3476 8.85424 39.2775C9.44845 39.0736 10.0542 39.0762 10.6581 39.2106C10.9635 39.2781 11.2497 39.181 11.5314 39.1347C12.5796 38.963 13.6252 38.8338 14.6921 38.8479C15.8381 38.8633 16.9397 38.5553 18.0541 38.3206C19.1937 38.0807 20.3364 37.8125 21.528 38.0067C22.6811 38.1945 23.5042 38.7997 24.0431 39.8144C24.1139 39.9476 23.9672 40.1141 23.9621 40.1694C23.8965 40.936 23.2431 40.9437 22.7628 41.1424C21.8734 41.5109 21.2438 42.1495 20.7853 42.9668C20.5229 43.4337 20.1184 43.6125 19.638 43.5482C19.1641 43.4845 18.8233 43.7173 18.5654 44.0002C18.1647 44.4395 17.676 44.5076 17.1506 44.5334C16.4387 44.5674 16.0921 44.9224 16.0818 45.6298C16.0625 46.997 15.6625 48.2407 14.7294 49.251C14.015 50.024 13.1236 50.6015 12.2407 51.1654C11.8786 51.3969 11.3983 51.1674 11.2246 50.8896C10.9809 50.4979 10.6098 50.4516 10.2877 50.3416C9.17514 49.9622 8.17708 49.404 7.27741 48.6568C7.11278 48.5198 7.04333 48.3899 7.11021 48.1507C7.19446 47.8504 7.34815 47.8105 7.54879 47.9713C8.16743 48.4677 8.92498 48.6291 9.64716 48.8716C10.4851 49.1532 11.3539 49.0375 12.213 49.0227C12.278 49.0214 12.3629 49.0201 12.404 48.9815C13.3513 48.096 14.3899 47.2626 14.3944 45.7912C14.395 45.5044 14.4207 45.2324 14.0362 45.0774C13.7757 44.9719 14.0053 44.6247 13.9751 44.3867C13.914 43.9096 13.7867 43.6826 13.3056 43.633C12.5513 43.5552 12.3262 43.3642 12.2683 42.8331C12.251 42.6729 12.2536 42.6671 12.406 42.644C12.8304 42.5803 13.2516 42.5109 13.6831 42.5405C13.7326 42.5437 13.7905 42.5565 13.8317 42.5372C14.4085 42.262 14.9101 42.2016 15.1654 42.9572C15.2111 43.0916 15.3641 43.0858 15.4683 43.0761C15.6387 43.0601 15.5796 42.9025 15.5841 42.7983C15.5918 42.6157 15.586 42.4331 15.586 42.1745L15.5854 42.1739ZM16.1345 43.5199C16.5815 43.3231 17.0323 43.1745 17.4966 43.125C17.9596 43.0755 18.3879 42.7302 18.9049 43.0125C19.1274 43.134 19.3281 43.0588 19.4059 42.662C19.5435 41.9604 19.7467 41.2453 20.3293 40.7321C20.5281 40.5572 20.5943 40.3128 20.3493 40.1572C20.0728 39.9823 19.7564 39.9116 19.4014 39.9894C18.4644 40.1945 17.5197 40.3643 16.577 40.5431C16.4632 40.5649 16.3281 40.5456 16.2857 40.6813C16.2445 40.8131 16.287 40.9334 16.3828 41.0453C16.5345 41.2234 16.6992 41.2196 16.9152 41.1758C17.2387 41.1103 17.5512 41.2164 17.7705 41.4594C17.9172 41.6215 17.8348 41.8967 17.7352 42.0157C17.5101 42.2845 17.3152 42.6022 16.959 42.7469C16.5976 42.8935 16.3564 43.19 16.1352 43.5199H16.1345Z" fill="#696969"/>
<path d="M21.3472 36.7515C21.2018 36.7515 21.0469 36.7843 20.9118 36.7463C19.4591 36.3386 18.0469 36.9277 16.6103 36.9161C16.1517 36.9122 15.7003 37.0511 15.2328 37.0691C14.5903 37.0942 13.9318 37.1907 13.6135 37.8846C13.4952 38.1418 13.346 38.0659 13.1814 37.9694C12.8991 37.8048 12.6245 37.6164 12.3692 37.4235C11.982 37.1309 11.5827 36.9071 11.1203 36.7772C10.8489 36.7007 10.6084 36.563 10.3917 36.3785C10.2373 36.2466 10.2644 36.1161 10.3808 35.9965C10.4811 35.8929 10.4856 35.6338 10.7267 35.736C11.5981 36.1058 12.3955 35.6087 13.2283 35.5322C13.7859 35.4814 14.308 35.2389 14.8804 35.2524C15.1498 35.2589 15.3678 35.1875 15.209 34.7991C14.9916 34.2685 14.8643 33.7065 14.8875 33.1238C14.8984 32.8486 14.7858 32.7271 14.5016 32.7611C13.8823 32.8357 13.274 32.9702 12.645 33.0094C11.5029 33.0808 10.3795 33.1766 9.3261 32.5676C8.87273 32.3058 8.60135 31.9882 8.60907 31.4409C8.61614 30.9252 8.4438 30.4326 8.33319 29.9329C8.30168 29.7895 8.24509 29.5966 8.35634 29.5033C8.51389 29.3715 8.59685 29.6146 8.72354 29.6544C9.49459 29.8937 9.72481 30.6036 10.0746 31.2004C10.3312 31.6383 10.6058 31.8878 11.1878 31.8936C12.2939 31.9046 13.346 31.628 14.4199 31.4686C14.6894 31.4287 14.6932 31.2313 14.6894 31.019C14.6752 30.2737 14.4276 29.5515 14.4868 28.7966C14.5151 28.4364 14.4341 28.0718 14.4135 27.7149C14.3749 27.0403 14.0585 26.5921 13.5627 26.1902C13.1479 25.8532 13.3222 25.4159 13.7711 25.1645C14.3704 24.8288 15.027 25.0532 15.3968 25.2641C15.9749 25.594 16.5485 26.0487 17.0508 26.5406C17.1794 26.6667 17.1543 26.7123 17.0077 26.7792C16.6996 26.9201 16.6701 27.1895 16.6771 27.4905C16.6984 28.4184 16.6919 29.3464 16.7652 30.2737C16.7935 30.6364 16.9382 30.5908 17.1749 30.4821C18.2733 29.9779 19.4134 29.6821 20.6366 29.758C20.8726 29.7728 21.0906 29.8287 21.3067 29.9039C21.4912 29.9683 21.6713 30.0493 21.4597 30.2853C21.4186 30.331 21.3858 30.401 21.3826 30.4615C21.3723 30.6596 21.6153 30.9528 21.5112 30.994C21.1665 31.1309 20.8546 31.3708 20.4655 31.3972C19.9697 31.4306 19.4752 31.5033 18.9794 31.5059C18.3434 31.5097 17.7627 31.7425 17.1588 31.8776C16.9633 31.9213 16.9787 32.0911 16.9781 32.2396C16.9762 33.0537 16.9897 33.8679 16.9697 34.682C16.9627 34.9669 17.1125 34.9888 17.3054 34.9541C18.034 34.8222 18.7626 34.7122 19.508 34.7586C19.9601 34.7868 20.4289 34.7219 20.78 35.1187C20.8925 35.2454 21.0777 35.392 21.0115 35.5309C20.7691 36.0396 21.0436 36.3521 21.3459 36.7495L21.3472 36.7515Z" fill="#696969"/>
<path d="M33.5032 47.9282C33.5533 47.9282 33.6093 47.9127 33.6517 47.9307C33.8157 48.0015 34.116 47.7578 34.1431 48.06C34.163 48.2806 33.9238 48.4542 33.6948 48.5185C33.309 48.6266 32.8003 48.5996 32.5939 48.9372C32.3399 49.3513 32.0312 49.2979 31.6678 49.323C30.8717 49.3777 30.3785 48.8542 29.8634 48.4021C29.2749 47.8851 28.8531 47.197 28.2171 46.7218C28.0203 46.5745 27.8119 46.4427 27.6119 46.2993C27.4685 46.1957 27.3489 46.2671 27.2576 46.3623C26.8756 46.761 26.4499 47.1031 26.1155 47.5661C25.7432 48.0819 25.1264 48.3809 24.5213 48.6053C24.2609 48.7018 23.965 48.4587 23.8293 48.323C23.1908 47.6819 22.3631 47.7906 21.6011 47.6047C21.021 47.4632 20.4281 47.4832 19.8551 47.3333C19.6204 47.2722 19.5805 47.1449 19.5747 46.943C19.5657 46.6594 19.7799 46.7333 19.9226 46.7218C20.7754 46.6542 21.6493 46.6883 22.4776 46.5108C23.3676 46.3205 24.2834 46.4362 25.1612 46.1649C25.5271 46.0517 25.6634 45.7604 25.8782 45.5243C25.9721 45.4208 25.9239 45.2909 25.7875 45.2504C25.1406 45.0588 24.5149 44.9166 23.8023 45.0253C23.2249 45.1134 22.5554 45.0748 22.0371 44.6414C21.8197 44.4594 21.3869 44.4652 21.5297 43.9668C21.6152 43.6678 21.7934 43.5006 22.0956 43.6073C22.4956 43.7482 22.9355 43.6324 23.2577 43.5006C23.931 43.2253 24.5245 43.4961 25.1303 43.5996C25.639 43.6864 26.1779 43.7038 26.6557 43.9527C26.8177 44.0369 26.9573 44.0729 26.9837 43.7977C26.9991 43.6408 27.1193 43.4974 27.1566 43.3392C27.1927 43.1887 27.3746 43.0151 27.219 42.8864C27.082 42.7739 26.8628 42.799 26.7052 42.9089C26.3644 43.1475 25.9811 43.0729 25.6467 42.9861C25.2782 42.8909 24.8898 42.9038 24.5367 42.7578C24.3875 42.6961 24.138 42.8382 24.093 42.6459C24.0351 42.3977 23.9953 42.1115 24.1316 41.8672C24.3027 41.561 24.5451 41.3064 24.8345 41.1109C25.0043 40.9958 25.2036 40.9855 25.3888 41.1212C25.5219 41.2189 25.4981 41.5225 25.7644 41.4356C26.0145 41.3546 26.3187 41.2453 26.3991 41.0106C26.4911 40.7418 26.639 40.7508 26.8357 40.7488C27.2036 40.745 27.4119 40.4517 27.648 40.2492C28.0203 39.9296 28.3547 39.9566 28.8196 40.0517C29.4737 40.1855 29.9058 40.6884 30.5322 40.8562C31.0916 41.0067 31.1186 41.6742 30.5611 42.1829C29.7682 42.907 29.3097 43.8832 28.5849 44.6536C28.4004 44.8498 28.6132 44.9269 28.7315 45.0343C29.3823 45.624 30.2222 46.0073 30.763 46.698C31.4813 47.6156 32.4473 47.8388 33.5038 47.9256L33.5032 47.9282Z" fill="#696969"/>
<path d="M36.3749 58.5898C36.5485 57.4965 36.5749 56.2837 37.2643 55.276C37.7672 54.5416 38.3923 53.9172 39.1054 53.35C39.4411 53.0831 39.7627 52.9603 40.1241 52.8323C40.2012 52.8053 40.2623 52.7828 40.3241 52.7127C40.6713 52.3172 40.6713 52.323 40.8533 52.75C40.8823 52.8181 40.9691 52.9069 41.0314 52.9088C41.4655 52.9217 41.8051 53.2696 42.2533 53.2348C42.7555 53.1963 43.4893 53.5564 43.87 54.0413C44.4874 54.8271 44.8179 55.84 45.7111 56.411C45.7709 56.449 45.8166 56.5403 45.8301 56.6136C45.9317 57.1705 46.1504 57.7448 46.0841 58.2837C46.0153 58.8431 46.1626 59.4438 45.8455 59.9885C45.7697 60.1184 45.7381 60.2991 45.6288 60.4444C45.4436 60.6914 45.2848 60.9576 45.1266 61.2245C44.5304 62.2283 43.8333 63.0547 42.551 63.3305C41.0758 63.6476 39.7221 63.6 38.4328 62.7987C37.6405 62.3068 37.2566 61.5042 36.9505 60.6766C36.7074 60.0193 36.4392 59.3621 36.3743 58.5891L36.3749 58.5898ZM38.3324 57.8895C38.2611 58.8785 38.6405 59.8817 39.126 60.8714C39.4701 61.5717 40.2231 62.1325 40.9909 62.0592C43.4398 61.8264 44.2591 59.8187 43.9137 57.8078C43.7735 56.993 43.0752 56.4117 42.8597 55.6085C42.8089 55.4187 42.5877 55.3114 42.4121 55.238C41.9748 55.0541 41.5318 54.8618 41.072 54.7577C40.5999 54.6509 40.0926 54.3885 39.6392 54.8522C38.8476 55.6612 38.2791 56.5654 38.3324 57.8895Z" fill="#696969"/>
<path d="M59.8885 48.2214C59.8885 47.4902 59.8609 46.7578 59.8982 46.0292C59.9232 45.5469 59.7155 45.1224 59.6628 44.6626C59.6448 44.5083 59.5361 44.3514 59.3355 44.3359C59.1509 44.3211 59.0461 44.3887 58.9612 44.5771C58.5715 45.4382 58.1882 46.3018 57.7348 47.1346C57.5297 47.5115 57.6075 47.9963 57.7573 48.3899C57.9168 48.8098 57.9503 49.2491 58.077 49.6709C58.1245 49.8298 58.1464 50.0439 57.9528 50.1674C57.54 50.431 57.4184 50.8336 57.4101 51.2908C57.4075 51.4162 57.3766 51.5481 57.2532 51.568C57.131 51.5879 57.0557 51.4715 57.0043 51.3603C56.9155 51.1667 56.803 50.9815 56.7348 50.7809C56.502 50.0941 56.1696 49.4664 55.686 48.9224C55.6005 48.8259 55.585 48.7224 55.6628 48.606C56.0281 48.0574 55.8898 47.4825 55.7683 46.8986C55.6416 46.2903 55.5734 45.6735 55.4127 45.0684C55.2152 44.3256 55.0082 43.5867 54.7863 42.8511C54.7619 42.77 54.7156 42.6781 54.6268 42.6922C54.0635 42.7797 53.7657 42.327 53.7278 41.9771C53.6744 41.4826 53.6011 40.9257 53.8378 40.435C53.9156 40.2742 54.1709 40.3161 54.2268 40.4132C54.594 41.0582 55.4262 41.0453 55.8577 41.6131C56.1953 42.0575 56.5734 42.4549 56.4879 43.0678C56.4223 43.5353 56.5914 43.9829 56.594 44.444C56.594 44.5237 56.5927 44.6324 56.7001 44.6324C56.7734 44.6324 56.8783 44.5919 56.9155 44.5346C57.0229 44.3707 57.1651 44.1797 57.0956 43.988C56.8525 43.3205 57.1246 42.7868 57.495 42.2729C57.6345 42.0787 57.7818 41.8858 58.0782 41.9488C58.3104 41.9983 58.4236 41.8331 58.5612 41.6755C58.8088 41.3913 59.0872 41.062 59.511 41.1739C59.974 41.2961 60.2435 41.7128 60.2396 42.1437C60.2338 42.7443 60.6042 43.0716 60.9374 43.4446C61.3104 43.8626 61.5605 44.3006 61.4898 44.8986C61.4377 45.3372 61.4801 45.7854 61.5534 46.2279C61.6448 46.7796 61.5419 47.3256 61.5026 47.878C61.4261 48.9655 61.4441 50.0632 61.4904 51.1532C61.5206 51.8657 61.821 52.5204 62.1502 53.1532C62.4004 53.6342 62.6627 54.1037 63.0537 54.4882C63.1412 54.5738 63.2261 54.6805 63.1483 54.793C63.0621 54.9165 62.9367 54.8053 62.8287 54.7905C61.6377 54.6297 60.994 53.7789 60.4776 52.8349C60.0981 52.1416 59.9284 51.3551 59.8949 50.5622C59.8621 49.7835 59.8879 49.0021 59.8885 48.2214Z" fill="#696969"/>
<path d="M31.0926 39.7405C30.8791 39.3829 30.7164 39.1244 30.5678 38.8582C30.4386 38.6267 30.3267 38.6588 30.2302 38.871C30.1113 39.1328 29.9428 39.336 29.6791 39.4672C29.2412 39.6858 28.9801 39.6228 28.6997 39.2074C28.3016 38.6177 28.1293 37.9006 27.656 37.3527C27.5698 37.2537 27.4901 37.1482 27.3994 37.0543C27.1814 36.8293 27.0534 36.7547 26.818 37.1161C26.4554 37.6736 25.8573 38.0582 25.5698 38.6936C25.53 38.7823 25.3653 38.8974 25.2277 38.8241C25.1177 38.7656 25.1261 38.6145 25.1493 38.509C25.2882 37.8691 25.4689 37.237 25.5814 36.5926C25.7621 35.5611 26.2476 34.6094 26.3473 33.5599C26.355 33.4775 26.3531 33.3939 26.3634 33.3123C26.4065 32.9644 26.357 32.7747 25.9074 32.8583C25.5357 32.9277 25.1415 33.0345 24.7486 32.7946C24.5467 32.6711 24.4354 32.5657 24.4702 32.3419C24.5171 32.0396 24.2374 31.7522 24.3493 31.4949C24.5184 31.1059 24.8817 31.6583 25.1351 31.403C24.9737 31.0448 24.6592 30.9213 24.3075 30.9637C23.9261 31.0101 23.6065 30.8647 23.2773 30.7406C22.8541 30.5818 22.5377 29.9818 22.6895 29.5477C22.8322 29.14 23.1564 28.9368 23.6142 28.9824C24.3197 29.0532 25.0843 28.9702 25.4682 29.7921C25.5184 29.8995 25.6702 29.958 25.7718 30.0429C25.982 30.2184 26.191 30.538 26.3994 30.5367C26.6631 30.5355 26.6097 30.1142 26.7364 29.893C26.9267 29.5599 27.2605 29.722 27.4412 29.747C27.8303 29.8004 28.2238 29.7921 28.6122 29.8441C29.2251 29.9271 29.8084 30.1393 30.4289 30.1843C30.908 30.2191 31.0694 30.6699 30.7498 31.0293C30.5897 31.2094 30.5473 31.5419 30.1807 31.4962C30.0489 31.4795 30.0727 31.6216 30.0624 31.72C30.0251 32.0724 30.0817 32.4145 30.1749 32.7489C30.2849 33.1438 30.2238 33.5168 30.1588 33.9161C30.0289 34.7148 29.9942 35.5007 30.2605 36.3219C30.5563 37.2318 31.2354 38.0138 31.1794 39.0485C31.1691 39.246 31.1511 39.4318 31.0907 39.7392L31.0926 39.7405ZM28.5666 33.5155C28.5319 32.9451 28.4039 32.4087 28.2122 31.8814C28.0708 31.4917 27.793 31.6448 27.5602 31.7065C27.247 31.7901 27.4 32.0036 27.4778 32.1747C27.7209 32.7078 28.002 33.2242 27.8881 33.8537C27.8611 34.0017 27.7724 34.2975 27.9473 34.3296C28.1839 34.3727 28.42 34.1914 28.519 33.9451C28.5717 33.8139 28.5531 33.6544 28.5659 33.5161L28.5666 33.5155Z" fill="#696969"/>
<path d="M19.5817 59.2522C19.5945 60.0123 19.1772 60.4991 18.8762 61.0193C18.5849 61.5229 18.3849 62.0161 18.4627 62.6097C18.565 63.3859 18.5553 64.2109 18.246 64.892C17.7631 65.9556 18.5856 66.5858 18.873 67.3762C19.0505 67.8649 19.4409 67.809 19.6936 67.3369C20.0216 66.7241 20.5502 66.2405 20.8145 65.5852C20.8543 65.4862 20.954 65.3775 21.0852 65.4109C21.2112 65.4431 21.1714 65.5749 21.172 65.6656C21.1765 66.2431 21.1772 66.8212 21.1727 67.3993C21.1694 67.7691 21.3154 68.0405 21.6685 68.1762C21.8273 68.2373 21.99 68.2752 21.9656 68.5029C21.9411 68.7363 21.9212 68.9665 21.6666 69.0784C21.4383 69.1781 21.2087 69.2829 21.0968 69.5241C21.0235 69.6816 20.9225 69.6006 20.8119 69.6025C19.936 69.6205 19.1502 69.2733 18.3881 68.9299C18.0885 68.7948 17.9335 68.3485 17.7026 68.0514C16.6621 66.71 16.1785 65.2212 16.8145 63.5891C17.129 62.7827 17.073 61.9756 17.1734 61.1692C17.2177 60.8116 17.3592 60.5171 17.5258 60.2174C18.1026 59.1769 18.3971 58.1152 17.8441 56.9551C17.6775 56.6059 17.4852 56.3705 17.0717 56.4014C17.0222 56.4053 16.9599 56.4155 16.9245 56.3917C16.7341 56.2644 16.3168 56.5223 16.3296 56.1622C16.3386 55.8966 16.7078 55.7853 16.9791 55.7416C17.4705 55.6625 17.9676 55.6689 18.464 55.7088C18.6164 55.721 18.7611 55.775 18.756 55.9159C18.7412 56.3512 18.9836 56.6882 19.1708 57.0335C19.5682 57.7686 19.4016 58.5879 19.5817 59.2528V59.2522Z" fill="#696969"/>
<path d="M23.3644 61.2894C22.8473 61.9898 22.0248 61.7267 21.4473 62.1107C21.3001 61.5422 21.1026 61.0509 20.8351 60.5956C20.7483 60.4483 20.7502 60.3441 20.857 60.2663C21.0152 60.1512 21.0769 59.9859 21.1734 59.8342C21.2891 59.6515 21.4364 59.4631 21.5888 59.8348C21.6949 60.0927 21.9451 60.0541 22.1515 60.0033C22.4936 59.9184 22.7972 60.0129 23.0962 60.1499C23.2711 60.2296 23.4139 60.3538 23.3656 60.5724C23.2248 61.211 23.6988 61.3531 24.1309 61.4894C24.4885 61.6026 24.8659 61.6965 25.237 61.7081C25.6955 61.7222 25.7669 62.1036 25.8325 62.3582C25.9058 62.6438 25.5611 62.6959 25.3193 62.811C24.9257 62.9987 24.4801 62.9537 24.1065 63.1589C23.6209 63.4251 23.1354 63.6926 22.6666 63.9872C22.4943 64.0952 22.3129 64.1601 22.1303 64.2315C21.9393 64.3061 21.693 64.2573 21.6486 64.101C21.5702 63.8251 21.3161 63.5634 21.4274 63.2785C21.4936 63.1094 21.7033 62.9582 21.9592 63.0032C22.457 63.0907 22.8801 62.9859 23.257 62.6026C23.3978 62.4592 23.4447 62.3827 23.3258 62.2605C23.0197 61.9467 22.9798 61.6547 23.3656 61.2894H23.3644Z" fill="#696969"/>
<path d="M26.5991 54.5879C26.2859 54.8702 26.113 55.2625 25.5811 55.0683C25.0487 54.8734 25.0474 54.4606 24.9985 54.0484C24.9522 53.6574 25.0615 53.5448 25.5342 53.5603C26.2294 53.5828 26.9271 53.3731 27.6422 53.4091C28.0538 53.4297 28.3727 53.5751 28.5052 53.9397C28.639 54.3088 28.5168 54.6348 28.1483 54.8709C27.7586 55.121 27.4113 55.4361 27.0319 55.7043C26.8994 55.7982 26.7329 55.9596 26.5612 55.811C26.3805 55.6548 26.3747 55.422 26.4814 55.2201C26.5811 55.031 26.7406 54.8689 26.5991 54.5873V54.5879Z" fill="#696969"/>
<path d="M20.878 54.7384C21.3204 54.4098 22.0715 55.0162 22.6162 54.4387C22.912 54.6831 23.3461 54.5506 23.6316 54.7976C23.9043 55.0342 24.2419 55.1648 24.503 55.431C24.8837 55.8194 24.8792 56.0342 24.3776 56.2676C24.2895 56.3088 24.1306 56.2927 24.1024 56.3512C23.766 57.047 23.5146 56.5885 23.2438 56.3004C23.0027 56.0445 22.7274 55.8599 22.3512 55.903C22.3024 55.9088 22.2303 55.9242 22.2053 55.8985C21.7924 55.4767 21.276 55.7795 20.8162 55.6959C20.768 55.6869 20.7146 55.7024 20.6677 55.6895C20.3487 55.6033 19.8657 55.593 19.9165 55.1731C19.9538 54.8632 20.377 54.741 20.878 54.7371V54.7384Z" fill="#696969"/>
</svg>
