<?xml version="1.0" encoding="utf-8"?>
<!-- Generator: Adobe Illustrator 28.4.1, SVG Export Plug-In . SVG Version: 6.00 Build 0)  -->
<svg version="1.1" id="Layer_1" xmlns="http://www.w3.org/2000/svg" xmlns:xlink="http://www.w3.org/1999/xlink" x="0px" y="0px"
	 viewBox="0 0 577.4 723.2" style="enable-background:new 0 0 577.4 723.2;" xml:space="preserve">
<style type="text/css">
	.st0{fill:#696969;}
</style>
<g id="HmvIbY">
	<g>
		<path class="st0" d="M347.4,363c1.7,2.1,4.1,1.1,6.1,1.1c2.1,0,4.3-0.4,6.4-1c2.8-0.8,5.6-1.9,8.2-3.1c7.3-3.4,14.8-6.2,22.9-7.1
			c4.6-0.5,9.3-0.9,14-1c9.4-0.2,17.9,1.9,25.8,7.7c5.9,4.3,11.5,9,17.1,13.7c3.1,2.7,4.7,3,8.3,0.6c4.6-3,9.1-5.9,14.7-6.4
			c2.6-0.2,5.3-0.4,7.9-0.5c3.4-0.2,6.8-0.4,10.9-0.6c-2.4,2.9-4.2,5.6-6.5,7.7c-4.6,4.1-9.4,8.2-14.5,11.8
			c-4.5,3.2-9.8,3.5-15.2,2.2c-3.3-0.8-6.7-1.4-9.9-2.4c-1.4-0.4-2.8-1.4-3.8-2.5c-5.1-5.9-11-11.1-17.4-15.5
			c-3-2.1-6.4-3.7-9.7-5.5c-3.6-2-7.7-1.3-11.5-1c-5.8,0.4-11.6,1.3-17.1,3.9c-5.9,2.7-12.1,4.6-18.8,4.9c-2.9,0.1-5.8,0.8-8.5,1.8
			c-3.1,1.2-5.9,1.2-8.9-0.5c-4.1-2.3-4.6-2-6.8,2c-0.5,1-1.1,1.9-1.6,2.8c-1.5,2.8-1.6,5.6-1.2,8.9c0.9,6.8,1,13.7,1.1,20.5
			c0,5.4-0.2,10.9-1,16.3c-0.7,4.6-3,8.8-6.2,12.3c-1.8,1.9-3.3,4.2-5.3,5.9c-3.5,3-3,6.8-2,10.3c2,7.3,4.7,14.3,7.8,21.2
			c5.1,11.2,4.5,22.3-3.5,32.4c-3.7,4.7-8.1,7.9-14.1,9.3c-4,0.9-7.8,3-11.6,4.8c-2.1,1-4,2.4-4.6,5c-0.1,0.3-0.1,0.7-0.3,0.8
			c-5.3,2.9-5.2,8.8-7.3,13.5c-2.7,6.1-5.8,12.1-12.8,15.4c-2.8-2-5.7-4.4-8.8-6.3c-2.6-1.6-5.5-2.9-8.4-3.8c-3.3-1-5.7-3-8.1-5.2
			c-3.1-2.9-6.1-5.8-9.1-8.5c-2.3,0.4-3.7,1.2-4.4,3.3c-2.1,6-6.6,10.1-11.7,13.5c-3.9,2.5-8.1,4.5-12.2,6.7
			c-4.5,2.4-9.5,4.5-10.5,10.2c-0.5,3.3-0.5,6.9-0.1,10.2c0.7,5.3,3.1,9.9,5.8,14.5c2.6,4.5,4.5,9.5,6,14.5
			c2.2,7.2,3.9,14.6,5.8,21.9c0.9,3.3,1.6,6.7,3,9.7c1.6,3.4,0.7,6.7-0.4,9.5c-2,5-5,9.7-9.3,13.2c-0.4,0.4-1.1,0.5-2.2,1
			c-0.5-1.2-1.3-2.2-1.3-3.2c0.5-9.4-2.3-18.4-3.7-27.6c-1.7-11.5-4.8-22.6-7.9-33.8c-1.3-4.6-3.5-8.9-5.3-13.3
			c-1.2-3-2.1-6.1-2.1-9.4c0.1-3.7-0.4-7.3-0.1-11.1c0.5-7.3,3.6-13.2,8.6-18c4-3.8,8.9-6.3,13.7-8.8c3.3-1.7,6.8-3,9.9-5
			c4.9-3.2,6.2-11,3.3-15c-2.5-3.4-5.3-6.6-8.2-9.6c-2.7-2.7-6.1-4.3-9.9-4.6c-0.9-0.1-1.8-0.4-2.7-0.6c-3.9-0.6-7.8-1-11.4,1.2
			c-5.5,3.4-11.6,5.9-16.7,10c-2.7,2.1-5.3,4.4-7.9,6.6c-3,2.6-6.6,3.3-10.4,3.5c-1.8,0.1-3.6,0.7-5.4,1c-1.2,0.2-2.4,0.6-3.6,0.6
			c-3.7-0.1-7.5-0.3-11.2-0.4c-0.8,0-1.5,0.2-2.3,0.5c-9,2.5-16.8,7-24.1,12.8c-2.8,2.2-5.9,4.1-9.1,5.8c-6.1,3.1-12.3,5.9-18.5,8.8
			c-0.8,0.4-1.8,1-2.6,0.9c-5.8-0.4-10.9,2.4-16.3,3.6c-2.8,0.6-3.9,0.1-5-2.7c-0.5-1.3-1.2-2.5-1.7-3.8c-1.5-3.4-3.9-5.2-7.7-4.5
			c-0.4,0.1-0.9-0.1-1.4-0.2c-1.2-2.3,0.1-3.9,1.4-5.4c0.9-1,2-2.2,3.3-2.6c5.2-1.8,10.5-3.3,15.8-5c1-0.3,2.1-0.5,3.1-0.9
			c5.4-1.9,10.8-3.9,16.2-5.7c6.9-2.3,12.8-6.3,18.3-10.9c1.1-0.9,2.2-1.9,3.5-2.2c5.2-1.3,9.1-4.4,12.6-8.5
			c4.8,0.7,8.5-2.4,12.7-3.8c5.3-1.8,10.5-3.3,16.1-4c5.6-0.7,11.2-0.5,16.8-0.8c0.8,0,1.5-0.1,2.2-0.2c1.3-1.6,1-2.9-0.3-4.2
			c-5.4-5.5-9-12.2-13.2-18.6c-4.9-7.5-10.6-14.6-15.9-21.8c-1.3-1.7-2.8-3.3-4.2-5c-4-5.1-9.4-9-12.4-15c-1.8-3.6-2.8-7.4-3.2-11.5
			c-1-8.7,2.6-15.6,8.2-21.4c4.5-4.7,10.3-8,16.8-9.5c7.4-1.6,14.8-1.5,22.3-0.2c5.5,0.9,10.9,1.4,16.2,3.6c3.2,1.3,6.9,0.8,8.8-3.2
			c-2.2-7-0.9-13.7,2.8-19.9c1.1-1.8,1.3-3.4,1.1-5.3c-1.1-8.6-2.6-17.2-3.1-25.9c-0.2-4.3-0.5-8.9,2.1-13.1c2.4-4,3.7-8.5,5.9-12.6
			c2.2-4.1,4.9-7.9,7.1-12c2.1-3.9,4.9-7.2,8.1-10.1c2.1-1.8,4.2-3.5,5.8-5.9c1.1-1.7,3.3-2.9,5.2-3.9c4.9-2.7,9.9-5.2,15-7.7
			c4.2-2.1,8.7-3.1,13.4-3.5c4-0.3,8.1-0.9,12.1-0.8c12.6,0.4,24.8,1.8,34.2,11.8c7.2,7.6,15.7,13.6,25.6,17.5
			c4.2,1.7,6.9,5.3,9,9.2c2.2,4.2,4.2,8.6,5.9,13c0.9,2.4,1.2,5.1,1.5,7.7c0.9,7.4,2,14.9,0.3,22.4c-0.7,3-0.6,6.2-1,9.3
			C348.6,357.1,348,359.8,347.4,363L347.4,363z M211.4,395.3c-2.7-1.9-5.8-3-8.1-1.4c-2.6,1.8-4.6,1.3-6.9,0.5
			c-6.1-2.1-12.2-4.3-18.4-6.2c-5.6-1.7-11.4-1.8-17.2-1.2c-4.2,0.4-8.6,0.9-12.3,3.6c-2.6,1.9-5.3,3.8-8,5.6
			c-4.7,3.3-6.6,8.3-6.9,13.6c-0.1,2.8,0.2,5.8,2.2,8.4c2.7,3.6,5.7,7,8.7,10.3c5.4,6,10.5,12.4,15.4,18.8c3.8,4.9,7,10.3,10.5,15.4
			c2,2.9,4.4,5.6,6.1,8.7c3.1,5.5,6.9,9.9,13.7,10.6c1,0.1,2,0.9,3,1.2c1.5,0.5,2.9,1.1,4.5,1.3c3.4,0.5,6.8,0.5,10.2,1.2
			c4.2,0.8,8.4,1.5,12.3,3.9c3.9,2.4,7.7,4.6,10.1,8.7c0.6,0.9,1.5,1.6,2.3,2.4c1.6,1.7,3.3,3.3,4.8,5c3.6,4.2,6.9,8.8,10.9,12.7
			c6.6,6.5,14.8,10.8,22.8,15.2c1.4,0.8,3.3,0.9,5,1c3.3,0.1,4.1-0.5,5-3.7c3.1-11.6,10.3-20.1,20-26.5c4.6-3,9.8-5.1,14.8-7.4
			c6.2-2.9,9.7-10.2,7.4-16.5c-1.7-4.8-3.7-9.5-5.8-14.2c-3.3-7.4-5.9-15-5.5-23.3c0.2-3.2,1-6.1,2.9-8.6c2.3-3,4.7-5.8,7-8.7
			c3.9-4.8,6.7-10,6.1-16.6c-0.3-3.3,0.1-6.6,0-9.9c-0.1-2.6-0.3-5.3-0.9-7.8c-1.1-4.8-1.2-9.6-0.9-14.4c0.1-1.5,0.3-3.2,1-4.5
			c3-5.9,5.8-11.9,9.4-17.4c3.5-5.2,4.5-10.7,4.6-16.7c0.2-7.2-1-14.3-2-21.3c-0.7-4.6-2.8-8.3-7.7-10.1c-2.9-1-5.6-2.7-8.1-4.5
			c-2.1-1.5-4.1-3.3-5.7-5.4c-2.4-3-4.3-6.4-6.5-9.6c-5.2-7.5-12.6-10.6-21.6-10.9c-3-0.1-5.9-0.6-8.8-0.8c-1.4-0.1-2.8-0.2-4.2-0.1
			c-4.8,0.5-9.5,1.4-14.3,1.8c-5.3,0.4-9.8,2.6-14.3,5.1c-4.9,2.8-7.8,7.2-9.2,12.5c-1.5,5.2-3.4,10.2-6.4,14.8
			c-1.9,2.9-3.4,5.9-5.2,8.8c-1.8,2.9-2.8,5.9-2.6,9.3c0.3,3.7,0.8,7.4,0.8,11.2c0,3.2-0.8,6.5-0.8,9.8c0.1,8.2-3.5,14.9-7.7,21.5
			c-1,1.6-2,3.2-2.8,4.9c-1.3,2.8-0.7,4.2,2,5.6c0.9,0.5,2,0.9,2.9,1.4c3.2,2,3.5,3.2,1.5,6.5C218.5,392.3,215,393.7,211.4,395.3
			L211.4,395.3z"/>
		<path class="st0" d="M62.2,348.7c-1.7-2.9-4.3-5-8.4-4.3c-0.3,3.5,0.3,5.2,3.4,6.2c3.3,1.1,5,2.7,4.7,6.4
			c-0.1,1.2,0.7,2.8,1.6,3.7c3,2.9,4.7,6.6,6.2,10.3c2.8,6.6,6.6,12.3,13.4,15.3c0.4,0.2,0.6,0.7,1.1,1.2c-1.2,4.9,1.2,8.9,3.8,12.8
			c1.4,2.2,2.5,4.2,1.5,6.9c-0.3,0.9,0.2,2.1,0.2,3.1c-0.1,3.1,0.1,6.2-0.4,9.3c-1,6.9-2.2,13.7-3.5,20.5c-0.4,2-1,3.9-1.6,5.8
			c-1.2,4.1-0.9,8.6-3,12.5c-3.8,7.1-6.9,14.6-13,20.2c-2.5,2.2-5.1,3.9-8.2,5.1c-3.4,1.3-6.7,3.2-10.2,4.4c-2,0.7-4.2,1-6.3,1.1
			c-1.8,0-3.7-0.5-5.5-0.9c-1.3-0.3-2.7-0.7-2.8-2.6c-0.1-2.1,1.2-2.7,2.9-2.9c5.5-0.7,10.4-2.8,15.2-5.2c5.6-2.8,9.5-7.1,12.1-12.5
			c4.5-9.4,8.2-19.1,9.7-29.4c0.8-5.5,0.7-11.5-3.8-16.2c-1.3-1.4-2.4-3.2-3.2-5.1c-1.7-4-4.8-6.8-7.8-9.7c-1.6-1.5-3.2-2.8-3.8-5.2
			c-0.2-0.9-1.5-1.5-2.2-2.3c-0.8-0.9-1.9-1.8-1.9-2.8c-0.1-2.2-1.3-3.4-2.9-4.5c-4.5-2.9-7.6-7.2-10.8-11.4
			c-0.3-0.4-0.5-0.9-0.9-1.1c-4-2.3-5.5-6.6-7.9-10.1c-2.2-3.2-4-6.4-5.2-10.2c-1.1-3.2-1.7-6.2-1.5-9.5c0.1-0.9,0.1-1.9,0-2.8
			c-1.4-12.7,3.7-23.9,9.7-34.3c4.7-8.2,11.1-15.6,19.6-20.2c6.7-3.6,13.7-6.9,21.6-6.2c7.1,0.7,14.2,1.6,20,6.5
			c4.3,3.6,6.8,8.3,8.1,13.7c-1.7,4.3,0.2,9.3-2.9,13.4c-1.8,2.4-2.7,5.5-3.8,8.4c-1.5,3.7-3.1,7.5-4.4,11.3
			c-1.6,4.5-5.8,5.2-9.4,6.8c-1.8,0.8-3.7,1.4-5.6,2c-1,0.3-2,0.7-3.1,0.9C69.5,347.8,66.2,348.2,62.2,348.7L62.2,348.7z
			 M47.9,337.1c1.4-0.4,2.6-0.5,3.7-1c1.9-0.9,3.7-2.2,5.7-3.1c5.6-2.6,10.7-6.1,16.6-8.1c4.8-1.7,9.2-4.6,9.7-10.7
			c0.3-2.9,1.4-5.7,2.2-8.5c1.4-4.5,0.1-9.3-6.8-10.4c-1.6-0.2-3.3,0.2-4.9,0.6c-9.3,2.3-15.9,8.4-20.6,16.3
			C49,319.6,46.8,327.7,47.9,337.1L47.9,337.1z"/>
		<path class="st0" d="M317,247.3c-0.7,1.2-1.6,2.3-2.1,3.6c-0.5,1.2-1.1,2.5-1,3.8c0.2,6.1-4.8,11.1-10.8,10.8
			c-2-0.1-3.3-1.1-4-2.7c-0.8-1.8-1.7-3.7-1.9-5.7c-0.5-7.9-1.6-16-0.8-23.8c0.8-7.7,4-14.9,9.5-20.8c5.7-6.1,13.1-9.4,20-13.6
			c4.2-2.6,8.5-5.2,12.9-7.3c4.7-2.3,9.7-4.1,14.5-6.1c1.6-0.6,3.2-1.2,4.6-2.1c2.9-1.8,3.1-5.3,1.1-8.1c-2.7-3.7-5.9-7.1-5.5-12.3
			c0.1-1.2-1.2-2.4-1.5-3.8c-0.9-3.9-2.5-7.6-3.8-11.4c-0.8-2.4-1.7-4.2-4-5.2c-0.7-0.3-1.1-1-2-1.7c1.5-2.5,2.8-4.9,1.3-8.1
			c-0.6-1.3,0.7-3.5,1.3-5.7c-0.3-0.7-0.9-1.8-1.6-3.1c2.4-3,4.7-6.1,7.2-9.1c1.6-1.9,3.6-2.8,6.1-2.8c3.4-0.1,6.8-0.7,10.2-0.8
			c1.2-0.1,2.5,0.6,3.7,0.9c-0.1,2.5-1.4,2.7-2.9,2.8c-7.9,0.6-8.6,1.8-7.6,9.5c0.6,4.3,2.9,7.6,5.2,10.8c3.3,4.7,7.2,8.9,10.7,13.4
			c0.6,0.8,0.9,1.9,1.4,2.9c1.1,2,2,4.2,3.4,6c1.7,2.3,1.5,4.8,1,7.2c-0.8,3.2-1.4,6.3-1.9,9.6c-0.7,4.7-3.3,8.4-7.6,11.1
			c-8.6,5.2-18.1,8.6-27.3,12.4c-5.5,2.2-10.9,4.6-16.2,6.9c-8.4,3.7-13.3,10.8-16,19.1c-1.2,3.7-0.2,8.1-0.1,12.1
			c0,0.9,0.5,1.8,0.5,2.8c0,2.5,0.7,4.6,2.6,6.3C316,245.4,316.4,246.3,317,247.3L317,247.3z"/>
		<path class="st0" d="M403.9,436c-1,0.5-2,0.8-2.5,1.4c-3.5,4.7-9.3,5.3-14.1,7.6c-2.3,1.1-5.1,1.4-7.6,1.9
			c-3.6,0.7-7,0.7-10.3-1.4c-2.5-1.7-5.9-2.2-7.3-5.5c1.3-3.1,4.2-2.8,6.7-2.8c2.6,0,5.2,0.3,7.7,0.5c1.1-2.4,0.5-3.6-1.3-4.6
			c-1.9-1-3.7-2.3-5.5-3.3c-1.2-0.6-2.5-1.4-3.8-1.5c-4.6-0.3-7.7-3-10.5-6.3c-1.2-1.4-2.4-2.9-3.6-4.3c-2.8-3.3-4.5-6.8-3.3-11.4
			c0.9-3.6,1.3-7.3,3.5-10.4c0.8-1.1,1.7-2.3,2.9-3c3.2-1.8,6.5-3.5,9.9-5c3.6-1.5,7.4-2.2,11.3-2c4.9,0.2,9.8,0.6,14.6-0.1
			c4.9-0.8,9.7-1,14.5-0.7c6,0.3,12,1.1,17.5,3.9c0.8,0.4,1.7,0.8,2.4,1.4c5.6,5.4,11,11.1,17,16.2c4,3.4,7,7.9,12.2,9.9
			c0.7,0.2,1.1,1,1.7,1.5c-3.2,5.6-7.9,6.3-13.7,5.2c-3.9-0.8-6.9-2.4-9.4-5.4c-2-2.4-4.4-4.5-6.5-6.8c-0.4-0.4-1.1-0.8-1.2-1.4
			c-1.1-4.5-5.1-7-7.4-10.6c-1.3-2-3.1-3-5.4-3.2c-5.9-0.5-11.5-0.6-17.5,1.1c-7.7,2.1-15.9,2.5-24.1,2.2c-3.1-0.1-6.2,0.4-9.2,1
			c-0.8,0.1-2,1.2-2.1,2c-0.1,0.8,0.7,2,1.5,2.5c1.2,0.9,2.7,1.4,4.1,2c3.1,1.3,5.6,3.2,7.9,5.7c2,2.1,4.3,4,6.3,6.1
			c1.1,1.2,1.7,2.9,2.7,4.3c2,3,3.9,6,6,8.8c0.6,0.7,2.1,1.5,2.8,1.2c2.8-0.9,5.5-2.2,8.1-3.4c0.4-0.2,0.6-1,1.1-2
			c-1.1-0.7-2-1.7-3-1.9c-3.2-0.7-4.2-3.1-4.6-5.8c-0.6-3.7,1-5.5,4.9-5.6c1.6,0,3.1-0.2,4.7-0.1c2.7,0.1,4.1,1.1,4.4,3.8
			c0.1,1.9,0.8,3.2,2.1,4.5c0.4,0.4,0.6,1,0.9,1.6c2.4,5,4.9,10,7.3,15c0.3,0.7,0.7,1.4,0.9,2.1c0.5,1.9-0.2,4.6-1.5,5
			c-1.9,0.6-3.1-0.4-4.4-1.9C409.2,441.4,406.6,439,403.9,436L403.9,436z"/>
		<path class="st0" d="M256.6,222.6c1.3-1.3,2.6-2.4,3.5-3.7c0.7-1,1.4-2.5,1.3-3.6c-0.2-1.8-2-1.6-3.4-1.6
			c-6.4,0-12.6,1.4-18.6,3.7c-1.4,0.6-2.7,1.6-3.9,2.5c-2.2,1.8-2.2,3.8,0.2,5.2c2.9,1.7,6,3.2,9.2,4.3c1.2,0.4,2.9-0.6,4.7-1
			c0,3.9,2.4,6.2,5.6,8.1c1.8,1.1,3.3,2.9,4.5,4.7c1.6,2.4,3.3,2.9,6,2.1c4.6-1.4,9.2-2.6,13.8-3.8c0.7-0.2,1.5-0.4,2.3-0.4
			c1.4-0.1,2.7,0.4,2.8,1.8c0.1,0.9-0.5,2.3-1.3,2.7c-5.2,2.6-9.7,6.6-15.6,7.8c-0.8,0.1-1.4,0.6-2.1,0.9c-4.1,1.8-8.4,1.3-11.4-2.1
			c-3.2-3.6-6.2-7.4-9.1-11.2c-2.8-3.8-6.8-4.7-11.1-4.5c-2.8,0.1-3.9,2.5-2.1,4.6c3.6,4.2,7.6,8.2,11.5,12.3
			c0.3,0.3,0.8,0.4,1.2,0.7c1.4,1.2,2.4,2.7,1.4,4.5c-1.1,1.9-2.8,1.5-4.5,0.7c-6.6-3-12.3-7.3-16.6-13.1c-3.2-4.4-6-9-8.8-13.7
			c-1.5-2.5-2.4-5.4-3.9-7.9c-3.9-7-7.9-14-11.7-21.1c-2.5-4.6-4.3-9.6-6.9-14.2c-5-8.7-9.3-17.8-13.1-27.1
			c-2.3-5.7-3.9-11.6-5.9-17.9c3.8,0.1,5.9,1.9,7.7,4.2c4.5,5.9,7.7,12.7,11,19.3c5.4,10.8,10.9,21.6,16.3,32.3
			c4.1,8,8.1,16,13,23.5c1.4,2.1,3.1,2.4,4,0.2c3-7.3,9.2-11.2,15.5-14.7c5.6-3.2,11.8-5.3,17.8-7.9c3-1.3,6-1.7,8.5,1
			c0.2,0.2,0.6,0.2,0.9,0.3c5.2,1.5,6.6,6.1,8,10.4c1.5,4.5-2.4,9.5-7.3,10.1C265.7,221.6,261.4,222,256.6,222.6L256.6,222.6z"/>
		<path class="st0" d="M471.7,235.9c0.6,2.9,0.7,5.1-0.6,7.2c-0.2,0.4-0.7,0.8-0.7,1.2c0,4.7-3.5,6-6.9,7.6c-3.5,1.6-7.1,3.4-9.8,6
			c-5.1,5-8.3,11.2-7.8,18.7c0,0.8,0,1.5,0,2.5c-3.7,1.8-7.6,1.9-11.4,2.1c-5.4,0.3-10.8,0.8-16.1-0.8c-5-1.5-10.1-2.8-15.1-4.4
			c-6-1.9-11.9-4.7-18.4-4.1c-1.5,0.1-3.1,0.6-4.2,1.5c-2.7,2.1-5.1,4.6-7.7,6.8c-1.8,1.5-3.7,2.9-5.5,4.3c-1,0.8-2.1,1.4-2.9,2.3
			c-1.9,2.2-4.3,3.4-7,4.3c-4.6,1.5-9,3.4-12.1,7.2c-4.5-3.6-4.7-4.7-1.1-8.3c2.4-2.4,5-4.5,7.6-6.8c0.7-0.6,1.5-1.2,1.9-2
			c3.9-7.2,10.2-11.5,17.6-14.5c5.9-2.4,11.9-4.8,18.4-4.3c2.3,0.2,4.6,0.6,6.8,1.2c6.4,1.7,12.7,3.7,19.2,5.3
			c3.5,0.9,4.4,0.4,6-2.8c5-9.8,13-16.6,22.2-21.9c4.3-2.5,9.1-3.9,14-4.4c3.2-0.3,6-1.3,8.8-2.6
			C468.2,236.9,469.8,236.5,471.7,235.9L471.7,235.9z"/>
		<path class="st0" d="M450.1,594.2c2-2.1,3.9-4.3,5.9-6.4c2.3-2.5,0.3-5.8,1.6-8.6c1.9-0.8,3.5-0.6,5.1,0.8c1.5,1.2,3.4,2,5.9,3.5
			c0.9,1.8,2.1,4.5,5.6,4.8c1,0.1,1.8,1.5,2.6,2.2c-0.5,2.8-3,2.2-4.4,3.2c-1.3,0.8-3.2,1-4,2.1c-2.4,3.3-6,4.2-9.5,5.4
			c-1.7,0.6-3.5,1-5.8,1.7c-1.2-0.3-2-1.1-1.4-3.2c0.8-3,0.5-3.2-2.5-4.1c-2.5-0.8-4.6-2-6.7-3.9c-3.1-2.9-7.3-3.3-11.4-2.4
			c-9.2,2.1-18.3,4.4-27.4,6.7c-2,0.5-4,1.3-6.1,2c-3.1-4.7-5-9.5-5.4-14.6c-0.5-9,2.7-12.5,10.3-15.7c8.4-3.5,17.1-3.8,26-1.4
			c3.4,0.9,7,1.1,10.6,1.3c2.4,0.1,3.5-0.6,6-3.1c-1.3-0.9-2.5-2.2-3.8-2.3c-4-0.5-7.1-2.8-10.6-4.5c-3.5-1.7-6.9-3.4-10.9-0.9
			c-0.8,0.5-2.8-0.1-3.8-0.7c-1.2-0.8-2.1-2.2-3.5-3.8c-3.2,0.9-7,1.8-10.6,3.1c-5.4,1.8-8.4,1.2-11.8-3.4c-1.4-1.9-3.3-3.9-2.6-6.7
			c1.7-2.7,4.3-2.1,6.1-1c5.7,3.4,10.4,0.8,15.2-1.8c1.2-0.7,2.3-1.6,3.6-2.1c2.4-1,4.4-0.2,4.9,2.3c0.6,3.4,2.8,5,5.9,5.7
			c8.7,2.2,15.9,7.4,23.3,12.2c1.7,1.1,2.9,3.3,3.6,5.3c1.3,3.5-0.6,6.5-4.3,7.3c-4.5,1-9,2.4-13.6,2.7c-3.6,0.2-7.5-0.5-11-1.5
			c-4-1.2-8-1.6-12-1c-2.8,0.4-5.4,2.1-7.9,3.6c-0.7,0.4-0.7,2.1-1.1,3.3c4.8,1.2,8.9,0.4,12.9-0.6c8.3-2.1,16-0.4,23.4,3.4
			c4.8,2.4,9,5.5,11.8,10.2C448.7,593.5,449.3,593.7,450.1,594.2L450.1,594.2z"/>
		<path class="st0" d="M327.2,544c-2.6,0.3-4.6,0.5-6.6,0.9c-3.6,0.7-6.7-0.3-9.6-2.6c-3.5-2.7-7.7-3.8-11.9-5c-3.5-1-3.9-2-2.3-5.3
			c1.1-2.2,2.1-4.4,3.4-7.1c2.6,0.3,5.6,0.9,8.6,1c4.7,0.2,9.4-0.1,14.1,0.1c8.8,0.3,16.1,3.8,21.8,10.6c4,4.9,6.4,10.5,6.9,16.9
			c0.5,6.3,3.2,11.7,8.1,15.7c5.2,4.2,10.5,8.2,16.9,10.5c1.1,0.4,2.3,1.1,3.2,1.8c0.5,0.5,0.6,1.4,1,2.6c-3.2-0.3-5.9-0.6-8.7-0.9
			c-1.1,1.7-2,3.2-3,4.8c-2.5,0-4.8-1.6-7.3-0.1c-0.5,0.3-1.8-0.4-2.5-0.9c-5.3-3.5-10.6-7-15.9-10.5c-0.5-0.3-0.9-0.9-1.2-1.4
			c-5.4-8.5-9.9-17.5-13.1-27C328.7,546.7,327.8,545.3,327.2,544L327.2,544z"/>
		<path class="st0" d="M374,66.8c2.7,1.7,5.1,3.6,7.9,4.8c2.5,1,5.3,1.2,8,1.8c3.4,0.7,4.1,4,5.8,6.3c0.3,0.5-0.3,2.2-1,2.8
			c-1.7,1.5-3.4,3.2-6,3.2c-1.3,0.1-2.8,0.6-4,1.3c-3.1,1.9-6,1.3-8.8-0.3c-4.1-2.5-8.9-2.6-13.4-3.6c-2.3-0.5-5.2,0.7-7.5,1.8
			c-2.6,1.2-4.8,3.3-7.2,4.9c-5.9,3.9-11.3,8.6-18.2,10.9c-2.3,0.8-4.6,1.9-6.7,3c-2.1,1.2-3.9,0.7-5.9-1.1c3.2-2.5,6.2-5.2,9.5-7.3
			c3-1.9,5.2-4.4,7.1-7.3c2.9-4.6,5.9-9.1,9-13.5c1.5-2.1,3.5-3.9,6.1-3.9c4.7,0.1,8.8-1.7,13-3.2c2.3-0.8,4.4-1.1,6.7-0.8
			C370.2,67,372.2,66.8,374,66.8L374,66.8z"/>
		<path class="st0" d="M397.2,495.8c-2.1,0.2-2.8-0.6-3.3-1.9c-1.4-3.1-2.9-6.2-4.2-9.3c-2.4-5.3-6.5-8-12.2-8.4
			c-2.5-0.2-4.7-1.8-5-4.5c-0.3-2.6-1.7-2.8-3.8-3.1c-4.4-0.7-9.1-1.1-13-3c-3.8-1.8-7-5.1-10-8.2c-2.1-2.2-0.4-5.2,2.8-5.6
			c5.7-0.9,10.5,1.5,15.6,3.4c3.4,1.2,7.2,2.1,10.8,2.2c5.7,0.1,11.5-0.5,17.2-0.9c1-0.1,2-0.8,2.9-1.2c0.9-0.5,1.8-1.1,2.7-1.7
			c1.2,3.6,0.1,7.6-2.1,9.6c-2.3,2.1-4.4,4.4-6.6,6.5c2.5,5.2,5,10,7.1,14.9c1.1,2.5,1.8,5.2,2.3,8
			C398.6,493.6,397.6,494.9,397.2,495.8L397.2,495.8z"/>
		<path class="st0" d="M144.7,328.4c2.3-0.8,3.9-1.7,5.5-1.8c3.2-0.1,4.7-1.9,5.7-4.6c1.4-3.9,3.7-7,7.4-9.3c1.6-1,3-1.4,4.8-1.1
			c0.9,0.2,1.8-0.3,3.1-0.5c-2.3-7.1-7.1-11.7-12.3-17c2.4-0.6,4-1.5,5.6-1.4c3.2,0.3,5-1.5,6.6-3.6c2.7-3.4,5.3-6.9,8.1-10.5
			c2.5,0.1,5.1-0.9,7.7,1.1c-0.3,4.6-5.8,4.3-7.3,8.2c2.1,3.9,0.5,7-3.9,8.8c0.3,5.4,1,10.6,3.2,15.4c1.2,2.8,1.1,3.3-2.1,5.6
			c-1.7-1.1-3.5-2.3-4.6-3c-3.9,1.5-7.2,2.7-10.4,4.2c-1.3,0.6-2.2,2-3.4,3.2c0.9,1.2,1.4,2.4,2.3,2.8c7,3.3,9.7,9.9,12.6,16.3
			c1.2,2.6,0.9,5.2-0.6,7.5c-1.7,2.5-2.3,6-6.4,6.9c-2.2-1.2-3.9-3.2-4.6-6.1c-0.8-3-2-5.8-2-9c0-2.8-1.1-5.4-4.4-6.4
			c-2.9-0.9-5.1-3.4-8.4-3.3C146.2,330.8,145.8,329.7,144.7,328.4L144.7,328.4z"/>
		<path class="st0" d="M406.2,613c-0.7,0.6-1.2,1.4-1.6,1.4c-5-0.1-9,2.5-12.8,5c-2.6,1.7-4.8,2.2-7.3,0.7c-2.8-1.6-4.6-0.6-6.5,1.5
			c-3.4,3.6-6.9,7.1-11.3,9.6c-1.6,0.9-2.7,2.9-4,4.4c-3.7-1.5-3.7-4.8-4.2-7.2c-1.3-6.9,0.7-13.2,4.6-19c1.4-2,3.5-3.5,5.1-5.3
			c1-1.1,1.6-2.6,2.4-3.9c0.9-1.5,2-2.7,4-2.6c1.8,0,3.7-0.7,5.5-0.5c4,0.6,6.9,3.1,8,7c0.8,3,2.4,4.4,5.3,5
			c3.5,0.7,6.9,1.8,10.3,2.7C404.5,612,405.2,612.5,406.2,613L406.2,613z"/>
		<path class="st0" d="M58.8,585.9c-1.8-0.7-3.2-0.8-4.2-1.6c-5-3.8-7.4-9-8-15.2c-0.2-2.2-0.4-4.4-1-6.4c-1.3-4.4-6.2-6.2-10.2-3.8
			c-1,0.6-2,1.5-3.2,2.5c-6-1.5-12-3-16.5-8.5c3.1-0.5,5.9-0.9,8.7-1.2c2.9-0.4,6-0.3,8.7-1.2c5.4-1.8,10.5-0.3,15.5,1.1
			c2.6,0.7,5.2,2,7.4,3.6c1.3,1,2.2,2.9,2.7,4.6c1.7,5.6,0.9,11.5,1,17.2C59.8,579.7,59.2,582.4,58.8,585.9L58.8,585.9z"/>
		<path class="st0" d="M118.8,325.8c2.8,0.7,5.3,1.2,7.6,1.9c2.1,0.6,3.4-0.3,4.2-2c2-4.3,5.1-7.8,7.9-11.5c0.7-0.9,1.4-2,2.4-2.6
			c0.5-0.3,1.6-0.1,2.2,0.1c1.4,0.5,2.2,3.6,1.9,5.7c-0.6,4.9-2.1,9.6-4.6,13.9c-1.7,3-2.2,5.7,0,8.7c1.3,1.7,1.9,3.8,3,5.7
			c2.1,3.9,1.6,7.7-0.1,11.5c-0.6,1.3-1.8,1.7-3.2,1.1c-2.6-1.3-4.6-3-6-5.6c-1.9-3.7-3.7-7.5-6.1-10.9c-1.9-2.8-4.7-4.9-7-7.4
			c-1.2-1.2-2.5-2.4-3.3-3.8C116.5,328.6,116.7,328.3,118.8,325.8L118.8,325.8z"/>
		<path class="st0" d="M200.9,278.6c-1.8-0.7-3.6-1.5-6-2.4c0.8-1.3,1.3-2.4,2-3.3c7.8-9,7.7-9.8,1.4-19.6c-1.6-2.5-3.7-4.6-6.4-5.7
			c-5.1,2.4-6.9,6.7-5,11.8c0.7,1.9,1.8,3.6,2.6,5.4c2.3,5.1,2.2,5.2-1.4,10.1c-0.5-0.3-1.2-0.5-1.4-0.9c-1.5-3.5-3.3-7-4.2-10.8
			c-1.9-7.4,0.3-14.1,4.8-20c3-3.9,7.6-5,12.7-1.1c2.3,1.7,4,3.8,5.4,6.3c2.1,3.8,4.5,7.4,6.8,11c0.2,0.3,0.2,0.6,0.4,0.9
			c3.8,10.1,2,11.7-5.9,16C204.9,277.1,203.1,277.7,200.9,278.6L200.9,278.6z"/>
		<path class="st0" d="M374.9,508.9c-2.7,0.5-4.2,0-5.6-2.1c-1.5-2.2-3.8-4-6-6.1c-2.9,3.9,0.4,8.6-2.6,11.9
			c-2.2,0.9-3.5-0.8-4.1-2.1c-1.3-2.8-2.5-5.7-2.9-8.7c-0.7-4.7,1-8.9,4.7-12.1c2.6-2.3,4.5-5.8,8.3-6.5c3.4-0.6,6.7-2.4,10.4-0.7
			c2.2,1,3.7,2.1,4,4.6c0.3,2.8,0.6,5.5,1,8.5C376.5,498.6,376.4,504.3,374.9,508.9z"/>
		<path class="st0" d="M494.8,255c-2.9-1.1-4.2-3.8-5.6-6.4c-3.3-6.1-5.2-12.6-5.6-19.4c-0.2-2.9-1.6-4.2-4-5.1
			c-1.4-0.5-3-0.7-4.4-1.3c-0.8-0.3-1.9-1.1-1.9-1.7c0-0.9,0.5-2.1,1.2-2.7c2.3-1.8,4.8-2.7,7.8-1.4c3.3,1.4,6.7,2.1,10.3,2.4
			c4.5,0.3,8.3,3.3,10.4,7c1.6,2.9,0.7,6.7-1.2,9.8c-1.4,2.2-3.2,4.3-4.1,6.8C496.4,246.7,495.8,250.7,494.8,255L494.8,255z"/>
		<path class="st0" d="M378.4,542.8c-1.4-0.8-2.6-1.2-3.2-2c-3.4-4.8-5.9-9.7-3.8-15.9c1.5-4.7,5-7.7,8.9-10.2c1-0.7,2.3-1.2,3-2
			c2.4-2.7,5.3-3,8.8-2.3c2.6,3.9,3.9,8.5,4.9,13.1c0.5,2.5-1.1,5-3.4,6.1c-2.2,1-4.6,1.7-7,2c-4.2,0.5-5.2,1.1-6.4,5.2
			C379.6,538.6,379.1,540.4,378.4,542.8L378.4,542.8z"/>
		<path class="st0" d="M145.6,253.7c2.3,0.2,4.7,0,6.9,0.7s4,2.2,6.4,3.5c0.9-1,2.3-1.8,2.8-2.9c2-4.8,6.7-6.9,10-10.2
			c1.1-1.1,3-1.9,4.7,0.5c-2.2,3.1-4.3,6.5-6.9,9.4c-2.6,2.8-2.9,2.6-4,6.1c1.2,1.6,2.4,3.4,3.8,5.4c-1.8,1.2-3.2,2.2-5,3.4
			c0,1.4,0.1,3,0,4.5c-0.1,1-0.3,2.2-0.9,3c-1.2,1.8-2.3,3.8-5.1,3.4c-2.7-0.3-2.6-2.7-3.4-4.4c-2.6-5.8-5.2-11.6-9.8-16.2
			C142.8,257.4,142.9,256.5,145.6,253.7L145.6,253.7z"/>
		<path class="st0" d="M478.5,342.9c1.4-1.8,2.5-1.1,3.7-0.7c4.7,1.5,9.4,3,14.1,4.3c2.5,0.7,5.1,1,7.7,1.7c3.1,0.9,6.1,1.9,9.1,3.1
			c1,0.4,1.7,1.3,2.5,1.9c-2.1,4.5-3.3,8.6-3.1,13.1c0.1,2.4-1,4.2-2.6,5.7c-1.2,1.2-2.5,2.3-3.8,3.5c-2.5-1-3.5-2.9-3.9-5
			c-0.8-4.2-1.4-8.5-2-12.8c-0.6-4.5-3.3-7.2-7.9-6.5c-4.8,0.8-8.1-1.3-11-4.5C480.4,345.6,479.6,344.3,478.5,342.9L478.5,342.9z"/>
		<path class="st0" d="M398.7,649.6c0.9,5.9-3.5,9-7.6,12c-2,1.5-4.8,2.6-7.2,2.5c-4.1-0.1-8.2-1.6-11.6-4c-2.3-1.6-2.9-4.4-2.7-7.1
			c0.7-8.6,7.8-16.8,16-19c1.6-0.5,3-0.5,4.4,0.4c4.8,2.9,8.7,6.4,8.7,12.6C398.7,647.7,398.7,648.4,398.7,649.6L398.7,649.6z
			 M375.9,648c0.2,1.4,0.1,3.1,0.8,4c3.7,4.8,7.7,7.4,13.6,5.1c5.7-2.2,7-7,3.1-11.6c-0.8-0.9-1.3-2.3-2.2-3c-1.4-1-3.2-2.5-4.8-2.3
			c-2.5,0.2-5.1,1.2-7.4,2.4C377,643.5,375.6,645.4,375.9,648L375.9,648z"/>
		<path class="st0" d="M201.8,682.3c-1.8-4.7-1.9-4.8,1.7-6.5c3.4-1.7,6.9-3.4,10.6-4.5c2.3-0.7,4.9-0.3,7.4-0.3
			c3,0,3.8,2.6,5.4,4.5c1.6,2,3.2,4.1,6.4,4.2c1.4,0,2.8,1.6,4.2,2.5c-0.9,2.2-2.1,3.1-4,2.9c-3.4-0.3-7-0.1-10.1-1.2
			c-4.8-1.7-9.5-2.3-14.4-1.7C206.6,682.5,204.3,682.3,201.8,682.3L201.8,682.3z"/>
		<path class="st0" d="M101.3,338.8c2.9,0,5.4-0.1,7.9,0c5.3,0.4,8.8,4,8.9,9.4c0,2,0.8,3.3,2.1,4.5c3,2.7,5.9,5.6,9.2,8
			c1.8,1.3,4.2,1.6,6.6,2.5c-0.1,0.5,0.1,1.5-0.2,1.6c-1.2,0.5-2.6,1.2-3.8,1c-4.2-0.6-8.1-2.2-11.5-4.7c-3.4-2.5-6.6-5.2-9.9-7.8
			c-0.4-0.3-0.8-0.6-1-1C106.9,347.8,104.2,343.5,101.3,338.8L101.3,338.8z"/>
		<path class="st0" d="M112.3,361.3c3.6,2.7,3.9,3.4,2.1,6.5c-1.2,2.1-2.6,4.9-4.6,5.6c-3.6,1.3-7.4,2.9-11.4,2
			c-3.2-0.7-5.3-3.4-7.1-5.8c-3.4-4.8-6.6-9.8-8.4-15.5c-0.3-1.1-0.3-2.3-0.5-3.5c5.1-0.7,7.4,2.6,9.1,5.7c1.5,2.7,3.1,5.2,4.5,7.9
			c0.9,1.6,1.6,3.4,2.3,5.1c3.6,1.2,6.7,0.7,9.1-2.5C109.1,364.9,110.7,363.1,112.3,361.3z"/>
		<path class="st0" d="M199.4,295.1c-1.1,3.5-1.9,7.1-3.2,10.6c-0.9,2.6-4.3,4.1-6.8,3c-1.1-0.4-2.2-1.9-2.4-2.9
			c-0.6-4.7-0.9-9.5-1.3-14.3c1.7-0.9,3.1-1.7,4.9-2.6C193.4,290.8,196.2,292.8,199.4,295.1L199.4,295.1z"/>
		<path class="st0" d="M218.3,705.5c-2,0.2-3.1,0.3-4.1,0.3c-1.7,0-3.3,0.2-4.8,1.2c-2.2,1.5-4.9,2-7.6,1.6
			c-1.3-0.2-2.7-0.8-3.7-1.6c-2.6-2.1-2.4-3.6,0.7-5.2c3.6-1.8,7.2-3.5,10.9-5c3.4-1.4,5.9-0.2,7.4,3.3
			C217.6,701.7,217.8,703.3,218.3,705.5L218.3,705.5z"/>
		<path class="st0" d="M26,591c-5.8,0.3-8.4-4.6-12-7.9c1.7-4.9,3.3-5.9,7.9-4.8c1.4,0.3,2.8,0.2,4.1,0.6c1.6,0.5,3.2,1.1,4.4,2.2
			c1.7,1.4,1.6,3.1,0.2,4.8C29.2,587.5,27.7,589.1,26,591L26,591z"/>
		<path class="st0" d="M403.8,313.5c-4,5.7-6.9,6.7-12.5,4.5c-1.9-0.7-3.6-1.6-5.4-2.3c-1.4-2.8,1.1-4.4,2.3-6.1
			c0.7-1.1,2.6-1.5,4-1.9C397.8,305.9,400.5,310,403.8,313.5L403.8,313.5z"/>
		<path class="st0" d="M336.1,226.7c1.7,0.7,3.2,1.5,4.8,1.9c2.3,0.6,2.6,2.3,2,4c-0.6,1.9-1.6,3.8-3,5.2c-2.5,2.5-5.4,4.6-8.1,6.9
			c-1.9,0-2.9-1.5-2.8-2.6C330,236.3,330.4,230.2,336.1,226.7L336.1,226.7z"/>
		<path class="st0" d="M404,246.5c-1.3-0.9-2.5-1.7-3.5-2.6c-2.6-2.3-2.4-4.2,0.6-6c2.2-1.3,4.5-2.6,6.9-3.7
			c2.5-1.1,6.4-0.1,7.9,1.9c1.1,1.5,1,3-0.5,4.1c-1.2,0.9-2.6,1.7-4,2.3c-1.4,0.6-3,0.7-4.3,1.4C405.9,244.5,405,245.6,404,246.5
			L404,246.5z"/>
		<path class="st0" d="M543.8,360.2c-1.9,3.2-4,3.5-6.9,2.2c-2.7-1.2-5.4-2-7.5-4.4c-2-2.3-2.4-4-1.2-5.3c1.6-1.8,5.6-2.4,7.2-0.9
			C538.3,354.5,541,357.3,543.8,360.2L543.8,360.2z"/>
		<path class="st0" d="M529.7,218.6c-4.2-3.1-8.4-6.1-12.6-9.2c3.1-4.6,4.5-5,8.5-2.9c1.4,0.7,2.7,1.5,4,2.3
			C533.3,211.1,535.4,214.8,529.7,218.6L529.7,218.6z"/>
		<path class="st0" d="M546.6,197.1c0.7-0.9,1.2-1.8,1.8-2.4c2.1-2.2,3.2-2.3,5.5-0.4c1.3,1.1,2.6,2.4,4.1,3c2.8,1.1,2.7,3.6,3,5.8
			c0.1,0.9-1,2.4-2,2.8c-1.5,0.6-3.3,0.7-4.7-0.8C551.8,202.4,549.3,199.8,546.6,197.1L546.6,197.1z"/>
		<path class="st0" d="M102.6,464c1.4,0,2.8-0.1,4.2,0c2.9,0.3,4.3,2.3,3.8,5.2c-0.4,2.3-2.8,3.6-5.4,2.9c-2.2-0.5-4.4-1.1-6.7-1.6
			c-1.9-0.5-3.2-2.3-3-4.1c0.2-2.4,1.9-2.5,3.7-2.4C100.5,464,101.5,463.9,102.6,464C102.6,463.9,102.6,464,102.6,464L102.6,464z"/>
		<path class="st0" d="M412.9,318.5c0.4-3.8,2.6-6.1,6-5.6c2.3,0.3,4.7,1.5,6.8,2.7c1.7,1,1.8,3.8,0.7,5.4c-1.1,1.7-2.9,2.3-4.9,1.5
			C418.6,321.2,415.9,319.9,412.9,318.5L412.9,318.5z"/>
		<path class="st0" d="M327.7,7c4.1,1.1,7.9,1.4,9.9,4.9c0.6,1,1,2.2,1,3.3c-0.1,3.5-1.9,4.4-4.9,2.5c-2.6-1.6-5.1-3.5-7.6-5.3
			c-1.2-0.8-2.6-1.9-1.6-3.4C325.3,8,326.9,7.5,327.7,7L327.7,7z"/>
		<path class="st0" d="M348.6,40.4c-0.6,3.4-3.4,5.6-6.3,4.6c-3.6-1.3-6.9-3.1-10.6-4.7c0.9-2.4,2.1-3.7,4.5-3.6
			c1.1,0,2.1-0.3,3.2-0.3c1,0,2.1-0.1,3,0.3C344.5,37.7,346.5,39.1,348.6,40.4L348.6,40.4z"/>
		<path class="st0" d="M383.9,229.7c-2.1,2.6-2.6,6.7-7.6,6.3c-0.6-3.3,0.8-5.5,3.1-7.3C380.7,227.8,382.2,227.8,383.9,229.7
			L383.9,229.7z"/>
	</g>
</g>
</svg>
