<svg width="250" height="34" viewBox="0 0 250 34" fill="none" xmlns="http://www.w3.org/2000/svg">
<path d="M20.9966 13.058V13.558H21.4966V13.058H20.9966ZM14.8466 13.058L14.3468 13.0434L14.3318 13.558H14.8466V13.058ZM14.8466 21.75V21.25H14.3318L14.3468 21.7646L14.8466 21.75ZM20.9966 21.75H21.4966V21.25H20.9966V21.75ZM11.6896 2.529C14.4246 2.529 16.6063 3.54932 18.1127 5.3435C19.6272 7.14742 20.4966 9.77999 20.4966 13.058H21.4966C21.4966 9.61201 20.5825 6.73008 18.8785 4.7005C17.1664 2.66118 14.6946 1.529 11.6896 1.529V2.529ZM20.9966 12.558H14.8466V13.558H20.9966V12.558ZM15.3464 13.0726C15.4093 10.914 15.078 9.28114 14.4336 8.16918C13.775 7.03261 12.7889 6.449 11.6486 6.449V7.449C12.3943 7.449 13.0688 7.80839 13.5684 8.67057C14.0823 9.55736 14.407 10.979 14.3468 13.0434L15.3464 13.0726ZM11.6486 6.449C10.9647 6.449 10.3225 6.6597 9.75757 7.11517C9.20062 7.56421 8.74276 8.23123 8.37828 9.10978C7.65329 10.8573 7.25362 13.5506 7.25362 17.404H8.25362C8.25362 13.5904 8.65345 11.0562 9.30195 9.49297C9.62422 8.71615 9.99661 8.20698 10.3852 7.89367C10.7658 7.5868 11.1845 7.449 11.6486 7.449V6.449ZM7.25362 17.404C7.25362 21.2576 7.65335 23.9605 8.37787 25.7177C8.74199 26.6009 9.19933 27.2728 9.75567 27.7259C10.3202 28.1856 10.9629 28.4 11.6486 28.4V27.4C11.1863 27.4 10.7682 27.2608 10.3871 26.9505C9.99791 26.6335 9.62499 26.119 9.30237 25.3365C8.65338 23.7625 8.25362 21.2174 8.25362 17.404H7.25362ZM11.6486 28.4C12.7932 28.4 13.7782 27.8019 14.4347 26.6574C15.0778 25.5362 15.4093 23.8943 15.3464 21.7354L14.3468 21.7646C14.4069 23.8287 14.0824 25.2618 13.5673 26.1598C13.0655 27.0346 12.39 27.4 11.6486 27.4V28.4ZM14.8466 22.25H20.9966V21.25H14.8466V22.25ZM20.4966 21.75C20.4966 25.0281 19.6272 27.6715 18.1118 29.486C16.6048 31.2906 14.423 32.32 11.6896 32.32V33.32C14.6962 33.32 17.1679 32.1764 18.8794 30.127C20.5826 28.0875 21.4966 25.1959 21.4966 21.75H20.4966ZM11.6896 32.32C8.07435 32.32 5.55143 30.5666 3.90771 27.8368C2.24898 25.0822 1.48862 21.3282 1.48862 17.404H0.488615C0.488615 21.4338 1.26575 25.3878 3.05103 28.3527C4.85131 31.3424 7.67889 33.32 11.6896 33.32V32.32ZM1.48862 17.404C1.48862 13.4797 2.24899 9.73646 3.90729 6.99235C5.55042 4.27337 8.07313 2.529 11.6896 2.529V1.529C7.68011 1.529 4.85231 3.49512 3.05144 6.47514C1.26574 9.43004 0.488615 13.3743 0.488615 17.404H1.48862ZM30.4301 2.931H30.9301V2.431H30.4301V2.931ZM30.4301 12.566H29.9301V14.4056L30.8613 12.8191L30.4301 12.566ZM42.2791 32V32.5H42.7791V32H42.2791ZM36.3341 32H35.8341V32.5H36.3341V32ZM30.4301 32V32.5H30.9301V32H30.4301ZM24.4851 32H23.9851V32.5H24.4851V32ZM24.4851 2.931V2.431H23.9851V2.931H24.4851ZM29.9301 2.931V12.566H30.9301V2.931H29.9301ZM30.8613 12.8191C31.8841 11.0766 33.6932 9.868 36.0881 9.868V8.868C33.3171 8.868 31.1902 10.2834 29.9989 12.3129L30.8613 12.8191ZM36.0881 9.868C37.1684 9.868 38.5847 10.1917 39.7251 11.2204C40.8529 12.2377 41.7791 14.0062 41.7791 17.035H42.7791C42.7791 13.7908 41.7784 11.7258 40.3949 10.4779C39.0241 9.24131 37.3448 8.868 36.0881 8.868V9.868ZM41.7791 17.035V32H42.7791V17.035H41.7791ZM42.2791 31.5H36.3341V32.5H42.2791V31.5ZM36.8341 32V17.609H35.8341V32H36.8341ZM36.8341 17.609C36.8341 16.4862 36.609 15.4646 36.1044 14.7076C35.5839 13.927 34.7842 13.46 33.7511 13.46V14.46C34.44 14.46 34.9318 14.7515 35.2724 15.2623C35.6287 15.7969 35.8341 16.5998 35.8341 17.609H36.8341ZM33.7511 13.46C32.6954 13.46 31.7157 13.9104 31.0144 14.8435C30.3235 15.7627 29.9301 17.1114 29.9301 18.88H30.9301C30.9301 17.2456 31.2953 16.1342 31.8138 15.4443C32.322 14.7681 33.0028 14.46 33.7511 14.46V13.46ZM29.9301 18.88V32H30.9301V18.88H29.9301ZM30.4301 31.5H24.4851V32.5H30.4301V31.5ZM24.9851 32V2.931H23.9851V32H24.9851ZM24.4851 3.431H30.4301V2.431H24.4851V3.431ZM60.2237 10.106L60.7196 10.1698L60.7562 9.88484L60.5285 9.70969L60.2237 10.106ZM59.4857 15.846L59.2172 16.2678L59.8812 16.6904L59.9816 15.9098L59.4857 15.846ZM52.3107 32V32.5H52.8107V32H52.3107ZM46.3657 32H45.8657V32.5H46.3657V32ZM46.3657 10.065V9.565H45.8657V10.065H46.3657ZM52.3107 10.065H52.8107V9.565H52.3107V10.065ZM52.3107 12.812H51.8107L52.7579 13.0356L52.3107 12.812ZM57.4767 9.868C57.9832 9.868 58.4919 9.94338 58.9321 10.0652C59.3799 10.189 59.7224 10.3512 59.9188 10.5023L60.5285 9.70969C60.192 9.45079 59.7145 9.244 59.1987 9.10134C58.6755 8.95662 58.0772 8.868 57.4767 8.868V9.868ZM59.7278 10.0422L58.9898 15.7822L59.9816 15.9098L60.7196 10.1698L59.7278 10.0422ZM59.7541 15.4242C58.7918 14.8118 57.7569 14.403 56.4107 14.403V15.403C57.5244 15.403 58.3755 15.7322 59.2172 16.2678L59.7541 15.4242ZM56.4107 14.403C55.3357 14.403 54.1711 14.7701 53.2767 15.7054C52.3809 16.6422 51.8107 18.0914 51.8107 20.151H52.8107C52.8107 18.2746 53.327 17.0998 53.9994 16.3966C54.6732 15.6919 55.5587 15.403 56.4107 15.403V14.403ZM51.8107 20.151V32H52.8107V20.151H51.8107ZM52.3107 31.5H46.3657V32.5H52.3107V31.5ZM46.8657 32V10.065H45.8657V32H46.8657ZM46.3657 10.565H52.3107V9.565H46.3657V10.565ZM51.8107 10.065V12.812H52.8107V10.065H51.8107ZM52.7579 13.0356C53.6026 11.3462 55.3014 9.868 57.4767 9.868V8.868C54.8139 8.868 52.8228 10.6698 51.8635 12.5884L52.7579 13.0356ZM69.4362 32V32.5H69.9362V32H69.4362ZM63.4912 32H62.9912V32.5H63.4912V32ZM63.4912 10.065V9.565H62.9912V10.065H63.4912ZM69.4362 10.065H69.9362V9.565H69.4362V10.065ZM66.4432 1.217C67.9892 1.217 69.3052 2.56868 69.3052 4.243H70.3052C70.3052 2.06332 68.5872 0.217 66.4432 0.217V1.217ZM69.3052 4.243C69.3052 5.91732 67.9892 7.269 66.4432 7.269V8.269C68.5872 8.269 70.3052 6.42268 70.3052 4.243H69.3052ZM66.4432 7.269C64.8972 7.269 63.5812 5.91732 63.5812 4.243H62.5812C62.5812 6.42268 64.2992 8.269 66.4432 8.269V7.269ZM63.5812 4.243C63.5812 2.56868 64.8972 1.217 66.4432 1.217V0.217C64.2992 0.217 62.5812 2.06332 62.5812 4.243H63.5812ZM69.4362 31.5H63.4912V32.5H69.4362V31.5ZM63.9912 32V10.065H62.9912V32H63.9912ZM63.4912 10.565H69.4362V9.565H63.4912V10.565ZM68.9362 10.065V32H69.9362V10.065H68.9362ZM89.08 16.994V17.494H89.5062L89.5737 17.0732L89.08 16.994ZM83.832 16.994L83.3413 16.8978L83.2244 17.494H83.832V16.994ZM83.873 18.798L83.6726 19.2561L83.676 19.2576L83.873 18.798ZM73.418 24.579V24.079H72.9788L72.9222 24.5145L73.418 24.579ZM79.117 24.579L79.6048 24.6889L79.7422 24.079H79.117V24.579ZM79.937 23.062L79.7417 23.5223L79.7422 23.5225L79.937 23.062ZM81.7 9.868C84.1362 9.868 86.0128 10.6523 87.1956 11.8958C88.3733 13.134 88.9129 14.8787 88.5863 16.9148L89.5737 17.0732C89.9441 14.7633 89.3357 12.695 87.9202 11.2067C86.5097 9.72367 84.3478 8.868 81.7 8.868V9.868ZM89.08 16.494H83.832V17.494H89.08V16.494ZM84.3227 17.0902C84.5418 15.9727 84.4486 14.9532 83.9952 14.1912C83.5261 13.4029 82.717 12.968 81.7 12.968V13.968C82.405 13.968 82.8669 14.2506 83.1358 14.7026C83.4204 15.1808 83.5322 15.9243 83.3413 16.8978L84.3227 17.0902ZM81.7 12.968C80.9953 12.968 80.3219 13.1674 79.8146 13.5837C79.2966 14.0087 78.986 14.6335 78.986 15.395H79.986C79.986 14.9265 80.1674 14.5878 80.4489 14.3568C80.7411 14.1171 81.1747 13.968 81.7 13.968V12.968ZM78.986 15.395C78.986 15.9263 79.121 16.385 79.3854 16.7848C79.6444 17.1765 80.0095 17.4845 80.428 17.7495C81.2396 18.2636 82.4046 18.7013 83.6726 19.2561L84.0734 18.3399C82.7174 17.7467 81.6889 17.3644 80.963 16.9047C80.6128 16.6829 80.3731 16.4655 80.2195 16.2333C80.0713 16.0091 79.986 15.7452 79.986 15.395H78.986ZM83.676 19.2576C84.8194 19.7476 86.2807 20.4286 87.4556 21.4773C88.617 22.5139 89.482 23.8935 89.482 25.809H90.482C90.482 23.5425 89.4405 21.9086 88.1214 20.7312C86.8158 19.5659 85.2226 18.8324 84.07 18.3384L83.676 19.2576ZM89.482 25.809C89.482 29.6112 86.0095 32.32 81.331 32.32V33.32C86.3285 33.32 90.482 30.3708 90.482 25.809H89.482ZM81.331 32.32C78.8475 32.32 76.8458 31.5522 75.5467 30.239C74.2556 28.9338 73.6028 27.0344 73.9138 24.6435L72.9222 24.5145C72.5772 27.1666 73.2979 29.3877 74.8358 30.9423C76.3657 32.4888 78.6485 33.32 81.331 33.32V32.32ZM73.418 25.079H79.117V24.079H73.418V25.079ZM78.6292 24.4691C78.2806 26.0161 78.4895 27.2132 79.0929 28.0367C79.696 28.8595 80.6285 29.22 81.536 29.22V28.22C80.8855 28.22 80.2805 27.9655 79.8995 27.4456C79.519 26.9263 79.2974 26.0529 79.6048 24.6889L78.6292 24.4691ZM81.536 29.22C83.1723 29.22 84.537 28.0448 84.537 26.342H83.537C83.537 27.4272 82.6877 28.22 81.536 28.22V29.22ZM84.537 26.342C84.537 25.1861 83.8957 24.4548 83.0525 23.925C82.2486 23.4198 81.1499 23.0323 80.1318 22.6015L79.7422 23.5225C80.8561 23.9937 81.8074 24.3237 82.5205 24.7717C83.1943 25.1952 83.537 25.6529 83.537 26.342H84.537ZM80.1323 22.6017C76.117 20.8983 74.123 18.8892 74.123 16.092H73.123C73.123 19.5268 75.639 21.7817 79.7417 23.5223L80.1323 22.6017ZM74.123 16.092C74.123 12.6291 77.0989 9.868 81.7 9.868V8.868C76.7071 8.868 73.123 11.9289 73.123 16.092H74.123ZM100.644 10.065H100.144V10.565H100.644V10.065ZM104.006 10.065H104.506V9.565H104.006V10.065ZM104.006 14.124V14.624H104.506V14.124H104.006ZM100.644 14.124V13.624H100.144V14.124H100.644ZM103.268 28.105H103.768V27.4377L103.128 27.6251L103.268 28.105ZM103.268 32.533L103.386 33.019L103.768 32.9264V32.533H103.268ZM94.6992 14.124H95.1992V13.624H94.6992V14.124ZM92.2392 14.124H91.7392V14.624H92.2392V14.124ZM92.2392 10.393L92.206 9.89411L91.7392 9.92522V10.393H92.2392ZM97.0772 4.161V3.661H96.5772V4.161H97.0772ZM100.644 4.161H101.144V3.661H100.644V4.161ZM100.644 10.565H104.006V9.565H100.644V10.565ZM103.506 10.065V14.124H104.506V10.065H103.506ZM104.006 13.624H100.644V14.624H104.006V13.624ZM100.144 14.124V26.383H101.144V14.124H100.144ZM100.144 26.383C100.144 27.2201 100.415 27.961 101.042 28.3936C101.661 28.8202 102.492 28.8531 103.409 28.5849L103.128 27.6251C102.363 27.8489 101.883 27.7588 101.61 27.5704C101.345 27.388 101.144 27.0219 101.144 26.383H100.144ZM102.768 28.105V32.533H103.768V28.105H102.768ZM103.151 32.047C100.632 32.6569 98.6556 32.2572 97.3188 31.2384C95.9824 30.22 95.1992 28.5175 95.1992 26.342H94.1992C94.1992 28.7585 95.0765 30.787 96.7127 32.0338C98.3484 33.2803 100.656 33.6801 103.386 33.019L103.151 32.047ZM95.1992 26.342V14.124H94.1992V26.342H95.1992ZM94.6992 13.624H92.2392V14.624H94.6992V13.624ZM92.7392 14.124V10.393H91.7392V14.124H92.7392ZM92.2725 10.8919C93.9287 10.7815 95.2787 10.1332 96.2046 8.9542C97.1211 7.78726 97.5772 6.15783 97.5772 4.161H96.5772C96.5772 6.01817 96.1519 7.40224 95.4181 8.33655C94.6938 9.25881 93.6248 9.79952 92.206 9.89411L92.2725 10.8919ZM97.0772 4.661H100.644V3.661H97.0772V4.661ZM100.144 4.161V10.065H101.144V4.161H100.144ZM124.973 20.725H125.473L125.473 20.7158L124.973 20.725ZM124.973 21.996V22.496H125.473V21.996H124.973ZM112.468 21.996V21.496H111.968V21.996H112.468ZM118.987 23.964V23.464H118.448L118.488 24.0016L118.987 23.964ZM124.727 23.964H125.227V23.464H124.727V23.964ZM112.591 18.593H112.091V19.093H112.591V18.593ZM118.905 18.593V19.093H119.405V18.593H118.905ZM115.748 9.868C118.403 9.868 120.534 10.9659 122.029 12.851C123.533 14.7479 124.413 17.4719 124.473 20.7342L125.473 20.7158C125.41 17.2951 124.486 14.3406 122.812 12.2297C121.13 10.1071 118.71 8.868 115.748 8.868V9.868ZM124.473 20.725V21.996H125.473V20.725H124.473ZM124.973 21.496H112.468V22.496H124.973V21.496ZM111.968 21.996C111.968 24.2237 112.288 26.0014 112.955 27.2402C113.64 28.5119 114.699 29.22 116.076 29.22V28.22C115.116 28.22 114.371 27.7596 113.836 26.7661C113.283 25.7396 112.968 24.1553 112.968 21.996H111.968ZM116.076 29.22C116.792 29.22 117.397 29.0336 117.892 28.6949C118.382 28.3585 118.736 27.8914 118.982 27.3714C119.47 26.3437 119.571 25.056 119.486 23.9264L118.488 24.0016C118.567 25.045 118.462 26.1353 118.079 26.9424C117.89 27.3397 117.641 27.6542 117.326 27.87C117.015 28.0835 116.611 28.22 116.076 28.22V29.22ZM118.987 24.464H124.727V23.464H118.987V24.464ZM124.227 23.964C124.227 28.5508 120.818 32.32 116.117 32.32V33.32C121.419 33.32 125.227 29.0532 125.227 23.964H124.227ZM116.117 32.32C110.7 32.32 106.777 27.4337 106.777 21.094H105.777C105.777 27.7923 109.972 33.32 116.117 33.32V32.32ZM106.777 21.094C106.777 17.778 107.686 14.9635 109.252 12.9894C110.81 11.0248 113.035 9.868 115.748 9.868V8.868C112.721 8.868 110.211 10.1712 108.468 12.3681C106.733 14.5555 105.777 17.604 105.777 21.094H106.777ZM115.748 12.968C114.504 12.968 113.568 13.6657 112.968 14.7041C112.377 15.7271 112.091 17.1035 112.091 18.593H113.091C113.091 17.2125 113.359 16.0264 113.834 15.2044C114.3 14.3978 114.942 13.968 115.748 13.968V12.968ZM112.591 19.093H118.905V18.093H112.591V19.093ZM119.405 18.593C119.405 17.1035 119.119 15.7271 118.528 14.7041C117.928 13.6657 116.992 12.968 115.748 12.968V13.968C116.554 13.968 117.196 14.3978 117.662 15.2044C118.137 16.0264 118.405 17.2125 118.405 18.593H119.405ZM134.207 32V32.5H134.707V32H134.207ZM128.262 32H127.762V32.5H128.262V32ZM128.262 2.931V2.431H127.762V2.931H128.262ZM134.207 2.931H134.707V2.431H134.207V2.931ZM134.207 31.5H128.262V32.5H134.207V31.5ZM128.762 32V2.931H127.762V32H128.762ZM128.262 3.431H134.207V2.431H128.262V3.431ZM133.707 2.931V32H134.707V2.931H133.707ZM166.735 32V32.5H167.174L167.23 32.0643L166.735 32ZM160.134 32L159.639 32.0719L159.701 32.5H160.134V32ZM157.715 15.354L158.209 15.2821L157.221 15.2773L157.715 15.354ZM155.132 32V32.5H155.56L155.626 32.0767L155.132 32ZM148.859 32L148.364 32.0705L148.425 32.5H148.859V32ZM144.718 2.931V2.431H144.141L144.223 3.00151L144.718 2.931ZM150.827 2.931L151.324 2.87753L151.276 2.431H150.827V2.931ZM152.754 20.848L152.257 20.9015L153.247 20.9271L152.754 20.848ZM155.624 2.931V2.431H155.197L155.13 2.85191L155.624 2.931ZM160.831 2.931L161.325 2.85429L161.259 2.431H160.831V2.931ZM163.619 20.889L163.125 20.9657L164.115 20.9457L163.619 20.889ZM165.669 2.931V2.431H165.222L165.172 2.87429L165.669 2.931ZM170.507 2.931L171.002 2.99534L171.076 2.431H170.507V2.931ZM166.735 31.5H160.134V32.5H166.735V31.5ZM160.628 31.9281L158.209 15.2821L157.22 15.4259L159.639 32.0719L160.628 31.9281ZM157.221 15.2773L154.638 31.9233L155.626 32.0767L158.209 15.4307L157.221 15.2773ZM155.132 31.5H148.859V32.5H155.132V31.5ZM149.354 31.9295L145.213 2.86048L144.223 3.00151L148.364 32.0705L149.354 31.9295ZM144.718 3.431H150.827V2.431H144.718V3.431ZM150.33 2.98447L152.257 20.9015L153.251 20.7945L151.324 2.87753L150.33 2.98447ZM153.247 20.9271L156.117 3.01008L155.13 2.85191L152.26 20.7689L153.247 20.9271ZM155.624 3.431H160.831V2.431H155.624V3.431ZM160.337 3.0077L163.125 20.9657L164.113 20.8123L161.325 2.85429L160.337 3.0077ZM164.115 20.9457L166.165 2.98771L165.172 2.87429L163.122 20.8323L164.115 20.9457ZM165.669 3.431H170.507V2.431H165.669V3.431ZM170.011 2.86666L166.239 31.9357L167.23 32.0643L171.002 2.99534L170.011 2.86666ZM190.634 20.725H191.134L191.134 20.7158L190.634 20.725ZM190.634 21.996V22.496H191.134V21.996H190.634ZM178.129 21.996V21.496H177.629V21.996H178.129ZM184.648 23.964V23.464H184.109L184.149 24.0016L184.648 23.964ZM190.388 23.964H190.888V23.464H190.388V23.964ZM178.252 18.593H177.752V19.093H178.252V18.593ZM184.566 18.593V19.093H185.066V18.593H184.566ZM181.409 9.868C184.064 9.868 186.195 10.9659 187.69 12.851C189.194 14.7479 190.074 17.4719 190.134 20.7342L191.134 20.7158C191.071 17.2951 190.147 14.3406 188.473 12.2297C186.79 10.1071 184.371 8.868 181.409 8.868V9.868ZM190.134 20.725V21.996H191.134V20.725H190.134ZM190.634 21.496H178.129V22.496H190.634V21.496ZM177.629 21.996C177.629 24.2237 177.949 26.0014 178.616 27.2402C179.301 28.5119 180.36 29.22 181.737 29.22V28.22C180.777 28.22 180.032 27.7596 179.497 26.7661C178.944 25.7396 178.629 24.1553 178.629 21.996H177.629ZM181.737 29.22C182.453 29.22 183.058 29.0336 183.552 28.6949C184.043 28.3585 184.396 27.8914 184.643 27.3714C185.131 26.3437 185.232 25.056 185.146 23.9264L184.149 24.0016C184.228 25.045 184.123 26.1353 183.74 26.9424C183.551 27.3397 183.302 27.6542 182.987 27.87C182.676 28.0835 182.271 28.22 181.737 28.22V29.22ZM184.648 24.464H190.388V23.464H184.648V24.464ZM189.888 23.964C189.888 28.5508 186.479 32.32 181.778 32.32V33.32C187.08 33.32 190.888 29.0532 190.888 23.964H189.888ZM181.778 32.32C176.361 32.32 172.438 27.4337 172.438 21.094H171.438C171.438 27.7923 175.633 33.32 181.778 33.32V32.32ZM172.438 21.094C172.438 17.778 173.347 14.9635 174.913 12.9894C176.471 11.0248 178.696 9.868 181.409 9.868V8.868C178.382 8.868 175.871 10.1712 174.129 12.3681C172.394 14.5555 171.438 17.604 171.438 21.094H172.438ZM181.409 12.968C180.165 12.968 179.229 13.6657 178.629 14.7041C178.038 15.7271 177.752 17.1035 177.752 18.593H178.752C178.752 17.2125 179.02 16.0264 179.494 15.2044C179.961 14.3978 180.603 13.968 181.409 13.968V12.968ZM178.252 19.093H184.566V18.093H178.252V19.093ZM185.066 18.593C185.066 17.1035 184.78 15.7271 184.189 14.7041C183.589 13.6657 182.653 12.968 181.409 12.968V13.968C182.215 13.968 182.857 14.3978 183.323 15.2044C183.798 16.0264 184.066 17.2125 184.066 18.593H185.066ZM200.277 32V32.5H200.777V32H200.277ZM194.332 32H193.832V32.5H194.332V32ZM194.332 10.065V9.565H193.832V10.065H194.332ZM200.277 10.065H200.777V9.565H200.277V10.065ZM197.284 1.217C198.83 1.217 200.146 2.56868 200.146 4.243H201.146C201.146 2.06332 199.428 0.217 197.284 0.217V1.217ZM200.146 4.243C200.146 5.91732 198.83 7.269 197.284 7.269V8.269C199.428 8.269 201.146 6.42268 201.146 4.243H200.146ZM197.284 7.269C195.738 7.269 194.422 5.91732 194.422 4.243H193.422C193.422 6.42268 195.14 8.269 197.284 8.269V7.269ZM194.422 4.243C194.422 2.56868 195.738 1.217 197.284 1.217V0.217C195.14 0.217 193.422 2.06332 193.422 4.243H194.422ZM200.277 31.5H194.332V32.5H200.277V31.5ZM194.832 32V10.065H193.832V32H194.832ZM194.332 10.565H200.277V9.565H194.332V10.565ZM199.777 10.065V32H200.777V10.065H199.777ZM210.737 32V32.5H211.237V32H210.737ZM204.792 32H204.292V32.5H204.792V32ZM204.792 2.931V2.431H204.292V2.931H204.792ZM210.737 2.931H211.237V2.431H210.737V2.931ZM210.737 31.5H204.792V32.5H210.737V31.5ZM205.292 32V2.931H204.292V32H205.292ZM204.792 3.431H210.737V2.431H204.792V3.431ZM210.237 2.931V32H211.237V2.931H210.237ZM232.492 20.725H232.992L232.992 20.7158L232.492 20.725ZM232.492 21.996V22.496H232.992V21.996H232.492ZM219.987 21.996V21.496H219.487V21.996H219.987ZM226.506 23.964V23.464H225.967L226.008 24.0016L226.506 23.964ZM232.246 23.964H232.746V23.464H232.246V23.964ZM220.11 18.593H219.61V19.093H220.11V18.593ZM226.424 18.593V19.093H226.924V18.593H226.424ZM223.267 9.868C225.922 9.868 228.054 10.9659 229.548 12.851C231.052 14.7479 231.932 17.4719 231.992 20.7342L232.992 20.7158C232.929 17.2951 232.005 14.3406 230.332 12.2297C228.649 10.1071 226.229 8.868 223.267 8.868V9.868ZM231.992 20.725V21.996H232.992V20.725H231.992ZM232.492 21.496H219.987V22.496H232.492V21.496ZM219.487 21.996C219.487 24.2237 219.808 26.0014 220.475 27.2402C221.159 28.5119 222.218 29.22 223.595 29.22V28.22C222.635 28.22 221.89 27.7596 221.355 26.7661C220.802 25.7396 220.487 24.1553 220.487 21.996H219.487ZM223.595 29.22C224.311 29.22 224.917 29.0336 225.411 28.6949C225.902 28.3585 226.255 27.8914 226.502 27.3714C226.99 26.3437 227.09 25.056 227.005 23.9264L226.008 24.0016C226.086 25.045 225.982 26.1353 225.598 26.9424C225.41 27.3397 225.161 27.6542 224.846 27.87C224.534 28.0835 224.13 28.22 223.595 28.22V29.22ZM226.506 24.464H232.246V23.464H226.506V24.464ZM231.746 23.964C231.746 28.5508 228.338 32.32 223.636 32.32V33.32C228.939 33.32 232.746 29.0532 232.746 23.964H231.746ZM223.636 32.32C218.219 32.32 214.296 27.4337 214.296 21.094H213.296C213.296 27.7923 217.491 33.32 223.636 33.32V32.32ZM214.296 21.094C214.296 17.778 215.205 14.9635 216.771 12.9894C218.329 11.0248 220.554 9.868 223.267 9.868V8.868C220.24 8.868 217.73 10.1712 215.987 12.3681C214.253 14.5555 213.296 17.604 213.296 21.094H214.296ZM223.267 12.968C222.023 12.968 221.087 13.6657 220.487 14.7041C219.896 15.7271 219.61 17.1035 219.61 18.593H220.61C220.61 17.2125 220.878 16.0264 221.353 15.2044C221.819 14.3978 222.461 13.968 223.267 13.968V12.968ZM220.11 19.093H226.424V18.093H220.11V19.093ZM226.924 18.593C226.924 17.1035 226.638 15.7271 226.047 14.7041C225.447 13.6657 224.511 12.968 223.267 12.968V13.968C224.073 13.968 224.716 14.3978 225.182 15.2044C225.657 16.0264 225.924 17.2125 225.924 18.593H226.924ZM249.639 10.106L250.135 10.1698L250.171 9.88484L249.944 9.70969L249.639 10.106ZM248.901 15.846L248.632 16.2678L249.296 16.6904L249.397 15.9098L248.901 15.846ZM241.726 32V32.5H242.226V32H241.726ZM235.781 32H235.281V32.5H235.781V32ZM235.781 10.065V9.565H235.281V10.065H235.781ZM241.726 10.065H242.226V9.565H241.726V10.065ZM241.726 12.812H241.226L242.173 13.0356L241.726 12.812ZM246.892 9.868C247.398 9.868 247.907 9.94338 248.347 10.0652C248.795 10.189 249.138 10.3512 249.334 10.5023L249.944 9.70969C249.607 9.45079 249.13 9.244 248.614 9.10134C248.091 8.95662 247.492 8.868 246.892 8.868V9.868ZM249.143 10.0422L248.405 15.7822L249.397 15.9098L250.135 10.1698L249.143 10.0422ZM249.169 15.4242C248.207 14.8118 247.172 14.403 245.826 14.403V15.403C246.94 15.403 247.791 15.7322 248.632 16.2678L249.169 15.4242ZM245.826 14.403C244.751 14.403 243.586 14.7701 242.692 15.7054C241.796 16.6422 241.226 18.0914 241.226 20.151H242.226C242.226 18.2746 242.742 17.0998 243.415 16.3966C244.088 15.6919 244.974 15.403 245.826 15.403V14.403ZM241.226 20.151V32H242.226V20.151H241.226ZM241.726 31.5H235.781V32.5H241.726V31.5ZM236.281 32V10.065H235.281V32H236.281ZM235.781 10.565H241.726V9.565H235.781V10.565ZM241.226 10.065V12.812H242.226V10.065H241.226ZM242.173 13.0356C243.018 11.3462 244.717 9.868 246.892 9.868V8.868C244.229 8.868 242.238 10.6698 241.279 12.5884L242.173 13.0356Z" fill="#6E5F39"/>
</svg>
