<svg width="27" height="10" viewBox="0 0 27 10" fill="none" xmlns="http://www.w3.org/2000/svg">
<path d="M5.88482 1.17283H3.96482V8.73283H2.68082V1.17283H0.736821V0.224827H5.88482V1.17283ZM9.00295 2.16883C10.6469 2.16883 11.5469 3.56083 11.5589 5.39683V5.70883H7.56295C7.56295 7.50883 8.30695 8.14483 9.06295 8.14483C9.74695 8.14483 10.3349 7.60483 10.2869 6.52483H11.4629C11.4629 7.92883 10.4549 8.97283 9.08695 8.97283C7.39495 8.97283 6.31495 7.50883 6.31495 5.56483C6.31495 3.59683 7.37095 2.16883 9.00295 2.16883ZM9.00295 2.99683C8.24695 2.99683 7.63495 3.71683 7.58695 4.96483H10.3229C10.3229 3.64483 9.74695 2.99683 9.00295 2.99683ZM15.1423 5.39683L17.2663 8.73283H15.9823L14.4943 6.41683L12.9343 8.73283H11.7943L13.9303 5.50483L11.9263 2.34883H13.2103L14.5903 4.48483L16.0183 2.34883H17.1583L15.1423 5.39683ZM19.4389 2.34883H20.5429V3.16483H19.4389V7.49683C19.4389 7.96483 19.7269 8.16883 20.2789 7.97683V8.87683C19.0429 9.21283 18.2629 8.62483 18.2629 7.52083V3.16483H17.3869V2.46883C18.3469 2.38483 18.6709 1.79683 18.6709 0.752827H19.4389V2.34883ZM23.6865 2.16883C25.3305 2.16883 26.2305 3.56083 26.2425 5.39683V5.70883H22.2465C22.2465 7.50883 22.9905 8.14483 23.7465 8.14483C24.4305 8.14483 25.0185 7.60483 24.9705 6.52483H26.1465C26.1465 7.92883 25.1385 8.97283 23.7705 8.97283C22.0785 8.97283 20.9985 7.50883 20.9985 5.56483C20.9985 3.59683 22.0545 2.16883 23.6865 2.16883ZM23.6865 2.99683C22.9305 2.99683 22.3185 3.71683 22.2705 4.96483H25.0065C25.0065 3.64483 24.4305 2.99683 23.6865 2.99683Z" fill="#6B5F3E"/>
</svg>
