<svg width="24" height="14" viewBox="0 0 24 14" fill="none" xmlns="http://www.w3.org/2000/svg">
<path d="M6.49682 3.492V9.492C6.49682 11.16 5.48882 12.24 3.82082 12.24C2.18882 12.24 1.12082 11.172 1.12082 9.492V3.492H2.40482V9.552C2.40482 10.62 2.95682 11.292 3.89282 11.292C4.82882 11.292 5.38082 10.62 5.38082 9.552V3.492H6.49682ZM8.75104 3.492V6.396C9.24304 5.664 9.91504 5.436 10.419 5.436C11.775 5.436 12.687 6.72 12.687 8.76C12.687 10.8 11.787 12.24 10.431 12.24C9.89104 12.24 9.18304 11.988 8.75104 11.22V12H7.57504V3.492H8.75104ZM10.167 6.252C9.56704 6.252 8.72704 6.924 8.71504 8.82C8.72704 10.692 9.51904 11.364 10.167 11.364C10.767 11.364 11.451 10.836 11.451 8.772C11.451 6.708 10.695 6.252 10.167 6.252ZM15.8701 5.436C17.5141 5.436 18.4141 6.828 18.4261 8.664V8.976H14.4301C14.4301 10.776 15.1741 11.412 15.9301 11.412C16.6141 11.412 17.2021 10.872 17.1541 9.792H18.3301C18.3301 11.196 17.3221 12.24 15.9541 12.24C14.2621 12.24 13.1821 10.776 13.1821 8.832C13.1821 6.864 14.2381 5.436 15.8701 5.436ZM15.8701 6.264C15.1141 6.264 14.5021 6.984 14.4541 8.232H17.1901C17.1901 6.912 16.6141 6.264 15.8701 6.264ZM21.8414 5.436C22.1654 5.436 22.4774 5.532 22.6334 5.652L22.4894 6.78C22.2134 6.612 21.9134 6.528 21.5894 6.528C20.9774 6.528 20.3174 6.972 20.3174 8.196V12H19.1414V5.616H20.3174V6.36C20.6054 5.844 21.1454 5.436 21.8414 5.436Z" fill="#6B5F3E"/>
<path d="M1.99338 2.03C1.99338 1.726 2.06538 1.514 2.20938 1.394C2.35338 1.274 2.52538 1.214 2.72538 1.214C2.93338 1.214 3.10938 1.274 3.25338 1.394C3.40538 1.514 3.48138 1.726 3.48138 2.03C3.48138 2.318 3.40538 2.526 3.25338 2.654C3.10938 2.782 2.93338 2.846 2.72538 2.846C2.52538 2.846 2.35338 2.782 2.20938 2.654C2.06538 2.526 1.99338 2.318 1.99338 2.03Z" fill="#6B5F3E"/>
<path d="M4.18151 2.03C4.18151 1.726 4.25351 1.514 4.39751 1.394C4.54151 1.274 4.71351 1.214 4.91351 1.214C5.12151 1.214 5.29751 1.274 5.44151 1.394C5.59351 1.514 5.66951 1.726 5.66951 2.03C5.66951 2.318 5.59351 2.526 5.44151 2.654C5.29751 2.782 5.12151 2.846 4.91351 2.846C4.71351 2.846 4.54151 2.782 4.39751 2.654C4.25351 2.526 4.18151 2.318 4.18151 2.03Z" fill="#6B5F3E"/>
</svg>
